<svg width="1376" height="768" version="1.1" xmlns="http://www.w3.org/2000/svg" desc="Created with imagetracer.js version 1.2.6" ><path fill="rgb(0,0,0)" stroke="rgb(0,0,0)" stroke-width="1" opacity="0" d="M 0 0 L 1376 0 L 1376 768 L 0 768 L 0 0 Z M 685 99 L 649 118 L 646 122 L 686 144 L 691 144 L 731 122 L 730 119 L 699 102 L 692 99 L 685 99 Z M 639 123 L 606 140 L 604 144 L 607 146 L 645 166 L 649 166 Q 662 156 680 150 Q 682 149 681 146 L 639 123 Z M 736 123 L 697 144 L 694 148 L 697 150 L 709 155 L 728 166 L 732 166 L 770 146 Q 773 146 772 142 L 739 123 L 736 123 Z M 597 145 L 564 162 Q 561 163 561 167 L 602 189 L 605 189 L 639 171 L 640 168 L 617 154 L 597 145 Z M 778 145 L 737 166 L 736 170 L 772 189 L 775 189 L 807 171 L 813 169 Q 816 168 815 165 L 783 146 L 778 145 Z M 687 149 L 655 166 L 653 170 L 686 188 L 691 188 L 721 172 Q 724 171 723 167 L 690 149 L 687 149 Z M 553 168 L 512 190 L 510 190 L 510 194 L 553 216 L 595 194 L 596 191 L 568 174 L 556 168 L 553 168 Z M 821 168 L 779 191 L 780 194 L 785 195 L 824 216 L 865 194 L 866 194 L 866 190 L 824 168 L 821 168 Z M 645 171 L 617 186 L 609 192 L 617 197 L 644 211 L 650 210 L 655 206 L 680 194 L 682 191 L 679 187 L 675 186 L 662 178 L 648 171 L 645 171 Z M 729 171 L 697 188 L 694 192 L 697 194 L 707 198 L 730 211 L 736 210 L 765 194 L 766 191 L 732 171 L 729 171 Z M 687 193 L 653 212 Q 650 211 651 215 L 687 234 L 690 234 L 724 216 L 725 214 L 722 210 L 711 204 L 690 193 L 687 193 Z M 602 194 L 562 215 Q 558 216 559 220 L 593 238 L 596 238 L 638 216 L 639 214 L 606 194 L 602 194 Z M 772 194 L 741 210 Q 738 211 738 215 L 780 238 L 784 238 L 792 234 L 816 220 Q 818 221 817 218 L 785 199 L 775 194 L 772 194 Z M 503 202 L 502 205 L 502 414 L 503 416 L 535 434 L 549 440 L 550 439 L 551 326 L 611 441 L 613 447 L 619 456 L 633 485 L 638 489 L 681 512 L 683 511 L 683 299 L 682 296 L 642 274 L 637 273 L 636 276 L 637 278 L 637 335 L 636 336 L 636 373 L 637 374 L 637 398 L 549 227 L 546 223 L 509 203 L 503 202 Z M 870 202 L 830 223 L 826 228 L 826 363 L 797 335 Q 798 332 796 333 L 785 322 L 782 320 L 782 319 L 743 280 L 743 278 L 738 274 L 735 274 L 724 279 L 693 298 L 693 511 L 695 512 L 701 510 L 739 489 L 740 487 L 740 369 L 741 363 Q 749 362 754 366 L 783 394 L 784 397 L 789 401 Q 788 403 791 402 L 793 406 L 797 409 Q 796 411 799 410 L 805 418 L 809 421 Q 808 423 811 422 L 813 426 L 821 433 Q 820 435 823 434 L 825 438 L 829 440 L 843 434 L 872 418 L 874 415 L 874 205 L 873 204 Q 874 201 870 202 Z M 644 216 L 606 237 L 602 238 L 600 242 L 636 261 L 639 261 L 645 258 L 671 243 L 677 241 L 682 237 L 677 232 L 653 219 L 647 216 L 644 216 Z M 730 216 L 696 234 L 694 238 L 738 261 L 741 261 L 747 258 L 775 242 Q 777 243 776 241 L 739 219 L 733 216 L 730 216 Z M 816 231 L 788 246 L 785 249 L 785 294 L 789 294 L 817 279 L 818 278 L 818 233 L 816 231 Z M 561 233 L 561 238 L 584 284 L 589 290 L 592 290 L 592 281 L 594 280 L 595 285 L 594 289 Q 593 295 596 298 L 600 300 L 602 304 L 601 303 Q 597 302 596 305 L 613 342 Q 620 349 624 361 L 628 362 L 628 320 L 625 317 Q 626 314 623 315 L 623 313 L 626 314 L 628 312 L 629 308 L 628 303 L 628 269 L 614 259 L 599 251 L 596 251 L 594 254 L 591 248 L 579 240 L 573 238 L 568 234 L 561 233 Z M 687 239 L 646 261 L 644 265 L 687 288 L 690 288 L 704 281 L 731 266 L 732 263 L 698 243 L 690 239 L 687 239 Z M 778 251 L 747 269 L 747 271 L 756 280 Q 755 282 758 281 L 775 299 L 781 298 L 781 252 L 778 251 Z M 816 283 L 785 301 Q 783 310 788 314 L 791 315 L 792 318 L 795 319 L 796 322 L 799 323 L 799 325 L 816 341 L 818 341 L 818 285 L 816 283 Z M 558 359 L 558 401 L 557 402 L 557 439 Q 560 440 558 446 L 588 463 L 593 462 L 594 465 L 598 468 L 620 479 Q 621 481 622 479 L 621 474 L 600 432 L 587 413 L 585 405 L 562 361 L 558 359 Z M 748 374 L 747 377 L 748 379 L 748 430 L 752 430 L 760 426 L 781 414 Q 782 407 780 404 L 752 376 L 752 374 L 748 374 Z M 789 414 L 787 415 L 785 417 L 785 462 L 789 462 L 818 447 Q 820 446 819 443 L 791 414 L 789 414 Z M 778 420 L 755 433 L 751 434 L 748 437 L 748 482 L 752 482 L 760 478 L 781 466 L 781 421 L 778 420 Z M 505 428 L 503 430 L 503 494 L 504 497 Q 507 498 506 495 L 509 495 Q 512 490 519 489 L 532 493 L 537 493 L 544 495 L 548 505 L 549 498 L 549 453 L 546 449 L 505 428 Z M 871 428 L 831 449 L 826 455 L 813 482 L 805 494 L 789 525 Q 788 528 791 529 L 797 528 L 801 523 L 801 517 L 805 510 L 825 497 L 833 496 L 843 491 L 848 491 L 867 498 L 871 497 L 873 491 L 873 477 L 874 476 L 873 430 L 871 428 Z M 560 458 L 558 460 L 558 502 L 559 503 Q 558 505 561 504 L 563 508 L 563 509 L 559 509 Q 557 519 561 525 L 565 528 L 574 532 L 578 532 L 586 526 L 585 520 L 596 520 L 607 510 Q 609 511 608 509 L 616 502 L 623 495 L 623 492 L 581 467 L 563 458 L 560 458 Z M 814 458 L 753 491 L 748 496 L 748 544 L 752 549 L 757 549 L 763 545 L 764 553 L 764 645 L 768 646 L 787 646 L 789 643 L 788 641 L 788 611 L 817 610 L 833 602 L 841 590 L 843 581 L 842 566 L 837 556 L 835 553 L 829 547 L 818 542 Q 811 544 810 541 L 778 541 L 776 540 L 777 535 L 782 525 L 817 462 Q 819 456 814 458 Z M 635 498 L 619 512 L 606 525 L 605 528 L 609 528 L 619 532 L 623 532 L 637 541 L 648 543 L 665 550 L 676 550 L 678 551 L 681 558 L 682 556 L 682 524 L 662 511 L 635 498 Z M 736 500 L 697 521 L 694 524 Q 695 528 693 530 L 693 559 L 694 563 Q 699 569 708 572 L 705 574 L 701 579 L 697 574 L 691 570 L 686 569 L 672 570 L 662 576 L 661 573 L 659 570 L 643 570 L 641 572 L 641 644 L 645 646 L 663 646 L 665 644 L 665 593 L 672 588 L 681 589 L 685 599 L 685 645 L 688 646 L 706 646 L 708 644 L 708 595 L 709 593 Q 712 588 718 587 L 723 588 L 727 594 L 727 644 L 730 646 L 749 646 L 751 644 L 751 594 L 747 581 L 736 571 L 739 564 L 739 505 L 740 502 Q 739 499 736 500 Z M 457 541 L 455 543 L 455 645 L 458 646 L 475 646 L 477 645 L 478 582 L 498 609 Q 497 611 500 610 L 502 615 Q 514 627 523 642 L 532 646 L 545 646 L 546 645 L 546 543 L 545 541 L 526 541 L 523 544 L 523 603 L 501 576 Q 502 573 499 574 L 497 570 L 479 547 L 472 541 L 457 541 Z M 560 570 L 559 573 L 559 620 L 562 632 L 567 640 L 576 645 L 586 647 L 599 645 L 608 639 L 608 642 L 615 646 L 627 646 L 629 644 L 629 573 L 628 572 L 628 570 L 607 570 L 605 572 L 605 622 L 598 627 Q 590 629 587 626 L 583 621 L 583 572 L 582 570 L 560 570 Z M 844 570 L 845 577 L 872 639 L 859 666 L 860 669 L 880 669 L 886 661 Q 886 654 890 652 L 892 644 L 894 642 L 895 637 L 922 575 L 922 570 L 903 570 L 901 571 L 896 579 L 885 612 L 870 575 L 866 570 L 844 570 Z " /><path fill="rgb(0,0,0)" stroke="rgb(0,0,0)" stroke-width="1" opacity="0" d="M 788 561 L 807.5 561 Q 813.3 562.3 816 566.5 Q 819.3 571.2 818 580.5 L 816 586 L 810.5 590 L 805.5 591 L 789.5 591 Q 786.3 589.3 788 582.5 L 789 577.5 L 788 576.5 L 788 561 Z " /><path fill="rgb(44,105,158)" stroke="rgb(44,105,158)" stroke-width="1" opacity="0.984313725490196" d="M 686.5 100 L 689.5 100 L 728 120 Q 729.1 122.7 726.5 122 L 687.5 143 L 648 122 Q 646.9 119.3 649.5 120 L 686.5 100 Z " /><path fill="rgb(44,105,158)" stroke="rgb(44,105,158)" stroke-width="1" opacity="0.984313725490196" d="M 638.5 125 L 680 146 Q 681.1 148.7 678.5 148 L 646.5 165 L 606 144 L 607.5 141 L 638.5 125 Z " /><path fill="rgb(44,105,158)" stroke="rgb(44,105,158)" stroke-width="1" opacity="0.984313725490196" d="M 736.5 125 L 770 142.5 Q 770.8 144.8 768.5 144 L 729.5 165 L 698.5 149 L 696 146.5 L 736.5 125 Z " /><path fill="rgb(44,105,158)" stroke="rgb(44,105,158)" stroke-width="1" opacity="0.984313725490196" d="M 596.5 147 L 638 168 Q 639.1 170.7 636.5 170 L 604.5 187 L 601.5 187 L 562 165.5 L 596.5 147 Z " /><path fill="rgb(44,105,158)" stroke="rgb(44,105,158)" stroke-width="1" opacity="0.984313725490196" d="M 777.5 147 Q 797.3 154.7 814 165.5 L 786.5 181 L 774.5 187 L 771.5 187 L 738 168.5 L 777.5 147 Z " /><path fill="rgb(44,105,158)" stroke="rgb(44,105,158)" stroke-width="1" opacity="0.984313725490196" d="M 687.5 151 L 721 168.5 Q 721.8 170.8 719.5 170 L 687.5 187 L 654 168.5 L 687.5 151 Z " /><path fill="rgb(44,105,158)" stroke="rgb(44,105,158)" stroke-width="1" opacity="0.984313725490196" d="M 552.5 170 L 555.5 170 L 561.5 173 L 595 191.5 L 559.5 211 L 551.5 214 L 511 192.5 L 552.5 170 Z " /><path fill="rgb(44,105,158)" stroke="rgb(44,105,158)" stroke-width="1" opacity="0.984313725490196" d="M 820.5 170 L 823.5 170 L 835.5 176 L 865 192.5 L 834.5 209 L 822.5 214 L 781 191.5 L 820.5 170 Z " /><path fill="rgb(44,105,158)" stroke="rgb(44,105,158)" stroke-width="1" opacity="0.984313725490196" d="M 645.5 173 L 680 190 Q 681.1 192.7 678.5 192 L 645.5 210 L 611 191.5 L 645.5 173 Z " /><path fill="rgb(44,105,158)" stroke="rgb(44,105,158)" stroke-width="1" opacity="0.984313725490196" d="M 728.5 173 L 765 191.5 L 730.5 210 L 702.5 194 L 696 192 Q 694.9 189.3 697.5 190 L 728.5 173 Z " /><path fill="rgb(44,105,158)" stroke="rgb(44,105,158)" stroke-width="1" opacity="0.984313725490196" d="M 686.5 195 L 691.5 196 L 723 213.5 Q 723.8 215.8 721.5 215 L 689.5 232 L 686.5 232 L 653 215 L 654.5 212 L 686.5 195 Z " /><path fill="rgb(44,105,158)" stroke="rgb(44,105,158)" stroke-width="1" opacity="0.984313725490196" d="M 601.5 196 L 604.5 196 L 637 213.5 L 611.5 228 L 595.5 236 L 592.5 236 L 560 218.5 L 601.5 196 Z " /><path fill="rgb(44,105,158)" stroke="rgb(44,105,158)" stroke-width="1" opacity="0.984313725490196" d="M 771.5 196 L 774.5 196 L 782.5 200 L 816 218.5 L 781.5 237 L 739 213.5 L 771.5 196 Z " /><path fill="rgb(44,105,158)" stroke="rgb(44,105,158)" stroke-width="1" opacity="0.984313725490196" d="M 504.5 203 L 547 226.5 L 610 351.5 L 637.5 403 L 638 275 Q 660.7 285 681 298.5 L 681 463.5 L 682 464.5 L 682 495.5 L 681 496.5 L 681 506.5 L 681 508.5 Q 681.8 510.8 679.5 510 L 642.5 490 L 635 484.5 Q 593.2 400.8 548.5 320 L 547.5 439 L 504 416 L 504.5 203 Z " /><path fill="rgb(44,105,158)" stroke="rgb(44,105,158)" stroke-width="1" opacity="0.984313725490196" d="M 643.5 218 L 650.5 220 L 680 236.5 L 637.5 260 L 602 240.5 L 643.5 218 Z " /><path fill="rgb(44,105,158)" stroke="rgb(44,105,158)" stroke-width="1" opacity="0.984313725490196" d="M 729.5 218 L 736.5 220 L 774 240.5 L 738.5 260 L 696 236.5 L 729.5 218 Z " /><path fill="rgb(44,105,158)" stroke="rgb(44,105,158)" stroke-width="1" opacity="0.984313725490196" d="M 815.5 233 L 817 233.5 L 817 276.5 Q 802.8 286.1 786 292 L 786 249.5 L 787.5 248 L 815.5 233 Z " /><path fill="rgb(44,105,158)" stroke="rgb(44,105,158)" stroke-width="1" opacity="0.984313725490196" d="M 686.5 241 L 689.5 241 L 695.5 244 L 731 263.5 L 687.5 287 L 645 263.5 L 686.5 241 Z " /><path fill="rgb(44,105,158)" stroke="rgb(44,105,158)" stroke-width="1" opacity="0.984313725490196" d="M 777.5 253 L 780 253.5 L 779 254.5 L 779 271.5 L 780 272.5 L 780 295.5 L 775.5 298 L 748 269.5 L 777.5 253 Z " /><path fill="rgb(44,105,158)" stroke="rgb(44,105,158)" stroke-width="1" opacity="0.984313725490196" d="M 815.5 285 L 817 285.5 L 817 339.5 L 803 326.5 L 786 308.5 L 786 301.5 L 815.5 285 Z " /><path fill="rgb(44,105,158)" stroke="rgb(44,105,158)" stroke-width="1" opacity="0.984313725490196" d="M 749.5 376 L 774 399.5 L 780 406.5 L 780 412.5 L 750.5 429 Q 747.7 427.8 750 426.5 L 749 423.5 L 749.5 376 Z " /><path fill="rgb(44,105,158)" stroke="rgb(44,105,158)" stroke-width="1" opacity="0.984313725490196" d="M 788.5 416 Q 793.5 415.5 794 419.5 L 795.5 422 L 805 430.5 Q 804.3 432.8 806.5 432 L 809 436 L 818 443.5 Q 818.8 445.8 816.5 445 L 786 461 L 786 417.5 L 787.5 417 L 788.5 416 Z " /><path fill="rgb(44,105,158)" stroke="rgb(44,105,158)" stroke-width="1" opacity="0.984313725490196" d="M 778.5 421 L 780 421.5 L 780 465 L 750.5 481 L 750 462.5 L 749 461.5 L 749 437.5 L 778.5 421 Z " /><path fill="rgb(44,105,158)" stroke="rgb(44,105,158)" stroke-width="1" opacity="0.984313725490196" d="M 695.5 502 L 696 504.5 L 695 504.5 L 695.5 502 Z " /><path fill="rgb(44,105,158)" stroke="rgb(44,105,158)" stroke-width="1" opacity="0.984313725490196" d="M 457.5 543 L 473.5 543 L 478 547.5 L 524.5 608 L 525 543 L 544.5 543 L 545 543.5 L 545 644 L 528.5 644 L 521 636.5 L 477 578 L 475 578.5 L 476 579.5 L 476 644 L 456.5 644 L 456 643.5 L 456 544.5 L 457.5 543 Z " /><path fill="rgb(44,105,158)" stroke="rgb(44,105,158)" stroke-width="1" opacity="0.984313725490196" d="M 765 543 L 812.5 543 L 820.5 545 L 834 553 L 839 561.5 L 842 576.5 Q 839.3 578.2 841 584.5 L 838 592.5 L 828.5 603 Q 822 607.5 812.5 609 L 787 609 L 787 644 L 765 644 L 765 543 Z M 787 559 L 787 593 L 805 593 L 814 590 Q 819 586 820 579 L 820 573 L 818 567 Q 814 561 807 559 L 787 559 Z " /><path fill="rgb(44,105,158)" stroke="rgb(44,105,158)" stroke-width="1" opacity="0.984313725490196" d="M 680.5 570 L 690.5 572 L 698 578.5 L 699.5 582 Q 704.8 574.3 714.5 571 L 726.5 570 L 738.5 574 L 745 580.5 L 749 591.5 L 749 644 L 729 644 L 729 595.5 Q 727.8 589.8 723.5 587 L 714.5 586 L 708 591.5 L 706 600.5 L 706 639.5 L 707 644 L 686 644 L 686 595.5 Q 684.8 589.8 680.5 587 L 672.5 586 Q 666 587.5 663 592.5 L 663 644 L 643 644 L 643 571.5 L 643.5 571 L 656.5 571 L 660 573.5 L 661 579 L 671.5 572 L 680.5 570 Z " /><path fill="rgb(44,105,158)" stroke="rgb(44,105,158)" stroke-width="1" opacity="0.984313725490196" d="M 561 571 L 581 571 L 581 619.5 Q 582.3 625.3 586.5 628 Q 590 630.5 597.5 629 L 606 623.5 L 607 621.5 L 607 571 L 626.5 571 L 627 571.5 L 627 644 L 612.5 644 L 610 641.5 L 609 637 L 596.5 644 L 580.5 645 Q 569.8 642.7 565 634.5 L 561 623.5 L 561 571 Z " /><path fill="rgb(44,105,158)" stroke="rgb(44,105,158)" stroke-width="1" opacity="0.984313725490196" d="M 846.5 571 L 862.5 571 L 868 574.5 L 884.5 616 L 900 573 L 904.5 571 L 921 571 L 886 656.5 L 879.5 667 L 877.5 668 L 860 668 L 874 638.5 L 845 572.5 L 846.5 571 Z " /><path fill="rgb(237,206,150)" stroke="rgb(237,206,150)" stroke-width="1" opacity="0.7450980392156863" d="M 684.5 99 L 691.5 99 L 698.5 102 L 730 119 L 731 121.5 L 690.5 144 L 685.5 144 L 646 121.5 L 648.5 118 L 684.5 99 Z M 687 100 L 650 120 Q 647 119 648 122 L 688 143 L 727 122 Q 729 123 728 120 L 690 100 L 687 100 Z " /><path fill="rgb(237,206,150)" stroke="rgb(237,206,150)" stroke-width="1" opacity="0.7450980392156863" d="M 638.5 123 L 681 145.5 Q 681.8 149.3 679.5 150 Q 662.3 156.3 648.5 166 L 644.5 166 L 606.5 146 L 604 143.5 L 605.5 140 L 638.5 123 Z M 639 125 L 608 141 L 606 144 L 647 165 L 679 148 Q 681 149 680 146 L 639 125 Z " /><path fill="rgb(237,206,150)" stroke="rgb(237,206,150)" stroke-width="1" opacity="0.7450980392156863" d="M 735.5 123 L 738.5 123 L 772 141.5 Q 772.5 145.5 769.5 146 L 731.5 166 L 727.5 166 L 708.5 155 L 696.5 150 L 694 147.5 L 696.5 144 L 735.5 123 Z M 737 125 L 696 147 L 699 149 L 730 165 L 769 144 Q 771 145 770 143 L 737 125 Z " /><path fill="rgb(237,206,150)" stroke="rgb(237,206,150)" stroke-width="1" opacity="0.7450980392156863" d="M 596.5 145 L 616.5 154 L 640 167.5 L 638.5 171 L 604.5 189 L 601.5 189 L 561 166.5 Q 560.5 162.5 563.5 162 L 596.5 145 Z M 597 147 L 562 166 L 602 187 L 605 187 L 637 170 Q 639 171 638 168 L 597 147 Z " /><path fill="rgb(237,206,150)" stroke="rgb(237,206,150)" stroke-width="1" opacity="0.7450980392156863" d="M 777.5 145 L 782.5 146 L 815 164.5 Q 815.5 168.5 812.5 169 L 806.5 171 L 774.5 189 L 771.5 189 L 736 169.5 L 737 166 L 777.5 145 Z M 778 147 L 738 169 L 772 187 L 775 187 L 787 181 L 814 166 Q 797 155 778 147 Z " /><path fill="rgb(237,206,150)" stroke="rgb(237,206,150)" stroke-width="1" opacity="0.7450980392156863" d="M 686.5 149 L 689.5 149 L 723 167 Q 723.8 170.8 720.5 172 L 690.5 188 L 685.5 188 L 653 169.5 L 654.5 166 L 686.5 149 Z M 688 151 L 654 169 L 688 187 L 720 170 Q 722 171 721 169 L 688 151 Z " /><path fill="rgb(237,206,150)" stroke="rgb(237,206,150)" stroke-width="1" opacity="0.7450980392156863" d="M 552.5 168 L 555.5 168 L 567.5 174 L 596 190.5 L 594.5 194 L 552.5 216 L 510 194 L 510 190 L 511.5 190 L 552.5 168 Z M 553 170 L 511 193 L 552 214 L 560 211 L 595 192 L 562 173 L 556 170 L 553 170 Z " /><path fill="rgb(237,206,150)" stroke="rgb(237,206,150)" stroke-width="1" opacity="0.7450980392156863" d="M 820.5 168 L 823.5 168 L 866 190 L 866 194 L 864.5 194 L 823.5 216 L 784.5 195 L 780 194 L 779 190.5 L 820.5 168 Z M 821 170 L 781 192 L 823 214 L 835 209 L 865 193 L 836 176 L 824 170 L 821 170 Z " /><path fill="rgb(237,206,150)" stroke="rgb(237,206,150)" stroke-width="1" opacity="0.7450980392156863" d="M 644.5 171 L 647.5 171 L 661.5 178 L 674.5 186 L 678.5 187 L 682 190.5 L 679.5 194 L 654.5 206 L 649.5 210 L 643.5 211 L 616.5 197 L 609 191.5 L 616.5 186 L 644.5 171 Z M 646 173 L 611 192 L 646 210 L 679 192 Q 681 193 680 190 L 646 173 Z " /><path fill="rgb(237,206,150)" stroke="rgb(237,206,150)" stroke-width="1" opacity="0.7450980392156863" d="M 728.5 171 L 731.5 171 L 766 190.5 L 764.5 194 L 735.5 210 L 729.5 211 L 706.5 198 L 696.5 194 L 694 191.5 L 696.5 188 L 728.5 171 Z M 729 173 L 698 190 Q 695 189 696 192 L 703 194 L 731 210 L 765 192 L 729 173 Z " /><path fill="rgb(237,206,150)" stroke="rgb(237,206,150)" stroke-width="1" opacity="0.7450980392156863" d="M 686.5 193 L 689.5 193 L 710.5 204 L 721.5 210 L 725 213.5 L 723.5 216 L 689.5 234 L 686.5 234 L 651 214.5 Q 649.9 211.2 652.5 212 L 686.5 193 Z M 687 195 L 655 212 L 653 215 L 687 232 L 690 232 L 722 215 Q 724 216 723 214 L 692 196 L 687 195 Z " /><path fill="rgb(237,206,150)" stroke="rgb(237,206,150)" stroke-width="1" opacity="0.7450980392156863" d="M 601.5 194 L 605.5 194 L 639 213.5 L 638 216 L 595.5 238 L 592.5 238 L 559 220 Q 558.3 216.2 561.5 215 L 601.5 194 Z M 602 196 L 560 219 L 593 236 L 596 236 L 612 228 L 637 214 L 605 196 L 602 196 Z " /><path fill="rgb(237,206,150)" stroke="rgb(237,206,150)" stroke-width="1" opacity="0.7450980392156863" d="M 771.5 194 L 774.5 194 L 784.5 199 L 817 217.5 Q 818.1 220.8 815.5 220 L 791.5 234 L 783.5 238 L 779.5 238 L 738 214.5 Q 737.5 210.5 740.5 210 L 771.5 194 Z M 772 196 L 739 214 L 782 237 L 816 219 L 783 200 L 775 196 L 772 196 Z " /><path fill="rgb(237,206,150)" stroke="rgb(237,206,150)" stroke-width="1" opacity="0.7450980392156863" d="M 503 202 L 508.5 203 L 545.5 223 L 549 226.5 L 636.5 398 L 637 373.5 L 636 372.5 L 636 335.5 L 637 334.5 L 637 277.5 L 636 275.5 L 637 273 L 641.5 274 L 682 296 L 683 298.5 L 683 510.5 L 680.5 512 L 637.5 489 L 633 484.5 L 619 455.5 L 613 446.5 L 611 440.5 L 550.5 326 L 550 438.5 L 548.5 440 L 534.5 434 L 503 415.5 L 502 413.5 L 502 204.5 L 503 202 Z M 505 203 L 504 416 L 548 439 L 549 320 Q 593 401 635 485 L 643 490 L 680 510 Q 682 511 681 509 L 681 507 L 681 497 L 682 496 L 682 465 L 681 464 L 681 299 Q 661 285 638 275 L 638 403 L 610 352 L 547 227 L 505 203 Z " /><path fill="rgb(237,206,150)" stroke="rgb(237,206,150)" stroke-width="1" opacity="0.7450980392156863" d="M 869.5 202 Q 873.9 200.5 873 203.5 L 874 204.5 L 874 414.5 L 871.5 418 L 842.5 434 L 828.5 440 L 825 438 L 822.5 434 Q 820.3 434.8 821 432.5 L 813 426 L 810.5 422 Q 808.3 422.8 809 420.5 L 805 418 L 798.5 410 Q 796.3 410.8 797 408.5 L 793 406 L 790.5 402 Q 788.3 402.8 789 400.5 L 784 396.5 L 782.5 394 L 753.5 366 Q 749 362.1 741 363 L 740 368.5 L 740 486.5 L 739 489 L 700.5 510 L 694.5 512 L 693 510.5 L 693 297.5 L 723.5 279 L 734.5 274 L 737.5 274 L 743 278 L 743 279.5 L 782 318.5 L 782 320 L 785 321.5 L 795.5 333 Q 797.8 332.3 797 334.5 L 826 362.5 L 826 227.5 L 829.5 223 L 869.5 202 Z M 696 502 L 695 505 L 696 505 L 696 502 Z " /><path fill="rgb(237,206,150)" stroke="rgb(237,206,150)" stroke-width="1" opacity="0.7450980392156863" d="M 643.5 216 L 646.5 216 L 652.5 219 L 676.5 232 L 682 236.5 L 676.5 241 L 670.5 243 L 644.5 258 L 638.5 261 L 635.5 261 L 600 241.5 L 601.5 238 L 605.5 237 L 643.5 216 Z M 644 218 L 602 241 L 638 260 L 680 237 L 651 220 L 644 218 Z " /><path fill="rgb(237,206,150)" stroke="rgb(237,206,150)" stroke-width="1" opacity="0.7450980392156863" d="M 729.5 216 L 732.5 216 L 738.5 219 L 776 240.5 Q 776.8 242.8 774.5 242 L 746.5 258 L 740.5 261 L 737.5 261 L 694 238 L 695.5 234 L 729.5 216 Z M 730 218 L 696 237 L 739 260 L 774 241 L 737 220 L 730 218 Z " /><path fill="rgb(237,206,150)" stroke="rgb(237,206,150)" stroke-width="1" opacity="0.7450980392156863" d="M 815.5 231 L 818 232.5 L 818 277.5 L 816.5 279 L 788.5 294 L 785 294 L 785 248.5 L 787.5 246 L 815.5 231 Z M 816 233 L 788 248 L 786 250 L 786 292 Q 803 286 817 277 L 817 234 L 816 233 Z " /><path fill="rgb(237,206,150)" stroke="rgb(237,206,150)" stroke-width="1" opacity="0.7450980392156863" d="M 561 233 L 567.5 234 L 572.5 238 L 578.5 240 L 591 247.5 L 593.5 254 L 595.5 251 L 598.5 251 L 613.5 259 L 628 268.5 L 628 302.5 L 629 307.5 L 628 311.5 L 625.5 314 L 623 313 L 623 315 Q 625.7 313.9 625 316.5 L 628 319.5 L 628 362 L 624 360.5 Q 620.1 349.4 613 341.5 L 596 304.5 Q 596.8 302.3 600.5 303 L 602 303.5 L 599.5 300 L 596 297.5 Q 593.4 294.6 594 288.5 L 595 284.5 L 594 280 L 592 280.5 L 592 290 L 588.5 290 L 584 283.5 L 561 237.5 L 561 233 Z " /><path fill="rgb(237,206,150)" stroke="rgb(237,206,150)" stroke-width="1" opacity="0.7450980392156863" d="M 686.5 239 L 689.5 239 L 697.5 243 L 732 262.5 L 730.5 266 L 703.5 281 L 689.5 288 L 686.5 288 L 644 264.5 L 645.5 261 L 686.5 239 Z M 687 241 L 645 264 L 688 287 L 731 264 L 696 244 L 690 241 L 687 241 Z " /><path fill="rgb(237,206,150)" stroke="rgb(237,206,150)" stroke-width="1" opacity="0.7450980392156863" d="M 777.5 251 L 781 251.5 L 781 298 L 774.5 299 L 757.5 281 Q 755.3 281.8 756 279.5 L 747 270.5 L 747 268.5 L 777.5 251 Z M 778 253 L 748 270 L 776 298 L 780 296 L 780 273 L 779 272 L 779 255 L 780 254 L 778 253 Z " /><path fill="rgb(237,206,150)" stroke="rgb(237,206,150)" stroke-width="1" opacity="0.7450980392156863" d="M 815.5 283 L 818 284.5 L 818 340.5 L 815.5 341 L 799 324.5 L 799 323 L 796 321.5 L 794.5 319 L 792 317.5 L 790.5 315 L 788 313.5 Q 783.1 310.4 785 300.5 L 815.5 283 Z M 816 285 L 786 302 L 786 309 L 803 327 L 817 340 L 817 286 L 816 285 Z " /><path fill="rgb(237,206,150)" stroke="rgb(237,206,150)" stroke-width="1" opacity="0.7450980392156863" d="M 558 359 L 562 360.5 L 585 404.5 L 587 412.5 L 600 431.5 L 621 473.5 L 622 478.5 Q 620.8 481.3 619.5 479 L 597.5 468 L 594 464.5 L 592.5 462 L 587.5 463 L 558 445.5 Q 559.5 440 557 438.5 L 557 401.5 L 558 400.5 L 558 359 Z " /><path fill="rgb(237,206,150)" stroke="rgb(237,206,150)" stroke-width="1" opacity="0.7450980392156863" d="M 748 374 L 752 374 L 752 375.5 L 780 403.5 Q 782.3 406.7 781 413.5 L 759.5 426 L 751.5 430 L 748 430 L 748 378.5 L 747 376.5 L 748 374 Z M 750 376 L 749 424 L 750 427 Q 748 428 751 429 L 780 413 L 780 407 L 774 400 L 750 376 Z " /><path fill="rgb(237,206,150)" stroke="rgb(237,206,150)" stroke-width="1" opacity="0.7450980392156863" d="M 788.5 414 L 790.5 414 L 819 442.5 Q 819.8 446.3 817.5 447 L 788.5 462 L 785 462 L 785 416.5 L 786.5 415 L 788.5 414 Z M 789 416 L 788 417 L 786 418 L 786 461 L 817 445 Q 819 446 818 444 L 809 436 L 807 432 Q 804 433 805 431 L 796 422 L 794 420 Q 794 416 789 416 Z " /><path fill="rgb(237,206,150)" stroke="rgb(237,206,150)" stroke-width="1" opacity="0.7450980392156863" d="M 777.5 420 L 781 420.5 L 781 465.5 L 759.5 478 L 751.5 482 L 748 482 L 748 436.5 L 750.5 434 L 754.5 433 L 777.5 420 Z M 779 421 L 749 438 L 749 462 L 750 463 L 751 481 L 780 465 L 780 422 L 779 421 Z " /><path fill="rgb(237,206,150)" stroke="rgb(237,206,150)" stroke-width="1" opacity="0.7450980392156863" d="M 504.5 428 L 545.5 449 L 549 452.5 L 549 497.5 L 547.5 505 L 543.5 495 L 536.5 493 L 531.5 493 L 518.5 489 Q 511.5 490 508.5 495 L 506 495 Q 507 498 504 497 L 503 493.5 L 503 429.5 L 504.5 428 Z " /><path fill="rgb(237,206,150)" stroke="rgb(237,206,150)" stroke-width="1" opacity="0.7450980392156863" d="M 870.5 428 L 873 429.5 L 874 475.5 L 873 476.5 L 873 490.5 L 870.5 497 L 866.5 498 L 847.5 491 L 842.5 491 L 832.5 496 L 824.5 497 L 805 509.5 L 801 516.5 L 801 522.5 L 796.5 528 L 790.5 529 Q 788.3 528.3 789 524.5 L 805 493.5 L 813 481.5 L 826 454.5 L 830.5 449 L 870.5 428 Z " /><path fill="rgb(237,206,150)" stroke="rgb(237,206,150)" stroke-width="1" opacity="0.7450980392156863" d="M 559.5 458 L 562.5 458 L 580.5 467 L 623 491.5 L 623 494.5 L 615.5 502 L 608 508.5 Q 608.8 510.8 606.5 510 L 595.5 520 L 585 520 L 586 525.5 L 577.5 532 L 573.5 532 L 564.5 528 L 561 524.5 Q 557.4 518.9 559 509 L 563 509 L 563 507.5 L 560.5 504 Q 558.3 504.8 559 502.5 L 558 501.5 L 558 459.5 L 559.5 458 Z " /><path fill="rgb(237,206,150)" stroke="rgb(237,206,150)" stroke-width="1" opacity="0.7450980392156863" d="M 813.5 458 Q 818.8 456.3 817 461.5 L 782 524.5 L 777 534.5 L 776 539.5 L 777.5 541 L 809.5 541 Q 811.3 543.8 817.5 542 L 828.5 547 L 835 552.5 L 837 555.5 L 842 565.5 L 843 580.5 L 841 589.5 L 833 602 L 816.5 610 L 788 611 L 788 640.5 L 789 642.5 L 786.5 646 L 767.5 646 L 764 645 L 764 552.5 L 762.5 545 L 756.5 549 L 751.5 549 L 748 543.5 L 748 495.5 L 752.5 491 L 813.5 458 Z M 765 543 L 765 644 L 787 644 L 787 609 L 813 609 Q 822 607 829 603 L 838 593 L 841 585 Q 839 578 842 577 L 839 562 L 834 553 L 821 545 L 813 543 L 765 543 Z " /><path fill="rgb(237,206,150)" stroke="rgb(237,206,150)" stroke-width="1" opacity="0.7450980392156863" d="M 634.5 498 L 661.5 511 L 682 523.5 L 682 555.5 L 680.5 558 L 677.5 551 L 675.5 550 L 664.5 550 L 647.5 543 L 636.5 541 L 622.5 532 L 618.5 532 L 608.5 528 L 605 528 L 606 524.5 L 618.5 512 L 634.5 498 Z " /><path fill="rgb(237,206,150)" stroke="rgb(237,206,150)" stroke-width="1" opacity="0.7450980392156863" d="M 735.5 500 Q 739.3 499.3 740 501.5 L 739 504.5 L 739 563.5 L 736 570.5 L 747 580.5 L 751 593.5 L 751 643.5 L 748.5 646 L 729.5 646 L 727 643.5 L 727 593.5 L 722.5 588 L 717.5 587 Q 711.8 588.3 709 592.5 L 708 594.5 L 708 643.5 L 705.5 646 L 687.5 646 L 685 645 L 685 598.5 L 680.5 589 L 671.5 588 L 665 592.5 L 665 643.5 L 662.5 646 L 644.5 646 L 641 643.5 L 641 571.5 L 642.5 570 L 658.5 570 L 661 572.5 L 662 576 L 671.5 570 L 685.5 569 L 690.5 570 L 697 574 L 700.5 579 L 704.5 574 L 708 571.5 Q 698.9 569.1 694 562.5 L 693 558.5 L 693 529.5 Q 695.3 528.2 694 523.5 L 696.5 521 L 735.5 500 Z M 681 570 L 672 572 L 661 579 L 660 574 L 657 571 L 644 571 L 643 572 L 643 644 L 663 644 L 663 593 Q 666 588 673 586 L 681 587 Q 685 590 686 596 L 686 644 L 707 644 L 706 640 L 706 601 L 708 592 L 715 586 L 724 587 Q 728 590 729 596 L 729 644 L 749 644 L 749 592 L 745 581 L 739 574 L 727 570 L 715 571 Q 705 574 700 582 L 698 579 L 691 572 L 681 570 Z " /><path fill="rgb(237,206,150)" stroke="rgb(237,206,150)" stroke-width="1" opacity="0.7450980392156863" d="M 456.5 541 L 471.5 541 L 479 546.5 L 497 569.5 L 499 574 Q 501.7 572.9 501 575.5 L 522.5 603 L 523 543.5 L 525.5 541 L 544.5 541 L 546 542.5 L 546 644.5 L 544.5 646 L 531.5 646 L 523 642 Q 514.4 627.1 502 614.5 L 500 610 Q 497.3 611.1 498 608.5 L 477.5 582 L 477 645 L 474.5 646 L 457.5 646 L 455 645 L 455 542.5 L 456.5 541 Z M 456 543 L 456 644 L 457 644 L 476 644 L 476 580 L 475 579 L 477 578 L 521 637 L 529 644 L 545 644 L 545 544 L 545 543 L 525 543 L 525 608 L 478 548 L 474 543 L 456 543 Z " /><path fill="rgb(237,206,150)" stroke="rgb(237,206,150)" stroke-width="1" opacity="0.7450980392156863" d="M 787 559 L 806.5 559 Q 814.1 560.9 818 566.5 L 820 572.5 L 820 578.5 Q 818.8 586.3 813.5 590 L 804.5 593 L 787 593 L 787 559 Z M 788 561 L 788 577 L 789 578 L 788 583 Q 786 589 790 591 L 806 591 L 811 590 L 816 586 L 818 581 Q 819 571 816 567 Q 813 562 808 561 L 788 561 Z " /><path fill="rgb(237,206,150)" stroke="rgb(237,206,150)" stroke-width="1" opacity="0.7450980392156863" d="M 560 570 L 581.5 570 L 583 571.5 L 583 620.5 L 586.5 626 Q 590 628.5 597.5 627 L 605 621.5 L 605 571.5 L 606.5 570 L 627.5 570 L 628 571.5 L 629 572.5 L 629 643.5 L 626.5 646 L 614.5 646 L 608 641.5 L 607.5 639 L 598.5 645 L 585.5 647 L 575.5 645 L 567 639.5 L 562 631.5 L 559 619.5 L 559 572.5 L 560 570 Z M 561 571 L 561 624 L 565 635 Q 570 643 581 645 L 597 644 L 609 637 L 610 642 L 613 644 L 627 644 L 627 572 L 627 571 L 607 571 L 607 622 L 606 624 L 598 629 Q 590 631 587 628 Q 582 625 581 620 L 581 571 L 561 571 Z " /><path fill="rgb(237,206,150)" stroke="rgb(237,206,150)" stroke-width="1" opacity="0.7450980392156863" d="M 844 570 L 865.5 570 L 870 574.5 L 884.5 612 L 896 578.5 L 900.5 571 L 902.5 570 L 922 570 L 922 574.5 L 895 636.5 L 894 641.5 L 892 643.5 L 890 651.5 Q 886.3 654.3 886 660.5 L 879.5 669 L 859.5 669 L 859 665.5 L 872 638.5 L 845 576.5 L 844 570 Z M 847 571 L 845 573 L 874 639 L 860 668 L 878 668 L 880 667 L 886 657 L 921 571 L 905 571 L 900 573 L 885 616 L 868 575 L 863 571 L 847 571 Z " /></svg>