<svg width="986" height="600" version="1.1" xmlns="http://www.w3.org/2000/svg" desc="Created with imagetracer.js version 1.2.6" ><path fill="rgb(0,0,0)" stroke="rgb(0,0,0)" stroke-width="1" opacity="0" d="M 0 0 L 986 0 L 986 600 L 0 600 L 0 0 Z M 467 64 L 445 71 L 426 84 Q 423 83 424 86 L 421 88 Q 422 90 419 89 L 419 91 L 418 91 L 406 107 L 401 117 L 399 122 L 399 126 L 397 129 L 395 139 L 395 148 L 394 149 L 395 163 L 399 176 L 399 180 Q 404 194 413 205 Q 423 218 440 226 L 465 184 L 466 180 L 463 178 Q 451 170 448 154 L 449 144 L 454 132 Q 462 120 478 117 L 491 118 L 505 126 Q 513 133 515 147 L 514 160 L 509 170 L 498 180 L 523 225 L 529 224 L 541 214 L 544 212 L 554 200 L 557 193 L 560 190 L 567 171 L 568 156 L 569 155 L 567 131 L 562 119 L 562 116 Q 555 100 544 89 Q 541 90 542 88 L 530 77 L 515 69 L 497 64 L 467 64 Z M 374 234 L 359 237 L 347 242 Q 332 249 322 261 Q 323 263 321 262 L 312 273 L 305 286 L 299 307 L 299 335 Q 301 336 300 341 Q 306 362 318 377 Q 329 390 345 398 L 363 405 L 380 408 L 399 407 L 415 403 L 435 393 L 445 385 L 457 371 L 466 355 L 466 352 L 471 339 L 473 321 L 472 319 L 419 319 Q 419 332 412 341 L 400 351 L 389 354 Q 370 354 361 344 Q 362 341 359 342 L 354 333 L 352 326 Q 351 308 359 301 L 361 298 Q 367 290 379 288 L 392 288 L 400 291 L 404 291 L 426 253 L 428 246 L 422 241 L 406 235 Q 399 237 398 234 L 374 234 Z M 535 245 Q 522 252 513 264 Q 514 266 511 265 L 501 282 L 496 294 L 493 307 L 493 335 L 494 340 L 503 363 L 511 374 L 513 377 Q 525 391 544 400 L 569 407 L 591 407 L 601 405 Q 621 399 636 387 Q 648 377 656 363 L 664 343 Q 663 336 666 333 L 666 307 L 663 294 L 656 278 L 648 266 L 635 252 L 624 245 L 620 245 L 595 291 L 602 295 Q 609 301 612 312 L 612 328 L 605 342 L 593 351 L 586 353 L 570 352 L 559 346 Q 550 340 547 329 L 547 311 L 553 300 L 562 292 L 561 286 L 539 248 Q 539 244 535 245 Z M 326 425 Q 324 428 318 426 L 308 430 L 303 436 L 300 447 L 300 481 L 303 490 L 305 489 L 304 491 L 305 494 L 310 497 L 321 500 L 344 500 L 356 497 Q 360 495 357 494 Q 358 491 360 493 L 364 485 L 364 477 L 365 476 L 365 450 L 362 436 Q 361 433 360 435 L 360 434 L 359 432 L 355 428 L 348 426 L 326 425 Z M 565 425 L 550 428 L 543 433 L 544 435 L 543 434 L 540 438 L 541 442 L 541 443 L 540 441 L 538 445 L 538 476 L 540 482 L 540 487 L 543 494 L 546 495 L 546 493 Q 548 494 546 496 L 550 498 L 560 500 L 582 500 L 594 497 L 595 495 L 593 495 Q 594 492 596 494 L 599 490 Q 598 485 600 484 L 600 473 L 599 475 L 598 475 L 599 473 L 585 472 Q 586 480 583 484 L 579 486 Q 566 488 558 485 L 555 483 L 554 479 L 554 447 L 555 442 L 559 440 Q 563 441 565 439 L 581 440 Q 585 443 584 451 L 586 450 L 585 452 L 599 452 L 599 439 L 596 432 L 594 429 L 586 426 L 565 425 Z M 603 426 L 603 428 L 602 430 L 602 434 L 608 452 L 610 451 L 609 453 L 616 477 L 618 476 L 617 478 L 617 481 L 623 497 L 624 499 L 646 499 L 652 482 L 651 479 L 653 479 L 664 446 L 666 436 L 668 433 L 667 429 L 668 427 L 655 426 L 655 428 L 654 427 L 644 453 L 645 457 L 643 457 L 644 460 L 643 459 L 641 464 L 642 466 L 641 465 L 636 480 L 637 483 L 635 483 L 629 463 L 617 428 L 616 426 L 603 426 Z M 398 447 L 389 450 L 386 452 L 386 448 L 372 448 L 372 520 L 374 520 L 376 520 Q 384 521 387 519 L 388 496 L 396 500 Q 409 502 416 497 L 419 493 L 418 490 L 420 490 L 422 481 L 422 467 L 420 458 L 419 458 L 419 457 L 418 453 Q 412 446 398 447 Z M 446 447 L 435 450 L 429 458 L 427 466 L 427 481 L 431 494 L 435 497 L 444 500 Q 460 502 469 497 Q 471 496 469 495 Q 471 490 473 493 L 475 488 Q 476 482 474 481 L 464 481 L 463 482 Q 460 481 461 486 L 457 489 L 446 488 L 442 484 Q 441 477 443 477 L 475 477 L 475 464 L 473 456 L 470 455 L 471 453 L 464 448 L 446 447 Z M 508 447 L 498 452 L 497 448 L 485 448 L 483 450 L 483 498 L 485 499 L 497 499 L 498 498 L 497 496 Q 495 489 498 488 L 498 464 L 500 460 L 506 458 L 514 459 L 517 465 L 517 499 L 530 499 L 530 458 L 525 450 L 523 451 L 523 450 L 516 447 L 508 447 Z " /><path fill="rgb(0,0,0)" stroke="rgb(0,0,0)" stroke-width="1" opacity="0" d="M 568.5 437 L 572 437.5 L 568.5 438 L 568.5 437 Z " /><path fill="rgb(0,0,0)" stroke="rgb(0,0,0)" stroke-width="1" opacity="0" d="M 326.5 439 L 338.5 439 L 347 441 L 349 446.5 L 349 478.5 L 345.5 485 Q 336.8 487.8 323.5 486 L 317 484 L 315 473.5 L 315 454.5 L 316 453.5 L 317 442.5 L 318.5 441 L 326.5 439 Z " /><path fill="rgb(0,0,0)" stroke="rgb(0,0,0)" stroke-width="1" opacity="0" d="M 314.5 448 L 315 450.5 L 314 450.5 L 314.5 448 Z " /><path fill="rgb(0,0,0)" stroke="rgb(0,0,0)" stroke-width="1" opacity="0" d="M 415.5 452 L 416.5 454 L 415.5 452 Z " /><path fill="rgb(0,0,0)" stroke="rgb(0,0,0)" stroke-width="1" opacity="0" d="M 393.5 458 Q 402.9 456.6 406 461.5 L 407 463.5 L 407 483.5 L 403.5 488 L 394.5 489 L 388 484.5 L 387 482.5 L 387 464.5 L 389 460 L 393.5 458 Z " /><path fill="rgb(0,0,0)" stroke="rgb(0,0,0)" stroke-width="1" opacity="0" d="M 447.5 458 Q 457.6 456.4 461 461.5 Q 461.6 466.9 460.5 467 L 442 467 L 443 460 L 447.5 458 Z " /><path fill="rgb(0,0,0)" stroke="rgb(0,0,0)" stroke-width="1" opacity="0" d="M 416.5 493 L 415.5 495 L 416.5 493 Z " /><path fill="rgb(0,0,0)" stroke="rgb(0,0,0)" stroke-width="1" opacity="0" d="M 518.5 494 L 519 497.5 L 518 497.5 L 518.5 494 Z " /><path fill="rgb(187,194,183)" stroke="rgb(187,194,183)" stroke-width="1" opacity="0.19215686274509805" d="M 466.5 64 L 496.5 64 L 514.5 69 L 529.5 77 L 542 87.5 Q 541.3 89.8 543.5 89 Q 555 100 562 115.5 L 562 118.5 L 567 130.5 L 569 154.5 L 568 155.5 L 567 170.5 L 560 189.5 L 557 192.5 L 554 199.5 L 543.5 212 L 540.5 214 L 528.5 224 L 523 225 L 498 179.5 L 509 169.5 L 514 159.5 L 515 146.5 Q 512.6 133.4 504.5 126 L 490.5 118 L 477.5 117 Q 461.7 120.2 454 131.5 L 449 143.5 L 448 153.5 Q 451.1 169.9 462.5 178 L 466 179.5 L 465 183.5 L 439.5 226 Q 423.1 218.4 413 204.5 Q 404.5 193.5 399 179.5 L 399 175.5 L 395 162.5 L 394 148.5 L 395 147.5 L 395 138.5 L 397 128.5 L 399 125.5 L 399 121.5 L 401 116.5 L 406 106.5 L 417.5 91 L 419 91 L 419 89 Q 421.7 90.1 421 87.5 L 424 86 Q 422.9 83.3 425.5 84 L 444.5 71 L 466.5 64 Z M 471 65 L 451 70 Q 436 76 425 86 Q 402 105 396 141 L 396 161 L 398 172 Q 403 190 414 204 Q 423 217 440 224 L 465 181 L 460 177 L 452 169 L 449 163 L 447 154 Q 447 138 454 130 Q 462 119 477 116 L 491 117 Q 500 120 506 125 L 512 134 L 516 145 L 516 157 L 510 171 L 502 179 L 500 179 L 500 182 L 507 195 L 526 224 L 539 215 Q 561 196 567 162 L 567 139 L 564 125 Q 558 108 548 96 Q 534 79 513 70 L 493 65 L 471 65 Z " /><path fill="rgb(187,194,183)" stroke="rgb(187,194,183)" stroke-width="1" opacity="0.19215686274509805" d="M 373.5 234 L 397.5 234 Q 399.3 236.7 405.5 235 L 421.5 241 L 428 245.5 L 426 252.5 L 404 291 L 399.5 291 L 391.5 288 L 378.5 288 Q 367.3 290.3 361 297.5 L 359 300.5 Q 350.9 308.4 352 325.5 L 354 332.5 L 359 342 Q 361.7 340.9 361 343.5 Q 369.7 353.8 388.5 354 L 399.5 351 L 412 340.5 Q 418.6 332.2 419 319 L 471.5 319 L 473 320.5 L 471 338.5 L 466 351.5 L 466 354.5 L 457 370.5 L 445 385 L 434.5 393 L 414.5 403 L 398.5 407 L 379.5 408 L 362.5 405 L 344.5 398 Q 329 389.5 318 376.5 Q 307.8 364.3 302 347.5 L 299 334.5 L 299 324.5 L 300 324.5 L 301 338.5 L 307 356.5 Q 315.3 374.2 329.5 386 Q 343.2 398.3 363.5 404 L 373.5 406 L 396.5 406 Q 429.5 400 448 379.5 Q 459.7 367.7 466 350.5 L 470 336.5 L 471 320 L 420.5 320 L 420 322.5 L 418 332.5 L 415 338.5 L 406.5 348 Q 397.6 356.1 379.5 355 Q 364.4 351.6 357 340.5 Q 349.6 331.9 351 314.5 Q 354.4 299.4 365.5 292 Q 373.9 285.4 389.5 286 L 403 290 L 425 251.5 L 427 245 Q 416.6 239.3 402.5 236 Q 397.7 237.2 396.5 235 L 375.5 235 Q 339 241 320 264.5 Q 310.7 275.2 305 289.5 Q 299.9 300.9 299.5 317 L 299 306.5 L 305 285.5 L 312 272.5 L 320.5 262 Q 322.8 262.8 322 260.5 Q 332.2 249.2 346.5 242 L 358.5 237 L 373.5 234 Z " /><path fill="rgb(187,194,183)" stroke="rgb(187,194,183)" stroke-width="1" opacity="0.19215686274509805" d="M 534.5 245 Q 538.5 244.5 539 247.5 L 561 285.5 L 562 291.5 L 553 299.5 L 547 310.5 L 547 328.5 Q 550.4 339.6 558.5 346 L 569.5 352 L 585.5 353 L 592.5 351 L 605 341.5 L 612 327.5 L 612 311.5 Q 608.9 301.1 601.5 295 L 595 291 L 620 245 L 623.5 245 L 634.5 252 L 648 265.5 L 656 277.5 L 663 293.5 L 666 306.5 L 666 332.5 Q 663.3 335.8 664 342.5 L 656 362.5 Q 647.6 376.6 635.5 387 Q 621.1 399.1 600.5 405 L 590.5 407 L 568.5 407 L 543.5 400 Q 525.2 391.3 513 376.5 L 511 373.5 L 503 362.5 L 494 339.5 L 493 334.5 L 493 306.5 L 496 293.5 L 501 281.5 L 511 265 Q 513.7 266.1 513 263.5 Q 522 252.5 534.5 245 Z M 536 246 L 527 252 Q 501 271 494 309 L 494 333 L 497 346 Q 502 361 511 373 Q 521 386 536 394 L 557 403 L 573 406 L 587 406 L 588 405 L 600 404 Q 619 399 633 388 Q 646 377 655 362 L 663 342 L 665 332 L 665 309 L 663 299 Q 658 280 647 267 L 634 253 L 624 246 L 621 246 L 600 283 L 597 291 L 604 295 L 611 306 L 614 318 L 613 329 L 606 343 Q 599 351 587 354 Q 576 355 569 353 L 557 346 L 549 337 L 545 324 L 546 311 L 553 298 L 561 291 L 560 287 L 537 248 Q 538 245 536 246 Z " /><path fill="rgb(187,194,183)" stroke="rgb(187,194,183)" stroke-width="1" opacity="0.19215686274509805" d="M 325.5 425 L 347.5 426 L 354.5 428 L 359 431.5 L 364 441.5 Q 362.2 447.8 365 449.5 L 365 475.5 L 364 476.5 L 363 487.5 L 355.5 497 L 343.5 500 L 320.5 500 L 309.5 497 L 305 494 L 300 480.5 L 300 446.5 L 303 435.5 L 307.5 430 L 317.5 426 Q 323.8 427.8 325.5 425 Z M 320 427 L 309 431 L 304 437 L 301 450 L 301 478 L 304 490 L 306 493 L 311 496 L 324 499 L 348 498 L 358 494 L 362 487 L 363 474 L 364 473 L 364 452 Q 361 450 363 444 L 360 435 L 354 429 L 347 427 L 320 427 Z " /><path fill="rgb(187,194,183)" stroke="rgb(187,194,183)" stroke-width="1" opacity="0.19215686274509805" d="M 564.5 425 L 585.5 426 L 593.5 429 L 596 431.5 L 599 438.5 L 599 452 L 585.5 452 L 584 450.5 Q 585 442.5 580.5 440 L 564.5 439 Q 563.3 441.2 558.5 440 L 555 442 L 554 446.5 L 554 478.5 L 555 482.5 L 557.5 485 Q 565.8 487.7 578.5 486 L 583 483.5 Q 586.3 479.6 585 472 L 598.5 472 L 600 473.5 L 599 489.5 L 593.5 497 L 581.5 500 L 559.5 500 L 549.5 498 L 543 493.5 L 540 486.5 L 540 481.5 L 538 475.5 L 538 444.5 L 541 435.5 L 545.5 430 L 549.5 428 L 564.5 425 Z M 559 427 L 547 431 L 541 439 L 539 447 L 539 474 L 540 475 L 541 486 L 544 493 L 551 497 L 562 499 L 587 498 L 594 495 L 598 489 L 599 484 L 599 473 L 588 473 L 586 475 L 585 484 L 581 487 Q 576 486 575 488 L 566 488 L 557 486 L 553 481 Q 555 474 552 473 L 552 451 L 554 443 L 558 439 L 562 438 Q 574 436 582 439 L 585 444 L 585 451 L 598 451 Q 600 439 595 433 L 593 430 L 585 427 L 559 427 Z " /><path fill="rgb(187,194,183)" stroke="rgb(187,194,183)" stroke-width="1" opacity="0.19215686274509805" d="M 602.5 426 L 615.5 426 L 617 427.5 L 629 462.5 L 634.5 483 L 637 478.5 L 639 467.5 L 642 462.5 L 644 452.5 L 647 446.5 L 652 428.5 L 654.5 426 L 668 426.5 L 654 427 L 643 459.5 L 643 462.5 L 641 465.5 L 636 486 Q 633.3 487.1 634 484.5 L 625 454.5 L 618 436.5 L 618 433.5 L 614.5 427 L 602.5 427 L 602 428.5 L 624 498 L 644.5 498 L 646 496.5 L 667.5 429 L 668 432.5 L 664 441.5 L 664 445.5 L 661 451.5 L 661 454.5 L 656 466.5 L 656 470.5 L 646 499 L 623.5 499 L 623 496.5 L 609 452.5 L 607 449.5 L 607 446.5 L 605 443.5 L 601 427.5 L 602.5 426 Z " /><path fill="rgb(187,194,183)" stroke="rgb(187,194,183)" stroke-width="1" opacity="0.19215686274509805" d="M 323.5 438 L 341.5 438 L 349 441.5 L 351 452.5 L 351 472.5 L 349 483.5 L 346.5 486 L 336.5 488 L 327.5 488 L 318.5 486 L 316 483.5 L 314 475.5 L 314 451.5 Q 316.5 450 315 444.5 L 317.5 440 L 323.5 438 Z M 327 439 L 319 441 L 317 443 L 316 454 L 315 455 L 315 474 L 317 484 L 324 486 Q 337 488 346 485 L 349 479 L 349 447 L 347 441 L 339 439 L 327 439 Z " /><path fill="rgb(187,194,183)" stroke="rgb(187,194,183)" stroke-width="1" opacity="0.19215686274509805" d="M 397.5 447 Q 411.7 445.8 418 452.5 L 421 459.5 L 422 480.5 Q 419.5 482 421 487.5 L 415.5 497 Q 408.6 501.6 395.5 500 L 387.5 496 L 386.5 519 L 386 492.5 L 388 493.5 L 389.5 496 Q 395.3 500.2 406.5 499 L 414.5 496 L 417 493.5 L 420 486.5 L 421 467.5 L 419 457.5 L 414.5 451 L 405.5 448 L 397.5 448 Q 389.3 449.3 385.5 455 L 385 449 L 373.5 449 L 373 449.5 L 373 518.5 L 373.5 520 L 372 519.5 L 372 448 L 385.5 448 L 386 451.5 L 388.5 450 L 397.5 447 Z " /><path fill="rgb(187,194,183)" stroke="rgb(187,194,183)" stroke-width="1" opacity="0.19215686274509805" d="M 445.5 447 L 463.5 448 L 471 452.5 Q 476.9 461.4 475 477 L 442.5 477 Q 441.3 477.3 442 483.5 L 445.5 488 L 456.5 489 L 461 485.5 Q 459.5 481.1 462.5 482 L 463.5 481 L 473.5 481 Q 476.3 482.3 475 487.5 Q 473.5 494 468.5 497 Q 459.5 502 443.5 500 L 434.5 497 L 431 493.5 L 427 480.5 L 427 465.5 L 429 457.5 L 434.5 450 L 445.5 447 Z M 446 448 L 436 451 L 430 459 L 428 470 L 429 485 L 432 493 L 440 498 Q 444 497 446 499 L 459 499 L 470 495 Q 475 491 474 483 L 463 483 L 462 487 L 458 490 Q 449 491 445 489 L 441 485 Q 443 478 440 477 L 474 476 L 474 466 L 471 455 Q 468 450 463 449 L 446 448 Z " /><path fill="rgb(187,194,183)" stroke="rgb(187,194,183)" stroke-width="1" opacity="0.19215686274509805" d="M 507.5 447 L 520.5 448 L 528 453.5 L 530 457.5 L 530 499 L 517 499 L 517 464.5 L 513.5 459 L 505.5 458 L 500 460 L 498 463.5 L 498 487.5 Q 495.3 489.3 497 495.5 L 498 497.5 L 496.5 499 L 484.5 499 L 483 497.5 L 483 449.5 L 484.5 448 L 497 448 L 497.5 452 L 507.5 447 Z M 509 448 L 501 451 L 497 456 L 496 456 L 496 449 L 485 449 L 485 498 L 486 498 L 496 498 L 496 466 L 497 463 L 505 457 Q 511 456 515 458 L 518 463 L 518 498 L 519 498 L 529 498 L 529 459 L 527 455 L 521 449 L 509 448 Z " /><path fill="rgb(187,194,183)" stroke="rgb(187,194,183)" stroke-width="1" opacity="0.19215686274509805" d="M 393.5 457 Q 403.6 455.4 407 460.5 Q 410.4 468.1 409 480.5 L 407 486.5 L 404.5 489 L 393.5 490 L 387 485.5 L 386 482.5 L 386 463.5 L 388 459 L 393.5 457 Z M 394 458 L 389 460 L 387 465 L 387 483 L 388 485 L 395 489 L 404 488 L 407 484 L 407 464 L 406 462 Q 403 457 394 458 Z " /><path fill="rgb(187,194,183)" stroke="rgb(187,194,183)" stroke-width="1" opacity="0.19215686274509805" d="M 446.5 457 Q 457.9 455.1 462 460.5 L 462 468 L 440 468 L 441 461.5 L 443.5 458 L 446.5 457 Z M 448 458 L 443 460 L 442 467 L 461 467 Q 462 467 461 462 Q 458 456 448 458 Z " /><path fill="rgb(1,254,2)" stroke="rgb(1,254,2)" stroke-width="1" opacity="0.996078431372549" d="M 375.5 235 L 396.5 235 Q 397.7 237.2 402.5 236 Q 416.6 239.3 427 245 L 425 251.5 L 403 290 L 389.5 286 L 381.5 286 L 370.5 289 L 357 300.5 L 351 314.5 L 351 325.5 Q 353.9 341.6 365.5 349 L 379.5 355 L 390.5 355 Q 405.3 351.8 413 341.5 L 418 332.5 L 420 320 L 470.5 320 L 471 320.5 L 471 329.5 L 470 330.5 L 469 341.5 L 460 363.5 L 443.5 384 Q 430 396.5 410.5 403 L 396.5 406 L 373.5 406 L 363.5 404 L 345.5 397 Q 330 388.5 319 375.5 Q 310.2 365.3 305 351.5 L 301 338.5 L 299 317.5 L 300 316.5 L 300 307.5 L 302 298.5 L 308 282.5 Q 316.3 266.3 329.5 255 Q 339.4 246.4 352.5 241 L 375.5 235 Z " /><path fill="rgb(1,1,251)" stroke="rgb(1,1,251)" stroke-width="1" opacity="0.9882352941176471" d="M 535.5 246 Q 537.8 245.3 537 247.5 L 560 286.5 L 561 290.5 L 553 297.5 L 546 310.5 L 545 323.5 L 549 336.5 L 556.5 346 L 568.5 353 Q 575.6 355.4 586.5 354 Q 598.9 350.9 606 342.5 L 613 328.5 L 614 317.5 L 611 305.5 L 604 295 L 597 290.5 L 600 282.5 L 621 246 L 623.5 246 L 633.5 253 L 647 266.5 Q 657.7 279.8 663 298.5 L 665 308.5 L 665 331.5 L 663 341.5 L 655 361.5 Q 646 377 632.5 388 Q 618.8 398.8 599.5 404 L 587.5 405 L 586.5 406 L 572.5 406 L 556.5 403 L 535.5 394 Q 521 385.6 511 372.5 Q 502.1 360.9 497 345.5 L 494 332.5 L 494 308.5 Q 500.9 270.9 526.5 252 L 535.5 246 Z " /><path fill="rgb(153,2,2)" stroke="rgb(153,2,2)" stroke-width="1" opacity="0.984313725490196" d="M 470.5 65 L 492.5 65 L 512.5 70 Q 534.2 78.8 548 95.5 Q 558.2 107.8 564 124.5 L 567 138.5 L 567 161.5 Q 560.8 196.3 538.5 215 L 525.5 224 L 507 194.5 L 500 181.5 L 500 179 L 501.5 179 L 510 170.5 L 516 156.5 L 516 144.5 L 512 133.5 L 506 125 Q 500.1 119.7 490.5 117 L 476.5 116 Q 461.8 119.3 454 129.5 Q 446.8 137.8 447 153.5 L 449 162.5 L 452 168.5 L 459.5 177 L 465 180.5 L 439.5 224 Q 423.4 217.1 414 203.5 Q 403.3 190.2 398 171.5 L 396 160.5 L 396 140.5 Q 402.1 105.1 424.5 86 Q 435.5 76 450.5 70 L 470.5 65 Z " /><path fill="rgb(153,2,2)" stroke="rgb(153,2,2)" stroke-width="1" opacity="0.984313725490196" d="M 319.5 427 L 346.5 427 L 353.5 429 L 359 433.5 L 363 443.5 L 364 472.5 L 361 488.5 L 355.5 495 L 351.5 497 L 340.5 499 L 323.5 499 Q 322 496.5 316.5 498 L 307 494 L 303 486.5 L 301 477.5 L 301 449.5 L 304 436.5 L 308.5 431 L 319.5 427 Z M 324 438 L 318 440 L 314 449 L 314 478 L 316 484 L 319 486 L 328 488 L 337 488 L 347 486 L 349 484 L 351 473 L 351 453 L 349 442 L 342 438 L 324 438 Z " /><path fill="rgb(153,2,2)" stroke="rgb(153,2,2)" stroke-width="1" opacity="0.984313725490196" d="M 558.5 427 L 584.5 427 L 594 431 L 598 440.5 L 598 449.5 L 596.5 451 L 586.5 451 Q 583.5 449.5 585 443.5 L 581.5 439 L 568.5 437 L 557.5 439 L 554 442.5 L 552 450.5 L 552 472.5 L 553 475.5 L 553 477.5 Q 552.6 483.9 556.5 486 L 565.5 488 L 574.5 488 Q 575.8 485.8 580.5 487 L 585 483.5 L 586 474.5 L 587.5 473 L 597.5 473 L 598 474.5 L 599 475.5 L 599 483.5 L 596 493 L 586.5 498 L 561.5 499 L 548.5 496 L 544 493 L 540 480.5 L 540 478.5 L 539 473.5 L 539 446.5 Q 541.7 444.2 541 438.5 L 546.5 431 L 558.5 427 Z " /><path fill="rgb(153,2,2)" stroke="rgb(153,2,2)" stroke-width="1" opacity="0.984313725490196" d="M 603 427 L 614.5 427 L 616 428.5 L 634 486 Q 637 487.3 636 483.5 L 653 429.5 L 655.5 427 L 667 427 L 667 431.5 L 656 462.5 L 646 496.5 L 644.5 498 L 625.5 498 L 624 496.5 L 605 438.5 L 605 435.5 L 603 432.5 L 603 427 Z " /><path fill="rgb(153,2,2)" stroke="rgb(153,2,2)" stroke-width="1" opacity="0.984313725490196" d="M 397.5 448 L 405.5 448 L 415 451 L 420 460.5 L 421 469.5 L 421 471.5 L 420 476.5 L 421 479.5 Q 418.5 481 420 486.5 L 415 496 L 406.5 499 L 397.5 499 L 389 496 L 386.5 492 L 386 518.5 L 384.5 520 Q 376.3 521.1 373 519 L 373 450.5 L 374.5 449 L 385 449 L 385 454.5 L 389.5 451 L 397.5 448 Z M 392 457 L 388 459 L 386 464 L 386 483 L 387 486 L 394 490 L 405 489 L 407 487 L 409 481 Q 410 468 407 461 Q 404 455 394 457 L 392 457 Z " /><path fill="rgb(153,2,2)" stroke="rgb(153,2,2)" stroke-width="1" opacity="0.984313725490196" d="M 445.5 448 L 462.5 449 L 470 453.5 L 473 459.5 L 474 474.5 L 472.5 476 L 440 476.5 Q 442.8 478.2 441 484.5 L 444.5 489 Q 449.6 491.4 458.5 490 L 463.5 483 L 474 483 L 474 487.5 Q 472.6 493.6 467.5 496 Q 459.6 500.6 445.5 499 Q 444.2 496.8 439.5 498 L 432 492.5 L 429 484.5 L 428 469.5 L 430 458.5 L 435.5 451 L 445.5 448 Z M 447 457 L 444 458 L 441 462 L 440 468 L 462 468 L 462 461 Q 458 455 447 457 Z " /><path fill="rgb(153,2,2)" stroke="rgb(153,2,2)" stroke-width="1" opacity="0.984313725490196" d="M 508.5 448 L 520.5 449 L 527 454.5 L 529 458.5 L 529 498 L 519 498 L 519 494.5 L 518 493.5 L 518 461.5 L 514.5 458 Q 511 455.5 503.5 457 L 497 462.5 L 496 465.5 L 496 498 L 485.5 498 L 485 497.5 L 485 449 L 496 449 L 496 455.5 L 497 455.5 L 500.5 451 L 508.5 448 Z " /></svg>