<svg width="986" height="600" version="1.1" xmlns="http://www.w3.org/2000/svg" desc="Created with imagetracer.js version 1.2.6" ><path fill="rgb(0,0,0)" stroke="rgb(0,0,0)" stroke-width="1" opacity="0" d="M 0 0 L 986 0 L 986 584 L 919.5 584 L 918 585.5 L 918 599.5 L 917.5 600 L 0 600 L 0 0 Z M 838 12 L 823 18 L 814 28 L 810 41 L 810 57 L 811 62 L 814 64 L 835 64 L 836 63 L 855 64 L 860 67 L 852 70 L 825 70 L 824 69 L 812 69 L 811 68 L 791 68 Q 789 70 785 69 Q 772 71 765 79 Q 758 85 755 96 L 753 106 L 753 116 L 752 117 L 752 132 L 753 133 L 754 148 L 756 156 L 762 168 Q 769 177 783 179 L 800 179 L 802 178 L 804 173 L 807 147 L 812 134 Q 818 125 831 123 Q 836 125 838 122 L 895 122 L 903 120 L 910 116 L 916 108 L 920 93 L 920 42 L 917 31 L 914 26 Q 908 18 899 15 L 886 12 L 838 12 Z M 930 69 L 928 70 L 925 76 L 925 88 L 924 89 L 923 101 L 917 115 L 910 121 L 899 125 Q 892 123 891 126 L 834 126 L 829 127 L 822 131 L 815 139 L 810 160 L 810 201 L 812 212 L 816 221 Q 821 228 830 231 L 853 236 L 883 236 L 897 233 L 908 227 Q 914 222 917 214 L 920 201 L 920 188 L 919 185 L 917 184 L 877 184 L 871 182 L 880 178 L 904 178 L 905 179 L 916 179 L 917 180 L 928 180 L 929 181 L 938 181 L 939 180 L 950 179 L 962 173 Q 969 167 973 158 L 977 144 L 978 130 L 979 129 L 979 112 L 978 111 L 977 100 L 968 82 Q 962 73 951 70 Q 942 67 930 69 Z M 761 182 L 731 194 L 719 195 L 712 197 L 699 204 L 672 223 Q 667 226 669 237 L 672 239 L 683 244 L 685 247 L 686 251 L 688 270 L 689 271 L 689 293 L 682 316 L 677 348 L 671 361 Q 656 380 644 404 L 635 428 L 632 444 L 633 464 L 637 477 Q 645 494 657 507 L 657 513 L 655 521 L 649 534 L 647 542 L 648 552 L 653 554 L 664 554 L 665 555 L 713 553 L 723 551 L 735 551 L 738 549 L 736 544 L 725 537 L 730 523 L 737 510 L 741 495 L 740 482 L 737 470 Q 736 462 738 459 L 760 435 L 773 417 L 781 400 L 787 376 L 792 366 L 800 359 L 831 339 L 836 333 L 836 322 L 837 321 L 837 295 L 836 294 L 835 259 L 834 258 L 833 246 L 830 241 L 826 243 Q 820 247 818 255 L 817 280 L 816 285 L 812 292 Q 805 299 793 301 L 785 300 Q 777 293 772 284 L 757 234 L 757 229 L 760 221 L 771 208 L 774 200 L 773 190 L 771 185 Q 768 181 761 182 Z M 840 243 L 837 247 L 838 248 L 838 274 L 839 275 L 840 362 L 841 363 L 840 425 L 839 426 L 839 445 L 838 446 L 838 456 L 837 457 L 837 469 L 836 470 L 835 485 L 831 504 L 831 509 L 823 530 L 810 542 L 799 547 L 781 551 L 760 552 L 759 553 L 744 553 L 733 555 L 720 555 L 719 556 L 685 557 L 684 558 L 673 558 L 672 559 L 650 559 L 649 560 L 634 560 L 633 561 Q 622 560 616 562 L 611 569 Q 610 575 612 577 L 618 579 L 634 579 L 635 580 L 687 579 L 688 578 L 742 576 L 743 575 L 762 575 L 763 574 L 810 574 L 811 573 L 898 574 L 899 575 L 940 576 L 941 577 Q 946 578 947 576 L 945 558 L 942 554 L 915 542 Q 909 538 906 531 L 903 516 L 902 497 L 901 496 L 901 483 L 900 482 L 900 470 L 899 469 L 898 423 L 897 422 L 897 383 Q 899 381 898 377 L 900 372 L 913 356 L 916 348 L 916 343 L 913 336 L 902 327 Q 895 323 892 315 L 891 304 L 890 303 L 892 256 L 893 255 L 892 246 L 891 244 L 873 244 L 872 243 L 840 243 Z M 18 390 L 16 392 L 16 500 L 18 501 L 37 501 L 38 500 L 38 410 L 68 410 L 71 411 L 76 418 Q 78 428 73 433 Q 65 442 50 443 L 49 446 L 51 454 L 51 460 L 54 463 Q 75 460 89 449 L 97 438 L 100 425 L 98 409 L 94 401 Q 87 392 75 390 L 18 390 Z M 338 390 L 336 392 L 336 421 L 328 419 Q 305 417 295 426 Q 288 431 285 439 L 282 453 L 283 473 L 289 488 Q 296 498 312 501 L 336 501 L 357 497 L 358 496 L 358 392 L 357 390 L 338 390 Z M 485 418 L 475 420 L 467 424 Q 459 429 457 441 L 458 455 L 461 461 L 469 467 L 482 470 L 491 470 L 492 469 L 501 470 L 504 474 Q 505 479 503 481 L 500 483 Q 495 482 494 484 L 474 482 L 466 479 Q 461 478 461 480 L 461 496 L 466 499 L 481 502 L 502 502 Q 512 500 519 495 Q 524 491 526 483 Q 528 468 523 461 Q 519 455 512 452 L 508 451 L 484 451 L 479 449 L 478 447 L 479 441 L 485 437 L 504 437 L 518 441 Q 522 442 523 440 L 522 424 L 518 421 L 504 418 L 485 418 Z M 130 419 L 112 423 L 111 426 L 111 439 L 112 441 L 128 438 L 138 438 L 139 437 L 152 439 Q 157 442 156 451 L 146 451 L 145 450 L 128 451 L 114 456 Q 106 460 105 471 L 105 481 L 110 493 Q 115 499 126 501 Q 147 504 157 495 L 159 495 L 165 501 L 177 501 L 178 498 L 178 443 L 174 432 Q 168 423 157 420 L 152 419 L 130 419 Z M 197 419 L 194 422 L 194 499 L 195 500 L 196 501 L 216 501 L 217 497 L 216 494 L 216 447 L 217 444 L 230 438 Q 238 436 242 439 L 247 447 L 247 501 L 268 501 L 269 500 L 269 444 L 265 431 Q 259 421 247 419 Q 224 417 215 429 L 213 422 L 211 419 L 197 419 Z M 396 419 L 395 420 L 384 421 L 378 423 L 377 426 L 377 439 L 380 441 L 394 438 L 403 438 L 404 437 L 411 437 L 419 440 Q 424 443 422 451 L 414 451 L 413 450 L 393 451 L 379 457 Q 373 461 371 470 L 372 486 L 376 493 Q 382 499 392 501 L 410 501 L 424 495 L 431 501 L 443 501 L 444 500 L 444 442 L 440 431 Q 434 423 424 420 L 419 419 L 396 419 Z M 37 527 L 32 528 L 20 535 Q 11 541 9 554 Q 8 564 10 571 L 17 583 Q 23 591 36 593 L 50 593 L 64 586 Q 72 579 75 566 Q 76 545 66 537 L 53 528 L 37 527 Z " /><path fill="rgb(0,0,0)" stroke="rgb(0,0,0)" stroke-width="1" opacity="0" d="M 832.5 31 Q 839.1 30.4 841 34.5 Q 842.7 43.2 838.5 46 L 830.5 48 L 827 45.5 L 826 39.5 L 829.5 33 L 832.5 31 Z " /><path fill="rgb(0,0,0)" stroke="rgb(0,0,0)" stroke-width="1" opacity="0" d="M 318.5 438 L 329.5 439 L 336 442.5 L 336 478.5 L 334.5 480 L 321.5 482 Q 320.3 479.7 315.5 481 L 308 475.5 L 304 463.5 L 304 453.5 L 306 445.5 L 311.5 440 L 318.5 438 Z " /><path fill="rgb(0,0,0)" stroke="rgb(0,0,0)" stroke-width="1" opacity="0" d="M 135.5 466 L 149.5 466 L 155 467 Q 157 470 156 477.5 Q 149.5 485.5 133.5 484 L 128 479.5 Q 126.3 470.8 130.5 468 L 135.5 466 Z " /><path fill="rgb(0,0,0)" stroke="rgb(0,0,0)" stroke-width="1" opacity="0" d="M 402.5 466 Q 415.3 464.2 422 468.5 L 422 477.5 L 419.5 480 Q 413.2 485.7 399.5 484 L 394 479.5 L 393 474.5 L 395 469 L 402.5 466 Z " /><path fill="rgb(0,0,0)" stroke="rgb(0,0,0)" stroke-width="1" opacity="0" d="M 38 546 L 44.5 546 L 45 547.5 Q 46.4 550.1 51 549.5 L 31.5 550 L 28 552.5 L 27.5 559 L 27 552.5 L 31.5 549 Q 36.8 550.3 38 547.5 L 38 546 Z " /><path fill="rgb(0,0,0)" stroke="rgb(0,0,0)" stroke-width="1" opacity="0" d="M 55.5 553 L 57 559.5 L 55 560.5 L 55.5 553 Z " /><path fill="rgb(0,0,0)" stroke="rgb(0,0,0)" stroke-width="1" opacity="0" d="M 41.5 558 L 45 560.5 Q 46.9 565.9 43.5 565 L 40.5 566 Q 37.3 565.3 38 560.5 L 41.5 558 Z " /><path fill="rgb(0,0,0)" stroke="rgb(0,0,0)" stroke-width="1" opacity="0" d="M 27.5 569 L 28 571.5 L 27 571.5 L 27.5 569 Z " /><path fill="rgb(0,0,0)" stroke="rgb(0,0,0)" stroke-width="1" opacity="0" d="M 52.5 569 L 54 573 L 50 571.5 L 52.5 569 Z " /><path fill="rgb(0,0,0)" stroke="rgb(0,0,0)" stroke-width="1" opacity="0" d="M 940.5 597 L 944 598.5 L 939.5 599 L 940.5 597 Z " /><path fill="rgb(0,0,0)" stroke="rgb(0,0,0)" stroke-width="1" opacity="0" d="M 949.5 598 L 954 598.5 L 951.5 600 L 949.5 598 Z " /><path fill="rgb(74,131,174)" stroke="rgb(74,131,174)" stroke-width="1" opacity="0.9803921568627451" d="M 843.5 13 L 876.5 13 L 877.5 14 L 890.5 15 L 906.5 21 L 914 28.5 L 917 35.5 L 919 46.5 L 919 86.5 L 915 105.5 L 906.5 116 L 900.5 119 L 889.5 121 L 870.5 121 L 869.5 120 L 841.5 120 L 840.5 121 L 827.5 122 L 819.5 125 L 810 133.5 L 806 143.5 L 801 177 Q 796.1 178.8 787.5 178 L 773.5 175 L 764 167.5 L 757 154.5 L 755 145.5 Q 756.5 140 754 138.5 L 754 109.5 L 758 91.5 Q 761.9 81.4 770.5 76 Q 777 71.5 786.5 70 L 817.5 70 L 818.5 71 L 844.5 72 L 845.5 71 L 857.5 70 L 863 66.5 Q 863.8 64.3 861.5 65 L 854.5 62 L 813.5 62 L 812 60.5 L 811 42.5 L 813 33.5 L 821.5 21 L 830.5 16 L 843.5 13 Z M 842 15 Q 838 19 831 17 L 831 19 L 840 19 L 840 21 L 835 23 L 832 23 Q 833 26 830 25 L 829 21 L 823 22 L 822 26 L 820 27 Q 818 25 817 28 Q 816 32 820 30 Q 819 36 823 38 L 827 31 L 826 30 L 824 27 L 827 28 L 830 26 L 840 28 L 839 30 L 842 30 Q 847 32 845 40 L 845 42 L 843 48 L 839 50 L 848 50 L 847 52 L 844 51 L 829 54 L 824 49 Q 825 44 823 43 L 820 45 Q 821 49 818 48 L 819 45 Q 820 36 816 33 L 814 37 L 814 46 L 815 47 L 813 50 Q 816 51 814 58 L 816 59 L 818 56 L 826 58 L 828 57 Q 834 55 832 60 L 840 60 L 841 59 L 842 60 L 857 60 L 864 63 Q 866 62 865 69 L 859 72 Q 852 71 849 74 L 831 74 L 830 78 L 825 77 L 823 78 L 823 76 L 828 76 L 828 73 L 822 73 L 819 72 L 789 72 L 777 75 L 775 78 L 772 79 L 769 79 Q 770 82 767 81 L 767 85 L 765 85 L 761 90 Q 760 95 762 97 L 762 111 Q 762 104 759 100 L 756 107 L 756 116 L 755 117 L 755 134 L 756 135 L 757 147 L 759 148 Q 761 149 760 146 L 761 146 L 759 153 Q 761 154 760 159 L 762 162 L 765 163 Q 767 164 766 168 L 770 170 L 772 170 L 775 172 Q 777 171 776 174 L 778 175 L 799 175 L 802 161 L 801 158 L 801 155 L 803 155 L 803 148 Q 806 146 804 145 L 805 141 Q 804 138 807 139 L 809 133 Q 808 130 811 131 L 814 127 Q 816 128 815 125 L 820 124 L 821 121 L 835 120 L 836 119 Q 843 121 842 117 L 848 117 L 849 119 L 855 119 L 863 119 L 895 119 L 898 118 L 900 115 L 898 116 L 894 116 L 898 114 L 903 115 Q 906 116 905 114 L 911 110 Q 910 105 913 106 L 916 98 Q 917 88 914 84 Q 913 78 917 80 L 917 72 L 916 74 L 914 75 L 914 74 L 914 65 L 916 64 L 917 65 L 917 45 L 915 40 Q 916 35 912 37 L 912 33 L 909 32 Q 912 30 911 27 L 909 28 L 906 22 L 904 21 Q 898 20 896 22 L 895 17 L 884 17 L 874 15 L 842 15 Z M 833 29 L 829 32 L 825 38 Q 823 47 829 49 Q 836 50 840 47 L 843 43 Q 844 35 842 32 L 833 29 Z M 821 59 L 817 60 L 817 61 L 828 61 L 821 59 Z " /><path fill="rgb(74,131,174)" stroke="rgb(74,131,174)" stroke-width="1" opacity="0.9803921568627451" d="M 846.5 23 Q 848.8 22.3 848 24.5 L 847 26.5 L 847.5 28 L 844 26.5 Q 842.9 23.2 845.5 24 L 846.5 23 Z " /><path fill="rgb(74,131,174)" stroke="rgb(74,131,174)" stroke-width="1" opacity="0.9803921568627451" d="M 899 26 L 905 26 L 905 28.5 Q 904.3 30.8 900.5 30 L 899 26 Z " /><path fill="rgb(74,131,174)" stroke="rgb(74,131,174)" stroke-width="1" opacity="0.9803921568627451" d="M 847.5 33 L 848 36.5 L 847 36.5 L 847.5 33 Z " /><path fill="rgb(74,131,174)" stroke="rgb(74,131,174)" stroke-width="1" opacity="0.9803921568627451" d="M 846.5 39 L 848 40.5 L 849 47.5 L 846 47.5 Q 844.8 42.8 847 41.5 L 846.5 39 Z " /><path fill="rgb(74,131,174)" stroke="rgb(74,131,174)" stroke-width="1" opacity="0.9803921568627451" d="M 912.5 42 L 914 47.5 L 913 48.5 L 912.5 63 L 911 45.5 L 912.5 42 Z " /><path fill="rgb(74,131,174)" stroke="rgb(74,131,174)" stroke-width="1" opacity="0.9803921568627451" d="M 855.5 47 L 863.5 47 L 865 48.5 L 864.5 50 L 854.5 50 L 850 48.5 L 855.5 47 Z " /><path fill="rgb(74,131,174)" stroke="rgb(74,131,174)" stroke-width="1" opacity="0.9803921568627451" d="M 817 52 Q 821.1 50.7 820 54 Q 815.9 55.3 817 52 Z " /><path fill="rgb(74,131,174)" stroke="rgb(74,131,174)" stroke-width="1" opacity="0.9803921568627451" d="M 848 54 Q 858.5 52.9 865 55 L 863.5 58 L 856.5 58 Q 854.2 55.3 848.5 56 L 846.5 58 L 836.5 58 L 834 56.5 L 848 56 L 848 54 Z " /><path fill="rgb(74,131,174)" stroke="rgb(74,131,174)" stroke-width="1" opacity="0.9803921568627451" d="M 814.5 74 Q 815.3 77.8 820.5 77 L 822 76.5 Q 822.6 79.3 816.5 78 L 814.5 79 L 813.5 78 L 799.5 78 L 795.5 78 L 784.5 77 L 782.5 78 L 783.5 76 L 802.5 76 L 803.5 75 L 813.5 75 L 814.5 74 Z " /><path fill="rgb(74,131,174)" stroke="rgb(74,131,174)" stroke-width="1" opacity="0.9803921568627451" d="M 858.5 74 Q 863 73 864 75.5 Q 864.8 77.8 862.5 77 L 858.5 80 L 855.5 80 L 854 77.5 L 858.5 74 Z " /><path fill="rgb(74,131,174)" stroke="rgb(74,131,174)" stroke-width="1" opacity="0.9803921568627451" d="M 773.5 79 L 780 79.5 L 773.5 80 L 773.5 79 Z " /><path fill="rgb(74,131,174)" stroke="rgb(74,131,174)" stroke-width="1" opacity="0.9803921568627451" d="M 767.5 86 L 768 91.5 L 767 91.5 L 767.5 86 Z " /><path fill="rgb(74,131,174)" stroke="rgb(74,131,174)" stroke-width="1" opacity="0.9803921568627451" d="M 912.5 92 L 914 94.5 L 913 96.5 L 913.5 98 L 912 97.5 L 912.5 92 Z " /><path fill="rgb(74,131,174)" stroke="rgb(74,131,174)" stroke-width="1" opacity="0.9803921568627451" d="M 766.5 93 Q 768.8 92.3 768 94.5 L 768 96.5 L 767.5 111 L 765.5 95 L 763.5 96 L 764.5 94 L 766.5 93 Z " /><path fill="rgb(74,131,174)" stroke="rgb(74,131,174)" stroke-width="1" opacity="0.9803921568627451" d="M 821.5 111 L 824.5 111 L 827.5 114 Q 831.3 113.3 832 115.5 Q 832.9 118.9 827.5 117 L 818 112.5 L 821.5 111 Z " /><path fill="rgb(74,131,174)" stroke="rgb(74,131,174)" stroke-width="1" opacity="0.9803921568627451" d="M 758 112 L 760 112.5 L 760 144 L 758 143.5 L 758 112 Z " /><path fill="rgb(74,131,174)" stroke="rgb(74,131,174)" stroke-width="1" opacity="0.9803921568627451" d="M 886.5 115 L 887 117 L 880.5 118 L 879.5 116 Q 885 117.5 886.5 115 Z " /><path fill="rgb(74,131,174)" stroke="rgb(74,131,174)" stroke-width="1" opacity="0.9803921568627451" d="M 765.5 117 L 767 126.5 L 766 127.5 L 766 144 Q 770.9 142.2 769 148.5 L 766 150 Q 767.5 144.2 764 142.5 L 763 128.5 L 764 127.5 L 764 118.5 L 765.5 117 Z " /><path fill="rgb(74,131,174)" stroke="rgb(74,131,174)" stroke-width="1" opacity="0.9803921568627451" d="M 816.5 117 L 821 118 L 819.5 121 Q 815.8 121.8 815 119.5 L 816.5 117 Z " /><path fill="rgb(74,131,174)" stroke="rgb(74,131,174)" stroke-width="1" opacity="0.9803921568627451" d="M 800 128 L 804 130 Q 802.8 126.3 808 128 L 805.5 132 L 800 130 L 800 128 Z " /><path fill="rgb(74,131,174)" stroke="rgb(74,131,174)" stroke-width="1" opacity="0.9803921568627451" d="M 802 135 L 804 135 L 804 140 L 801 138.5 L 802 135 Z " /><path fill="rgb(74,131,174)" stroke="rgb(74,131,174)" stroke-width="1" opacity="0.9803921568627451" d="M 764.5 155 Q 767.1 156.4 766.5 161 L 768 160.5 Q 769 164.3 766 163 L 763 157.5 L 764.5 155 Z " /><path fill="rgb(74,131,174)" stroke="rgb(74,131,174)" stroke-width="1" opacity="0.9803921568627451" d="M 780 160 Q 785.2 158.3 784 162 Q 778.8 163.7 780 160 Z " /><path fill="rgb(74,131,174)" stroke="rgb(74,131,174)" stroke-width="1" opacity="0.9803921568627451" d="M 771.5 163 Q 776.8 161.8 778 164.5 Q 779.7 169.3 775.5 168 L 770 164.5 L 771.5 163 Z " /><path fill="rgb(74,131,174)" stroke="rgb(74,131,174)" stroke-width="1" opacity="0.9803921568627451" d="M 782 171 Q 785.3 169.9 784 174 Q 780.7 175.1 782 171 Z " /><path fill="rgb(74,131,174)" stroke="rgb(74,131,174)" stroke-width="1" opacity="0.9803921568627451" d="M 758.5 184 L 767.5 184 L 769 185.5 L 772 193.5 L 772 200.5 L 769 207.5 L 757 222.5 Q 754.6 227.6 756 236.5 L 761 249.5 L 769 280.5 Q 773.8 293.2 783.5 301 L 787.5 303 L 801.5 300 Q 810.3 296.8 815 289.5 L 818 280.5 L 819 256.5 L 822 248.5 L 824.5 246 L 829.5 243 L 832 248.5 L 833 260.5 L 834 261.5 L 834 270.5 L 835 271.5 L 836 313.5 L 835 314.5 L 835 331.5 L 829.5 338 L 796.5 359 L 789 366.5 L 786 372.5 L 781 394.5 L 771 416.5 L 761 430.5 L 736 458.5 L 735 464.5 L 739 484.5 L 739 498.5 L 723 536.5 L 736 546.5 L 736 549 L 730.5 549 L 729.5 550 L 689.5 552 L 688.5 553 L 656.5 553 Q 655.3 550.8 650.5 552 L 649 550.5 L 648 543.5 L 650 534.5 L 658 514.5 L 658 505.5 Q 644.7 492.3 637 473.5 L 634 461.5 L 633 448.5 L 634 447.5 L 635 433.5 L 643 408.5 L 655 386.5 L 677 352.5 L 680 341.5 L 683 319 Q 687 317.6 685 324.5 Q 682.3 327.8 683 334.5 L 681 337.5 L 681 346.5 L 679 348.5 Q 678.9 356.7 676 361 L 673 362.5 L 668 370.5 L 672 368.5 L 671.5 371 Q 670.3 368.8 669 371.5 L 670 377.5 L 667 379 L 665.5 375 L 659.5 384 Q 657.3 383.3 658 385.5 L 655.5 392 Q 653.3 391.3 654 393.5 L 650.5 400 L 648 401.5 L 648 404.5 L 641 417.5 L 641 425.5 L 638 428.5 L 637 440.5 L 635 442.5 L 635 444.5 L 636 462.5 L 638 470.5 L 641 474.5 L 641 479 L 645 480.5 L 644 482.5 L 649.5 491 L 652 492.5 L 653 497 Q 655.7 495.9 655 498.5 L 658.5 501 L 660 500.5 Q 657.5 502 661 503.5 L 660 518.5 L 657 522.5 L 657 526.5 L 653 533.5 L 652 538.5 Q 655 539.8 654 544 L 657.5 543 L 658.5 544 L 668 544.5 L 656.5 546 L 652 544 L 653 540 L 651 540.5 L 651 550 L 656.5 551 L 695.5 551 L 698 550 Q 696.9 546.5 704.5 548 L 705.5 549 L 719.5 549 L 720.5 548 L 730 547.5 L 729.5 545 L 728 544.5 L 728.5 543 L 722 540.5 L 721 532.5 L 726 525.5 L 725 522 L 722.5 523 L 722 516.5 L 725 515 L 726.5 512 Q 730.3 513.3 729 509.5 Q 734.4 506.7 732.5 504 L 735 505 L 737 499.5 L 738 488.5 L 735 481.5 L 735 470.5 L 734 464 Q 728 466.3 730 459.5 L 732 456 Q 734.7 457.1 734 454.5 L 737 451.5 L 736 450.5 L 737 448.5 L 736 446 L 738 446 L 738 451 L 740.5 451 L 746.5 441 L 751 440 L 751 436 L 752.5 436 L 755 435 L 756.5 431 L 758 430.5 L 757 428 Q 753.7 429.3 755 424.5 L 754 421.5 L 758 420 L 759 426 Q 762.8 426.8 764 423.5 Q 763.3 419.8 765.5 419 L 768 417.5 L 775 405.5 L 780 384 L 783 382.5 L 783 373.5 L 786 370.5 Q 785.1 363.6 789.5 362 L 796.5 356 Q 804 354.6 808 349.5 L 809.5 347 L 814.5 346 L 825 338.5 Q 824.3 335.9 827 337 L 827 335 L 831 335 Q 829.5 331.3 832.5 332 L 833 329.5 L 834 325.5 L 833 322.5 L 834 318.5 L 833 316.5 L 834 315.5 L 834 304.5 L 833 303.5 L 832.5 288 Q 831.3 290.3 830 287.5 Q 829.3 283.3 832 282.5 Q 830.7 274.3 833 269.5 L 832 268.5 L 832 259.5 L 830.5 253 L 828.5 257 L 826 256 L 826 252.5 L 829 247.5 Q 827.8 244.8 826.5 247 Q 823.5 246.1 825 250.5 Q 820.3 251.9 821 257 L 823.5 256 L 824 270 L 822 269.5 L 822 262.5 L 821 262.5 L 820 265.5 L 820 281.5 L 819 282.5 L 819 284.5 L 817 291 Q 814.3 289.9 815 292.5 L 811.5 297 L 806 299.5 L 806.5 302 Q 810.9 300.5 810 303.5 Q 808.8 306.3 807.5 304 L 801.5 301 L 794.5 303 L 792.5 305 L 784 305 L 782.5 302 L 780 300.5 L 777.5 297 L 775 295.5 L 774 292 Q 771.3 293.1 772 290.5 L 767 282.5 L 767 280 Q 763.2 280.8 762 277.5 L 763 268.5 L 763 266.5 L 761 262.5 L 760 252.5 L 757 248.5 L 756 243.5 L 756 241.5 L 752 230.5 L 755 222.5 L 751 219.5 L 752.5 216 L 754 220 Q 757.8 220.8 759 217.5 L 763 212.5 L 763 210.5 L 762 208.5 L 763.5 207 L 767 207.5 Q 766 201.5 770 200.5 L 770 190 L 767 188.5 L 766.5 186 L 758.5 186 L 757 189 L 761.5 188 L 762.5 190 L 749.5 190 Q 748.1 194 743 193 L 739.5 198 L 731.5 197 Q 726.1 200.6 715.5 199 L 709.5 203 L 706.5 203 L 696 210.5 Q 696.8 212.8 694.5 212 L 692.5 214 L 687.5 215 L 677 223.5 Q 676.2 226.1 679.5 225 L 682 223.5 L 681.5 222 Q 685.9 223.5 685 220.5 L 686.5 219 L 690.5 219 L 698 216 L 698 220 L 690.5 220 Q 689.3 223 685 222 L 683.5 225 L 673 226 L 672 231.5 L 679 237.5 L 679.5 239 L 686 239 L 686 230.5 L 688 230 L 688 238.5 Q 685 237.5 686 242.5 L 689 246.5 Q 687.4 254.6 691 257.5 L 692 272.5 L 693 273.5 L 693 286.5 L 692 287.5 L 692 296.5 L 688 307.5 L 688 316.5 L 689 318.5 L 686 320 L 685.5 316 L 684.5 318 L 684 314.5 L 690 296.5 Q 688.8 291.7 691 290.5 L 691 272.5 L 690 271.5 L 690 264.5 L 687 247.5 L 684.5 243 L 671 236.5 L 670 227.5 L 672 224 L 698.5 206 L 713.5 198 L 733.5 195 L 758.5 184 Z M 833 284 L 832 287 L 833 287 L 833 284 Z M 730 512 L 728 514 Q 729 516 726 515 L 725 520 Q 724 523 727 522 L 731 515 Q 732 511 730 512 Z " /><path fill="rgb(74,131,174)" stroke="rgb(74,131,174)" stroke-width="1" opacity="0.9803921568627451" d="M 721.5 201 L 728.5 203 L 731.5 202 Q 738.3 200 736 206 L 730.5 204 L 724.5 204 Q 723.5 207 718.5 206 L 717 203.5 L 721.5 201 Z " /><path fill="rgb(74,131,174)" stroke="rgb(74,131,174)" stroke-width="1" opacity="0.9803921568627451" d="M 739.5 206 Q 747.1 204.5 746 208 L 738 207.5 L 739.5 206 Z " /><path fill="rgb(74,131,174)" stroke="rgb(74,131,174)" stroke-width="1" opacity="0.9803921568627451" d="M 752 208 Q 755 207 754 210 Q 751 211 752 208 Z " /><path fill="rgb(74,131,174)" stroke="rgb(74,131,174)" stroke-width="1" opacity="0.9803921568627451" d="M 702 209 L 704 209 L 704 214 L 700 213.5 L 702 209 Z " /><path fill="rgb(74,131,174)" stroke="rgb(74,131,174)" stroke-width="1" opacity="0.9803921568627451" d="M 755 210 L 759 211.5 L 756.5 215 Q 754 213.8 755 210 Z " /><path fill="rgb(74,131,174)" stroke="rgb(74,131,174)" stroke-width="1" opacity="0.9803921568627451" d="M 700 221 Q 703.8 220 705 222.5 L 703.5 225 L 700 223.5 L 700 221 Z " /><path fill="rgb(74,131,174)" stroke="rgb(74,131,174)" stroke-width="1" opacity="0.9803921568627451" d="M 752 241 L 754 241.5 L 752.5 244 L 752 241 Z " /><path fill="rgb(74,131,174)" stroke="rgb(74,131,174)" stroke-width="1" opacity="0.9803921568627451" d="M 754.5 252 L 756 253.5 Q 754.3 261.7 757 265.5 L 755.5 270 L 754 266.5 L 754.5 252 Z " /><path fill="rgb(74,131,174)" stroke="rgb(74,131,174)" stroke-width="1" opacity="0.9803921568627451" d="M 703.5 255 Q 706.5 256.5 705 262.5 L 703.5 266 L 702 264.5 L 702 256.5 L 703.5 255 Z " /><path fill="rgb(74,131,174)" stroke="rgb(74,131,174)" stroke-width="1" opacity="0.9803921568627451" d="M 694 256 L 698 256 L 698 266.5 L 699 271.5 L 697 273.5 L 697 286.5 Q 700.5 288 699 294.5 L 697 304 Q 693.5 305.1 695 297.5 L 696 296.5 L 696 263.5 L 694 256 Z " /><path fill="rgb(74,131,174)" stroke="rgb(74,131,174)" stroke-width="1" opacity="0.9803921568627451" d="M 828.5 261 L 830 262.5 L 830 271.5 L 828 275 Q 825 273.8 826 277.5 L 825 278.5 L 825 288 Q 820.5 289.8 822 284.5 L 823 281.5 L 823 277.5 L 825.5 272 Q 826.8 274.3 828 271.5 L 828.5 261 Z " /><path fill="rgb(74,131,174)" stroke="rgb(74,131,174)" stroke-width="1" opacity="0.9803921568627451" d="M 752 274 L 754 274 L 754 280 L 752 280 L 752 274 Z " /><path fill="rgb(74,131,174)" stroke="rgb(74,131,174)" stroke-width="1" opacity="0.9803921568627451" d="M 767 292 Q 771.9 290.4 770 296 Q 765.1 297.6 767 292 Z " /><path fill="rgb(74,131,174)" stroke="rgb(74,131,174)" stroke-width="1" opacity="0.9803921568627451" d="M 703.5 294 L 705 303.5 Q 703.5 306.5 702 303.5 Q 700.7 296.7 703.5 294 Z " /><path fill="rgb(74,131,174)" stroke="rgb(74,131,174)" stroke-width="1" opacity="0.9803921568627451" d="M 771 297 L 775 298.5 Q 776.7 303.3 772.5 302 Q 770 300.8 771 297 Z " /><path fill="rgb(74,131,174)" stroke="rgb(74,131,174)" stroke-width="1" opacity="0.9803921568627451" d="M 814.5 298 L 817 299.5 Q 817.8 301.8 815.5 301 Q 814.3 303.3 813 300.5 L 814.5 298 Z " /><path fill="rgb(74,131,174)" stroke="rgb(74,131,174)" stroke-width="1" opacity="0.9803921568627451" d="M 687.5 328 L 689 334.5 L 686 336 L 686 344.5 L 684 345 L 684 336.5 Q 687.3 337.5 686 331.5 L 687.5 328 Z " /><path fill="rgb(74,131,174)" stroke="rgb(74,131,174)" stroke-width="1" opacity="0.9803921568627451" d="M 800.5 335 L 804 336 Q 805.1 338.7 802.5 338 L 800.5 339 L 799 336.5 L 800.5 335 Z " /><path fill="rgb(74,131,174)" stroke="rgb(74,131,174)" stroke-width="1" opacity="0.9803921568627451" d="M 818 336 L 820.5 337 L 822 336.5 Q 822.8 338.8 820.5 338 Q 819 335.5 817.5 339 L 808.5 344 L 806 344 L 807.5 340 L 813.5 340 Q 814.6 337.3 818 338 L 818 336 Z " /><path fill="rgb(74,131,174)" stroke="rgb(74,131,174)" stroke-width="1" opacity="0.9803921568627451" d="M 687.5 346 L 688 351.5 L 686 350.5 Q 685.3 346.8 687.5 346 Z " /><path fill="rgb(74,131,174)" stroke="rgb(74,131,174)" stroke-width="1" opacity="0.9803921568627451" d="M 800 346 L 804 346.5 L 802 351 L 800 351 L 800 346 Z " /><path fill="rgb(74,131,174)" stroke="rgb(74,131,174)" stroke-width="1" opacity="0.9803921568627451" d="M 682.5 348 L 686 355.5 L 686 360 Q 683.3 361.1 684 358.5 Q 680.6 355 682.5 348 Z " /><path fill="rgb(74,131,174)" stroke="rgb(74,131,174)" stroke-width="1" opacity="0.9803921568627451" d="M 791.5 351 L 795 352.5 Q 795.8 354.8 793.5 354 L 788 357.5 L 786.5 360 Q 781.3 361.8 783 356.5 L 789 353.5 Q 788.3 351.3 790.5 352 L 791.5 351 Z " /><path fill="rgb(74,131,174)" stroke="rgb(74,131,174)" stroke-width="1" opacity="0.9803921568627451" d="M 678.5 364 L 681 365 L 679.5 369 Q 675.8 369.8 675 367.5 Q 673.8 363.8 677.5 365 L 678.5 364 Z " /><path fill="rgb(74,131,174)" stroke="rgb(74,131,174)" stroke-width="1" opacity="0.9803921568627451" d="M 670 381 L 673 382.5 L 671.5 385 L 670 381 Z " /><path fill="rgb(74,131,174)" stroke="rgb(74,131,174)" stroke-width="1" opacity="0.9803921568627451" d="M 663 382 Q 667.1 380.7 666 384 Q 661.9 385.3 663 382 Z " /><path fill="rgb(74,131,174)" stroke="rgb(74,131,174)" stroke-width="1" opacity="0.9803921568627451" d="M 771 384 L 774 384 L 774 392.5 Q 771 393.5 772 398.5 L 773 403 L 770.5 404 L 770 393.5 L 771 392.5 L 771 384 Z " /><path fill="rgb(74,131,174)" stroke="rgb(74,131,174)" stroke-width="1" opacity="0.9803921568627451" d="M 33.5 391 L 35.5 391 L 47.5 391 L 48.5 392 L 52.5 391 L 53.5 392 L 75.5 392 L 79.5 393 Q 89.3 395.8 94 403.5 L 97 410.5 L 98 427.5 Q 95.8 440.8 87.5 448 Q 74.8 459.5 53 461 L 51 445.5 L 69.5 438 L 75 432.5 Q 78.9 428.4 78 419.5 L 76 413.5 L 73.5 411 L 65.5 408 L 38.5 408 L 37 409.5 L 36 466.5 L 37 467.5 L 37 494.5 L 34.5 500 L 18.5 500 L 17 498.5 L 17 392.5 L 17.5 392 L 32.5 392 L 33.5 391 Z M 21 393 L 19 401 L 19 495 L 21 496 L 22 496 L 22 401 L 24 402 L 24 498 L 34 498 L 35 497 L 35 417 L 34 416 Q 33 408 37 405 L 47 407 L 64 407 L 65 406 L 76 408 L 80 416 L 80 414 Q 82 411 83 414 L 81 418 L 81 426 L 78 431 L 78 433 L 77 435 L 72 437 L 71 441 Q 64 440 62 444 Q 59 443 60 447 L 60 449 L 64 454 L 62 455 L 59 454 Q 55 453 57 447 L 54 445 L 54 456 L 57 459 Q 63 459 66 455 L 72 455 L 86 447 Q 87 443 85 444 Q 81 440 81 433 L 83 434 Q 82 436 85 435 L 87 441 L 87 442 L 91 442 L 92 440 Q 94 433 89 435 L 87 433 Q 88 430 92 431 L 94 435 L 95 434 Q 94 426 97 423 L 95 419 L 95 416 L 90 416 L 90 414 L 95 414 L 95 410 L 92 408 L 90 402 L 87 398 L 83 397 L 79 398 L 71 398 L 73 396 L 79 396 L 71 393 L 31 393 L 29 395 L 30 397 L 27 399 Q 24 398 26 397 L 25 395 L 25 393 L 21 393 Z " /><path fill="rgb(74,131,174)" stroke="rgb(74,131,174)" stroke-width="1" opacity="0.9803921568627451" d="M 338.5 392 L 356.5 392 L 357 392.5 L 357 493.5 L 354.5 496 L 337.5 499 L 316.5 500 L 303.5 497 Q 295.8 493.8 291 487.5 Q 285.9 481.1 284 471.5 L 284 446.5 Q 286.4 434.4 294.5 428 L 305.5 422 L 322.5 420 L 337 423 L 337 393.5 L 338.5 392 Z M 341 393 L 339 401 L 339 416 L 341 427 L 344 428 L 344 436 L 343 436 L 340 440 L 340 448 L 339 449 L 339 481 L 338 482 L 340 482 Q 341 485 338 484 L 338 482 L 336 484 L 328 486 L 332 488 Q 337 486 336 490 L 331 491 L 321 490 Q 320 487 323 488 L 324 485 L 320 486 L 312 485 L 303 476 Q 305 470 300 472 L 298 469 Q 297 464 300 465 L 301 449 L 303 447 L 302 437 L 303 437 Q 301 444 306 442 L 307 438 Q 311 439 312 436 L 311 433 Q 305 431 306 435 Q 303 436 304 433 L 301 432 L 303 429 L 304 430 L 316 430 Q 318 431 316 433 Q 315 436 321 434 L 324 433 L 326 434 Q 329 433 328 436 L 334 437 L 338 436 L 340 436 L 340 428 Q 336 429 335 425 L 323 422 Q 315 420 312 424 L 327 428 L 336 428 L 336 430 L 331 429 L 326 430 Q 319 432 320 428 L 314 427 L 311 426 L 302 426 L 295 431 L 296 433 L 294 437 L 291 438 Q 292 440 289 439 Q 290 444 286 446 Q 285 450 288 449 Q 287 456 290 461 Q 291 465 288 464 L 286 470 L 289 480 Q 288 483 292 481 L 295 490 Q 301 490 304 495 Q 311 494 314 498 L 325 498 L 333 496 L 336 497 Q 341 498 343 495 L 351 495 L 352 494 L 353 464 L 353 479 L 354 480 Q 351 481 353 488 L 353 490 L 354 492 L 353 494 L 355 494 L 355 401 L 354 400 L 355 398 Q 356 393 353 393 L 349 395 L 350 397 L 347 399 Q 344 398 346 397 L 345 395 L 345 393 L 341 393 Z M 321 436 L 312 438 L 309 440 L 303 450 L 303 468 L 306 476 L 316 483 Q 328 485 336 482 L 337 481 L 337 440 L 330 437 L 321 436 Z M 286 449 L 285 465 L 288 464 L 288 457 L 286 449 Z " /><path fill="rgb(74,131,174)" stroke="rgb(74,131,174)" stroke-width="1" opacity="0.9803921568627451" d="M 64.5 397 L 69 397.5 L 64.5 398 L 64.5 397 Z " /><path fill="rgb(74,131,174)" stroke="rgb(74,131,174)" stroke-width="1" opacity="0.9803921568627451" d="M 43.5 399 L 48 399 L 48.5 402 L 62.5 402 L 63 404 L 49.5 404 Q 47.8 400.5 42 402 L 43.5 399 Z " /><path fill="rgb(74,131,174)" stroke="rgb(74,131,174)" stroke-width="1" opacity="0.9803921568627451" d="M 28 400 L 30 400.5 L 30 495.5 L 28 494.5 L 28 400 Z " /><path fill="rgb(74,131,174)" stroke="rgb(74,131,174)" stroke-width="1" opacity="0.9803921568627451" d="M 33.5 400 L 36 400.5 L 34 404 Q 31 405.3 32 401.5 L 33.5 400 Z " /><path fill="rgb(74,131,174)" stroke="rgb(74,131,174)" stroke-width="1" opacity="0.9803921568627451" d="M 65.5 400 L 71 400.5 Q 70.3 402.8 66.5 402 L 65.5 400 Z " /><path fill="rgb(74,131,174)" stroke="rgb(74,131,174)" stroke-width="1" opacity="0.9803921568627451" d="M 84.5 400 L 86 401.5 L 87 410 Q 82.5 411.8 84 406.5 L 82 401 L 84.5 400 Z " /><path fill="rgb(74,131,174)" stroke="rgb(74,131,174)" stroke-width="1" opacity="0.9803921568627451" d="M 342 401 L 345 401.5 L 345 414.5 Q 343.5 417.5 342 414.5 L 342 401 Z " /><path fill="rgb(74,131,174)" stroke="rgb(74,131,174)" stroke-width="1" opacity="0.9803921568627451" d="M 653.5 401 L 654 407.5 L 648.5 417 L 646 416 L 650 405.5 L 653.5 401 Z " /><path fill="rgb(74,131,174)" stroke="rgb(74,131,174)" stroke-width="1" opacity="0.9803921568627451" d="M 78.5 404 L 79 406.5 L 78 406.5 L 78.5 404 Z " /><path fill="rgb(74,131,174)" stroke="rgb(74,131,174)" stroke-width="1" opacity="0.9803921568627451" d="M 769.5 405 L 770 407.5 L 770 409.5 L 769.5 411 Q 767.3 410.3 768 406.5 L 769.5 405 Z " /><path fill="rgb(74,131,174)" stroke="rgb(74,131,174)" stroke-width="1" opacity="0.9803921568627451" d="M 655.5 412 L 657 415.5 Q 655.5 418.5 654 415.5 L 655.5 412 Z " /><path fill="rgb(74,131,174)" stroke="rgb(74,131,174)" stroke-width="1" opacity="0.9803921568627451" d="M 348.5 415 L 349 423.5 L 348 426 Q 344.5 427.1 346 419.5 L 345 417.5 L 348.5 415 Z " /><path fill="rgb(74,131,174)" stroke="rgb(74,131,174)" stroke-width="1" opacity="0.9803921568627451" d="M 760.5 415 L 764 416.5 L 762.5 419 L 759 416.5 L 760.5 415 Z " /><path fill="rgb(74,131,174)" stroke="rgb(74,131,174)" stroke-width="1" opacity="0.9803921568627451" d="M 752 416 Q 755 415 754 418 Q 751 419 752 416 Z " /><path fill="rgb(74,131,174)" stroke="rgb(74,131,174)" stroke-width="1" opacity="0.9803921568627451" d="M 32.5 417 L 33 494.5 L 32 494.5 L 32.5 417 Z " /><path fill="rgb(74,131,174)" stroke="rgb(74,131,174)" stroke-width="1" opacity="0.9803921568627451" d="M 137.5 420 L 153.5 421 L 163.5 424 L 173 432.5 L 176 439.5 L 176 498.5 L 174.5 500 L 166.5 500 L 158.5 493 L 156.5 493 Q 148.2 500.2 132.5 500 L 118.5 497 L 112 493 L 107 483.5 L 106 472.5 Q 107.6 463 113.5 458 L 118.5 455 L 129.5 452 L 152.5 452 L 155.5 453 L 157 451.5 L 157 443.5 L 151.5 437 L 147.5 436 L 128.5 436 L 113 439 L 113 424.5 L 115.5 424 L 121.5 422 L 136.5 421 L 137.5 420 Z M 134 422 L 132 424 L 153 425 L 154 426 Q 157 427 156 425 L 151 422 L 134 422 Z M 127 423 L 121 425 L 119 425 Q 116 424 117 428 Q 120 429 116 431 L 118 433 Q 119 435 116 434 L 115 436 Q 122 437 126 434 L 129 435 Q 134 437 136 434 L 138 435 L 137 432 L 143 432 L 145 434 Q 151 433 154 436 Q 156 435 155 438 L 157 438 L 159 443 L 162 445 L 162 448 L 160 444 L 158 453 L 157 456 Q 152 457 151 454 L 132 454 L 130 454 L 128 457 L 126 456 Q 119 456 116 461 Q 117 463 113 462 L 114 470 Q 110 471 112 466 L 110 466 L 108 474 L 108 479 L 110 481 L 111 489 L 116 491 L 118 495 L 123 495 L 127 497 L 129 497 L 134 498 L 143 497 L 145 495 L 151 495 L 150 489 L 158 486 L 160 486 Q 162 485 161 488 L 164 489 L 164 490 L 161 489 L 153 490 L 153 492 L 161 492 L 161 494 L 162 494 Q 161 491 164 492 Q 163 497 168 498 Q 173 499 175 497 L 175 442 L 174 441 Q 170 439 171 434 L 161 425 L 148 429 L 144 429 L 144 426 L 128 426 L 129 424 L 127 423 Z " /><path fill="rgb(74,131,174)" stroke="rgb(74,131,174)" stroke-width="1" opacity="0.9803921568627451" d="M 197.5 420 L 209.5 420 L 211 421.5 L 213 431 L 225.5 423 L 240.5 420 L 254.5 423 L 263 430.5 L 267 440.5 Q 265.5 446 268 447.5 L 268 468.5 L 267 470.5 L 268 471.5 L 268 497.5 L 265.5 500 L 249.5 500 L 248 498.5 L 248 444.5 L 243.5 438 Q 239.1 434.9 230.5 436 Q 220.8 438.3 215 444.5 L 215 498.5 L 213.5 500 L 197.5 500 L 196 498.5 L 196 421.5 L 197.5 420 Z M 200 422 L 198 424 L 198 446 L 198 448 L 198 495 L 197 497 L 200 498 L 203 497 L 207 498 L 209 497 L 213 498 Q 215 497 213 496 L 213 446 L 214 443 L 219 438 L 230 435 L 227 433 L 223 435 L 219 433 Q 213 434 210 439 Q 211 441 208 440 L 209 437 Q 208 434 211 435 Q 212 429 209 427 L 210 424 Q 209 421 208 423 L 200 422 Z M 239 422 L 225 426 L 219 432 L 224 432 L 226 429 Q 228 432 234 431 L 235 435 L 242 434 L 247 436 L 250 444 L 250 497 L 252 498 L 257 497 L 265 498 L 266 496 L 266 449 L 263 435 L 260 437 L 262 444 Q 261 449 264 449 L 264 495 L 262 495 L 262 448 L 258 449 L 258 441 L 259 440 L 258 435 L 258 432 Q 261 433 260 431 L 256 426 L 239 422 Z " /><path fill="rgb(74,131,174)" stroke="rgb(74,131,174)" stroke-width="1" opacity="0.9803921568627451" d="M 402.5 420 L 412.5 420 L 413.5 421 L 424.5 422 Q 432.3 424.3 437 429.5 L 442 439.5 L 442 492.5 L 443 497.5 Q 441 502 432.5 500 L 424.5 493 L 422.5 493 L 410.5 499 L 397.5 500 L 387.5 498 Q 380.1 495.4 376 489.5 Q 370.9 482.6 373 468.5 Q 375.1 460.6 381.5 457 L 395.5 452 L 418.5 452 L 423 453 Q 425.3 440.5 417.5 437 L 414.5 436 L 395.5 436 L 379 439 L 379 424.5 L 381.5 424 L 387.5 422 L 401.5 421 L 402.5 420 Z M 398 422 L 391 424 L 386 424 L 381 426 L 382 432 L 382 434 L 384 437 L 394 434 Q 399 433 401 435 L 403 434 Q 405 435 404 433 Q 405 430 410 431 L 412 435 Q 416 436 418 434 L 421 436 L 426 443 Q 428 451 424 454 Q 425 456 422 455 Q 420 458 419 454 L 396 454 Q 392 459 383 458 L 377 464 L 378 465 L 378 473 L 380 477 L 380 481 L 377 482 L 377 489 L 381 490 L 384 495 L 392 496 L 395 498 L 407 498 Q 411 495 418 495 L 419 493 L 409 492 L 406 491 L 410 490 L 412 490 Q 416 491 417 488 Q 422 486 420 492 L 428 492 L 435 498 Q 440 499 441 497 L 441 448 L 440 447 L 441 445 L 439 438 Q 440 435 436 436 Q 435 445 439 450 L 439 495 L 436 495 L 436 449 L 434 447 L 434 438 L 435 437 Q 436 430 433 429 Q 428 428 427 430 L 417 430 L 416 427 L 422 428 Q 427 430 426 426 L 422 423 Q 416 425 415 422 L 398 422 Z M 376 472 L 374 474 L 375 481 L 376 481 L 376 472 Z " /><path fill="rgb(74,131,174)" stroke="rgb(74,131,174)" stroke-width="1" opacity="0.9803921568627451" d="M 482.5 420 L 505.5 420 L 519.5 423 L 521 424.5 L 520.5 440 L 508.5 436 L 486.5 435 L 478 438 L 476 445.5 L 479.5 451 L 482.5 452 L 504.5 452 L 509.5 453 Q 516.9 455.1 521 460.5 L 525 470.5 L 525 480.5 Q 523.3 488.3 518.5 493 L 506.5 499 L 495.5 501 L 487.5 501 L 464.5 497 L 462 494.5 L 462 481.5 L 465.5 481 L 481.5 485 L 498.5 485 L 505 480.5 L 506 474.5 L 502.5 469 L 499.5 468 L 476.5 468 L 467.5 465 L 462 459.5 L 459 453.5 L 458 441.5 L 462 430.5 L 466.5 426 L 471.5 423 L 482.5 420 Z M 483 422 Q 481 424 477 423 L 467 428 Q 464 429 465 434 L 461 439 L 460 447 L 461 449 Q 463 450 462 446 L 464 446 L 464 451 L 461 450 L 462 456 L 468 463 Q 473 462 475 466 Q 480 465 482 467 L 495 467 L 496 466 L 506 467 L 507 471 L 508 474 L 508 482 L 507 483 L 511 485 L 512 485 L 511 488 L 507 485 L 502 487 L 481 487 L 482 489 L 486 488 L 496 488 L 502 492 L 501 494 L 495 490 L 466 490 L 464 492 L 464 495 L 473 495 L 472 497 L 476 498 L 503 498 Q 505 494 513 495 L 523 482 L 523 471 L 522 470 L 519 474 L 520 479 L 518 480 Q 517 474 519 473 L 518 471 Q 517 465 519 464 L 516 459 Q 514 454 513 457 L 504 454 L 484 454 L 482 454 Q 479 455 480 453 L 479 453 Q 476 454 477 451 L 475 451 L 476 449 L 473 442 L 475 438 L 480 434 Q 486 435 489 432 L 491 433 L 503 433 L 504 434 L 515 434 Q 516 437 520 436 L 519 432 L 520 428 L 513 424 L 502 423 L 501 422 L 485 422 L 483 422 Z M 465 483 L 464 488 L 475 488 L 476 487 L 465 483 Z " /><path fill="rgb(74,131,174)" stroke="rgb(74,131,174)" stroke-width="1" opacity="0.9803921568627451" d="M 352.5 421 L 353 442.5 L 352 442.5 Q 353.3 436.5 350 437.5 L 350 426 L 352 426 L 352.5 421 Z " /><path fill="rgb(74,131,174)" stroke="rgb(74,131,174)" stroke-width="1" opacity="0.9803921568627451" d="M 400 424 L 415.5 424 L 416 426 L 400.5 426 L 400 424 Z " /><path fill="rgb(74,131,174)" stroke="rgb(74,131,174)" stroke-width="1" opacity="0.9803921568627451" d="M 478.5 425 L 485.5 427 L 494.5 426 L 496.5 428 Q 503.4 426 502 430 L 481.5 428 Q 480.3 431 476 430 L 476 426 L 477.5 426 L 478.5 425 Z " /><path fill="rgb(74,131,174)" stroke="rgb(74,131,174)" stroke-width="1" opacity="0.9803921568627451" d="M 121.5 426 L 128 427 L 128 430 L 121.5 430 L 120 427.5 L 121.5 426 Z " /><path fill="rgb(74,131,174)" stroke="rgb(74,131,174)" stroke-width="1" opacity="0.9803921568627451" d="M 394.5 426 Q 399 425 400 427.5 Q 398.8 430.3 393.5 429 L 391 427.5 L 394.5 426 Z " /><path fill="rgb(74,131,174)" stroke="rgb(74,131,174)" stroke-width="1" opacity="0.9803921568627451" d="M 202 427 Q 207.2 424.9 206 429.5 L 206 431.5 L 206 495.5 L 204 496 L 204 432.5 L 202.5 432 L 201 429.5 L 202 427 Z " /><path fill="rgb(74,131,174)" stroke="rgb(74,131,174)" stroke-width="1" opacity="0.9803921568627451" d="M 239.5 428 Q 244.3 427.3 245 430.5 L 239.5 431 Q 236.5 429.5 239.5 428 Z " /><path fill="rgb(74,131,174)" stroke="rgb(74,131,174)" stroke-width="1" opacity="0.9803921568627451" d="M 160.5 430 L 166 433.5 L 167 436.5 L 164.5 440 L 163 438.5 L 163 432 L 160 432 Q 161.5 435.8 158.5 435 Q 154 433 157.5 431 L 160.5 430 Z " /><path fill="rgb(74,131,174)" stroke="rgb(74,131,174)" stroke-width="1" opacity="0.9803921568627451" d="M 251.5 430 Q 257.4 428.3 256 432 L 253 433.5 Q 253.8 436.1 250.5 435 L 248 431 L 251.5 430 Z " /><path fill="rgb(74,131,174)" stroke="rgb(74,131,174)" stroke-width="1" opacity="0.9803921568627451" d="M 467.5 430 Q 473.5 428.5 475 431.5 L 474 434 L 469.5 433 L 468.5 435 L 466 431.5 L 467.5 430 Z " /><path fill="rgb(74,131,174)" stroke="rgb(74,131,174)" stroke-width="1" opacity="0.9803921568627451" d="M 512.5 430 Q 516.3 429 515 432 L 512.5 430 Z " /><path fill="rgb(74,131,174)" stroke="rgb(74,131,174)" stroke-width="1" opacity="0.9803921568627451" d="M 750.5 431 L 752 433.5 L 749 435 L 750.5 431 Z " /><path fill="rgb(74,131,174)" stroke="rgb(74,131,174)" stroke-width="1" opacity="0.9803921568627451" d="M 331 432 L 335 432 L 335 433.5 L 333.5 433 L 331.5 434 L 331 432 Z " /><path fill="rgb(74,131,174)" stroke="rgb(74,131,174)" stroke-width="1" opacity="0.9803921568627451" d="M 424 432 Q 428.6 430.8 430 433.5 L 426.5 436 L 424 435 L 424 432 Z " /><path fill="rgb(74,131,174)" stroke="rgb(74,131,174)" stroke-width="1" opacity="0.9803921568627451" d="M 738.5 432 Q 744.6 430.2 742 437.5 L 743 439.5 L 741.5 442 Q 738.5 440.5 740 434.5 L 738.5 432 Z " /><path fill="rgb(74,131,174)" stroke="rgb(74,131,174)" stroke-width="1" opacity="0.9803921568627451" d="M 346 438 Q 348.7 436.9 348 439.5 L 349 440.5 L 349 448.5 L 347.5 448 L 345 446.5 L 346 438 Z " /><path fill="rgb(74,131,174)" stroke="rgb(74,131,174)" stroke-width="1" opacity="0.9803921568627451" d="M 254 439 L 256 439 L 256 444 L 254 444 L 254 439 Z " /><path fill="rgb(74,131,174)" stroke="rgb(74,131,174)" stroke-width="1" opacity="0.9803921568627451" d="M 431.5 439 Q 434.1 438.2 433 441.5 L 432 445 L 429 443.5 Q 428.5 439.5 431.5 439 Z " /><path fill="rgb(74,131,174)" stroke="rgb(74,131,174)" stroke-width="1" opacity="0.9803921568627451" d="M 468 440 Q 472 438.6 470 445.5 L 469 448.5 L 478 461.5 L 474 463 L 473 459.5 Q 467.5 457 466 450.5 L 468 446.5 L 467 442.5 L 468 440 Z " /><path fill="rgb(74,131,174)" stroke="rgb(74,131,174)" stroke-width="1" opacity="0.9803921568627451" d="M 639.5 440 L 640 464 Q 636 465.4 638 458.5 L 639 457.5 L 639 448.5 L 638 444.5 L 639.5 440 Z " /><path fill="rgb(74,131,174)" stroke="rgb(74,131,174)" stroke-width="1" opacity="0.9803921568627451" d="M 73.5 441 L 76 442 L 76 445 L 71 445 Q 69.5 441.3 72.5 442 L 73.5 441 Z " /><path fill="rgb(74,131,174)" stroke="rgb(74,131,174)" stroke-width="1" opacity="0.9803921568627451" d="M 170 444 L 174 446.5 Q 172.3 450.8 170.5 448 Q 168.3 448.8 169 446.5 L 170 444 Z " /><path fill="rgb(74,131,174)" stroke="rgb(74,131,174)" stroke-width="1" opacity="0.9803921568627451" d="M 64 446 Q 67.8 445 69 447.5 L 65.5 449 L 64 446 Z " /><path fill="rgb(74,131,174)" stroke="rgb(74,131,174)" stroke-width="1" opacity="0.9803921568627451" d="M 292.5 446 L 300 446.5 L 297 447 L 297 460.5 L 296 464 Q 292 465.4 294 458.5 L 293 457.5 L 293 447.5 L 292.5 446 Z " /><path fill="rgb(74,131,174)" stroke="rgb(74,131,174)" stroke-width="1" opacity="0.9803921568627451" d="M 210 448 L 212 448.5 L 212 495 L 210 494.5 L 210 448 Z " /><path fill="rgb(74,131,174)" stroke="rgb(74,131,174)" stroke-width="1" opacity="0.9803921568627451" d="M 343.5 448 L 345 449.5 L 345 463.5 L 344 464.5 L 344 480 L 342 479.5 L 342 449.5 L 343.5 448 Z " /><path fill="rgb(74,131,174)" stroke="rgb(74,131,174)" stroke-width="1" opacity="0.9803921568627451" d="M 430 449 L 432 449.5 L 432 457 Q 427.1 458.8 429 452.5 L 430 449 Z " /><path fill="rgb(74,131,174)" stroke="rgb(74,131,174)" stroke-width="1" opacity="0.9803921568627451" d="M 144 456 L 152 459.5 L 152 463 L 156 463 L 156 464.5 Q 157.2 467 161 466 L 161 470 L 159.5 470 Q 156.8 471.3 159 472.5 L 160 475.5 Q 157.5 477 161 478.5 Q 162.1 481.8 159.5 481 L 148.5 487 L 134.5 488 L 128.5 486 L 126 483.5 L 126 482 L 124 481.5 L 124 469 L 126 469 L 126 464 L 127.5 464 L 130.5 465 L 133.5 463 L 149 462.5 L 147.5 461 L 128 461 L 128.5 458 L 143.5 458 L 144 456 Z M 134 465 L 131 466 L 126 472 Q 125 478 127 482 L 135 486 Q 147 487 154 482 L 157 479 L 157 468 L 152 465 L 134 465 Z " /><path fill="rgb(74,131,174)" stroke="rgb(74,131,174)" stroke-width="1" opacity="0.9803921568627451" d="M 495.5 457 L 502 458 L 501.5 461 L 480 461 L 481.5 458 L 494.5 458 L 495.5 457 Z " /><path fill="rgb(74,131,174)" stroke="rgb(74,131,174)" stroke-width="1" opacity="0.9803921568627451" d="M 401.5 458 L 415.5 458 Q 422.4 456 421 460 L 415.5 462 L 414.5 461 L 401.5 461 L 400.5 463 L 420.5 463 L 423 464 L 426 469.5 L 425 472.5 L 425 474 L 430 474 L 430 476.5 L 428 477.5 Q 428.7 474.5 425 476 Q 426.3 482.4 421.5 484 L 406.5 487 L 403.5 489 L 399.5 487 Q 394.1 487.9 392 485.5 Q 394.5 484 391 482.5 L 389 470.5 L 392.5 466 L 398 462.5 L 396 462 Q 394.2 457.1 400.5 459 L 401.5 458 Z M 401 465 L 396 467 L 392 473 Q 391 480 394 483 L 401 486 Q 414 487 422 481 L 423 480 L 423 466 L 418 465 L 401 465 Z " /><path fill="rgb(74,131,174)" stroke="rgb(74,131,174)" stroke-width="1" opacity="0.9803921568627451" d="M 424 460 L 428 461.5 L 428 463 L 424 463 L 424 460 Z " /><path fill="rgb(74,131,174)" stroke="rgb(74,131,174)" stroke-width="1" opacity="0.9803921568627451" d="M 158 461 Q 161 460 160 463 Q 157 464 158 461 Z " /><path fill="rgb(74,131,174)" stroke="rgb(74,131,174)" stroke-width="1" opacity="0.9803921568627451" d="M 382 462 Q 386.6 460.8 388 463.5 L 387 467 Q 383.7 465.7 385 470.5 L 387 474.5 L 384.5 479 Q 380.1 473.2 382 462 Z " /><path fill="rgb(74,131,174)" stroke="rgb(74,131,174)" stroke-width="1" opacity="0.9803921568627451" d="M 506.5 462 L 516 462.5 L 510.5 465 L 506.5 463 L 506.5 462 Z " /><path fill="rgb(74,131,174)" stroke="rgb(74,131,174)" stroke-width="1" opacity="0.9803921568627451" d="M 118.5 463 L 121 464.5 L 122 470.5 L 120 474.5 L 119 486 Q 113 488.3 115 481.5 L 117 478.5 L 117 472.5 L 119 464.5 L 118.5 463 Z " /><path fill="rgb(74,131,174)" stroke="rgb(74,131,174)" stroke-width="1" opacity="0.9803921568627451" d="M 349.5 463 L 350 480 L 348 479.5 L 348 464.5 L 349.5 463 Z " /><path fill="rgb(74,131,174)" stroke="rgb(74,131,174)" stroke-width="1" opacity="0.9803921568627451" d="M 257 464 L 259 464.5 L 259 495 L 257 494.5 L 257 464 Z " /><path fill="rgb(74,131,174)" stroke="rgb(74,131,174)" stroke-width="1" opacity="0.9803921568627451" d="M 429.5 464 L 431 467 Q 427.3 468.5 428 465.5 L 429.5 464 Z " /><path fill="rgb(74,131,174)" stroke="rgb(74,131,174)" stroke-width="1" opacity="0.9803921568627451" d="M 289.5 466 Q 293 468.3 292 474 L 288 472.5 Q 286.8 467.3 289.5 466 Z " /><path fill="rgb(74,131,174)" stroke="rgb(74,131,174)" stroke-width="1" opacity="0.9803921568627451" d="M 251.5 472 L 252 487.5 L 251 487.5 L 251.5 472 Z " /><path fill="rgb(74,131,174)" stroke="rgb(74,131,174)" stroke-width="1" opacity="0.9803921568627451" d="M 511.5 476 L 512 479 Q 509.3 480.1 510 477.5 L 511.5 476 Z " /><path fill="rgb(74,131,174)" stroke="rgb(74,131,174)" stroke-width="1" opacity="0.9803921568627451" d="M 650.5 479 L 653 480.5 Q 654.3 484.3 650.5 483 L 649 480.5 L 650.5 479 Z " /><path fill="rgb(74,131,174)" stroke="rgb(74,131,174)" stroke-width="1" opacity="0.9803921568627451" d="M 295.5 480 Q 300.7 479.2 301.5 483 L 308 484 L 306.5 488 L 301.5 488 L 298 486 L 295.5 482 L 294 481.5 L 295.5 480 Z " /><path fill="rgb(74,131,174)" stroke="rgb(74,131,174)" stroke-width="1" opacity="0.9803921568627451" d="M 429.5 480 Q 433.3 479 432 482 L 429.5 480 Z " /><path fill="rgb(74,131,174)" stroke="rgb(74,131,174)" stroke-width="1" opacity="0.9803921568627451" d="M 514 481 Q 518.1 479.3 517 483.5 L 514 485 L 514 481 Z " /><path fill="rgb(74,131,174)" stroke="rgb(74,131,174)" stroke-width="1" opacity="0.9803921568627451" d="M 384.5 483 L 384 484.5 L 385 487.5 L 383.5 491 Q 380.5 489.4 382 484 L 384.5 483 Z " /><path fill="rgb(74,131,174)" stroke="rgb(74,131,174)" stroke-width="1" opacity="0.9803921568627451" d="M 654.5 483 Q 657.5 483.5 657 487.5 L 656 490 L 653.5 491 L 653 488.5 L 654.5 483 Z " /><path fill="rgb(74,131,174)" stroke="rgb(74,131,174)" stroke-width="1" opacity="0.9803921568627451" d="M 425 486 L 432 486 L 432 490 L 425 488 L 425 486 Z " /><path fill="rgb(74,131,174)" stroke="rgb(74,131,174)" stroke-width="1" opacity="0.9803921568627451" d="M 390.5 487 L 394 488 L 395.5 492 L 398 493.5 L 392.5 493 L 387 490.5 L 388 488 L 390.5 487 Z " /><path fill="rgb(74,131,174)" stroke="rgb(74,131,174)" stroke-width="1" opacity="0.9803921568627451" d="M 121 489 Q 125.5 488.2 127.5 491 Q 129.3 488.3 135.5 490 L 143 493.5 L 129.5 494 L 126.5 492 L 122.5 494 Q 120 492.8 121 489 Z " /><path fill="rgb(74,131,174)" stroke="rgb(74,131,174)" stroke-width="1" opacity="0.9803921568627451" d="M 315.5 490 L 317.5 490 Q 321.3 489 320 492 L 312 491.5 L 315.5 490 Z " /><path fill="rgb(74,131,174)" stroke="rgb(74,131,174)" stroke-width="1" opacity="0.9803921568627451" d="M 321 494 L 323 494.5 L 321 495.5 L 321 494 Z " /><path fill="rgb(74,131,174)" stroke="rgb(74,131,174)" stroke-width="1" opacity="0.9803921568627451" d="M 475.5 494 L 492.5 494 L 495 495.5 L 480.5 496 L 475.5 495 L 475.5 494 Z " /><path fill="rgb(74,131,174)" stroke="rgb(74,131,174)" stroke-width="1" opacity="0.9803921568627451" d="M 661 496 Q 663.7 494.9 663 497.5 L 661.5 500 L 661 496 Z " /><path fill="rgb(74,131,174)" stroke="rgb(74,131,174)" stroke-width="1" opacity="0.9803921568627451" d="M 726 496 L 732 496 L 732 498 L 726 498 L 726 496 Z " /><path fill="rgb(74,131,174)" stroke="rgb(74,131,174)" stroke-width="1" opacity="0.9803921568627451" d="M 720 502 L 722 502 L 722 508 L 720 508 L 720 502 Z " /><path fill="rgb(74,131,174)" stroke="rgb(74,131,174)" stroke-width="1" opacity="0.9803921568627451" d="M 667 504 Q 671.1 502.3 670 506.5 L 668 510.5 Q 670.5 512 669 517.5 L 667.5 520 Q 664.2 518.3 665 512.5 Q 668.7 510.6 667 504 Z " /><path fill="rgb(74,131,174)" stroke="rgb(74,131,174)" stroke-width="1" opacity="0.9803921568627451" d="M 720.5 523 Q 723 524.2 722 528 L 719 526.5 L 720.5 523 Z " /><path fill="rgb(74,131,174)" stroke="rgb(74,131,174)" stroke-width="1" opacity="0.9803921568627451" d="M 660 524 L 664 525.5 L 662.5 529 L 659 528 L 660 524 Z " /><path fill="rgb(74,131,174)" stroke="rgb(74,131,174)" stroke-width="1" opacity="0.9803921568627451" d="M 38.5 528 L 45.5 528 L 53.5 530 Q 63.2 534.3 69 542.5 Q 74.5 550 74 563.5 Q 71.3 578.8 60.5 586 Q 53.1 592.6 38.5 592 Q 23 589.5 16 578.5 Q 9.2 570.8 10 555.5 Q 13.4 540.4 24.5 533 L 38.5 528 Z M 39 544 L 37 547 L 36 548 L 29 549 Q 24 552 25 560 L 29 561 Q 28 555 30 552 L 52 552 L 53 553 L 54 554 L 54 563 L 58 562 Q 59 555 57 552 Q 55 547 48 548 L 46 546 Q 45 542 39 544 Z M 40 557 L 36 561 Q 35 567 40 568 L 45 567 Q 48 566 47 561 Q 46 556 40 557 Z M 25 566 L 27 575 Q 30 579 41 577 L 42 575 L 41 573 L 32 573 L 29 571 Q 31 564 25 566 Z M 51 568 L 49 570 Q 48 574 51 575 L 55 574 Q 58 575 56 570 Q 55 567 51 568 Z " /><path fill="rgb(74,131,174)" stroke="rgb(74,131,174)" stroke-width="1" opacity="0.9803921568627451" d="M 720.5 542 L 723.5 546 L 720.5 545 L 718.5 545 L 712 544.5 L 720 544 L 720.5 542 Z " /><path fill="rgb(74,131,174)" stroke="rgb(74,131,174)" stroke-width="1" opacity="0.9803921568627451" d="M 676.5 546 L 688 547.5 L 677.5 548 L 676.5 546 Z " /><path fill="rgb(74,131,174)" stroke="rgb(74,131,174)" stroke-width="1" opacity="0.9803921568627451" d="M 668.5 549 L 671 549.5 L 668.5 550 L 668.5 549 Z " /><path fill="rgb(74,131,174)" stroke="rgb(74,131,174)" stroke-width="1" opacity="0.9803921568627451" d="M 920.5 585 L 985.5 585 L 986 585.5 L 986 596 L 979.5 596 L 978 597.5 L 977.5 600 L 970.5 600 L 968.5 599 L 965.5 600 L 963.5 599 Q 962 601.5 956.5 600 L 953.5 596 Q 947.5 595 946.5 599 Q 945.5 595 939.5 596 L 937 600 Q 934 601.3 935 597.5 Q 934 595 929.5 596 L 927 600 L 919 600 L 919 586.5 L 920.5 585 Z " /><path fill="rgb(65,131,179)" stroke="rgb(65,131,179)" stroke-width="1" opacity="0.996078431372549" d="M 841.5 15 L 873.5 15 L 883.5 17 L 895 17 L 896 22 Q 898.1 20.4 903.5 21 L 906 22 L 908.5 28 L 911 27 Q 911.8 30.4 909 31.5 L 912 33 L 912.5 31 L 913 32.5 L 912 37 Q 916.1 35.3 915 39.5 L 917 44.5 L 917 64.5 L 915.5 64 L 914 64.5 L 914 74 Q 916.7 75.1 916 72.5 L 917 72.5 L 917 79.5 L 914 80 L 914 83.5 Q 917.3 88.2 916 97.5 L 913 106 Q 909.7 104.7 911 109.5 L 905 113.5 Q 905.8 116.1 902.5 115 L 897.5 114 L 894 115.5 L 897.5 116 L 899.5 115 L 897.5 118 L 894.5 119 L 862.5 119 L 854.5 119 L 848.5 119 L 848 117 L 842 117 Q 843.1 120.5 835.5 119 L 834.5 120 L 821 121 L 819.5 124 L 815 125 Q 816.1 127.7 813.5 127 L 810.5 131 Q 808.3 130.3 809 132.5 L 807 139 Q 804.3 137.9 805 140.5 L 804 144.5 Q 806.5 146 803 147.5 L 803 154.5 L 801 155 L 801 157.5 L 802 160.5 L 799 175 L 777.5 175 L 776 173.5 Q 776.8 171.3 774.5 172 L 771.5 170 L 769.5 170 L 766 167.5 Q 766.8 163.8 764.5 163 L 762 161.5 L 760 158.5 Q 761.3 153.8 759 152.5 L 760 148 L 757 146.5 L 756 134.5 L 755 133.5 L 755 116.5 L 756 115.5 L 756 106.5 L 758.5 100 Q 761.6 103.9 761.5 111 L 762 96.5 Q 759.5 95 761 89.5 L 764.5 85 L 767 85 L 767 81 Q 770 82 769 79 L 771.5 79 L 775 78 L 776.5 75 L 788.5 72 L 818.5 72 L 821.5 73 L 828 73 L 828 76 L 823 76 L 823 77.5 L 824.5 77 L 829.5 78 L 831 74 L 848.5 74 Q 851.5 71 858.5 72 L 865 68.5 Q 866.3 62.4 863.5 63 L 856.5 60 L 841.5 60 L 840.5 59 L 839.5 60 L 832 60 Q 833.8 55.1 827.5 57 L 825.5 58 L 817.5 56 L 815.5 59 L 814 57.5 Q 815.8 51.3 813 49.5 L 815 46.5 L 814 45.5 L 814 36.5 L 815.5 33 Q 820.2 35.8 819 44.5 L 818 48 Q 821.3 49.3 820 44.5 L 822.5 43 Q 825 44 824 48.5 L 828.5 54 L 843.5 51 L 846.5 52 L 847.5 50 L 839 49.5 L 843 47.5 L 845 41.5 L 845 39.5 Q 846.5 31.5 841.5 30 L 839 29.5 L 839.5 28 L 829.5 26 L 826.5 28 L 824 27 L 825.5 30 L 827 30.5 L 822.5 38 Q 818.5 36.3 820 30 Q 815.9 31.7 817 27.5 Q 818.3 24.8 819.5 27 L 822 25.5 L 823 22 L 828.5 21 L 830 25 Q 833 26 832 23 L 834.5 23 L 840 20.5 L 839.5 19 L 831 19 L 831 17 Q 838.4 18.6 841.5 15 Z M 847 23 L 846 24 Q 843 23 844 27 L 848 28 L 847 27 L 848 25 Q 849 22 847 23 Z M 899 26 L 901 30 Q 904 31 905 29 L 905 26 L 899 26 Z M 848 33 L 847 37 L 848 37 L 848 33 Z M 847 39 L 847 42 Q 845 43 846 48 L 849 48 L 848 41 L 847 39 Z M 913 42 L 911 46 L 913 63 L 913 49 L 914 48 L 913 42 Z M 856 47 L 850 49 L 855 50 L 865 50 L 865 49 L 864 47 L 856 47 Z M 817 52 Q 816 55 820 54 Q 821 51 817 52 Z M 848 54 L 848 56 Q 854 55 857 58 L 864 58 L 865 55 Q 859 53 848 54 Z M 835 56 L 837 58 L 847 58 L 848 57 L 835 56 Z M 815 74 L 814 75 L 804 75 L 803 76 L 784 76 L 783 78 L 785 77 L 796 78 L 800 78 L 814 78 L 815 79 L 817 78 Q 823 79 822 77 L 821 77 Q 815 78 815 74 Z M 859 74 L 854 78 L 856 80 L 859 80 L 863 77 Q 865 78 864 76 Q 863 73 859 74 Z M 774 79 L 774 80 L 780 80 L 774 79 Z M 768 86 L 767 92 L 768 92 L 768 86 Z M 913 92 L 912 98 L 914 98 L 913 97 L 914 95 L 913 92 Z M 767 93 L 765 94 L 764 96 L 766 95 L 768 111 L 768 97 L 768 95 Q 769 92 767 93 Z M 822 111 L 818 113 L 828 117 Q 833 119 832 116 Q 831 113 828 114 L 825 111 L 822 111 Z M 758 112 L 758 144 L 760 144 L 760 113 L 758 112 Z M 887 115 Q 885 118 880 116 L 881 118 L 887 117 L 887 115 Z M 766 117 L 764 119 L 764 128 L 763 129 L 764 143 L 766 144 L 766 128 L 767 127 L 766 117 Z M 817 117 L 815 120 Q 816 122 820 121 L 821 118 L 817 117 Z M 800 128 Q 799 131 802 130 Q 803 127 800 128 Z M 804 128 L 804 130 L 802 131 L 805 132 L 808 130 L 808 128 L 804 128 Z M 802 135 L 801 139 L 804 140 L 804 135 L 802 135 Z M 766 144 L 766 150 L 769 149 Q 771 142 766 144 Z M 761 145 L 760 148 L 761 148 L 761 145 Z M 765 155 L 763 159 L 766 161 Q 767 156 765 155 Z M 768 160 L 766 162 Q 765 164 768 163 L 768 160 Z M 780 160 Q 779 164 784 162 Q 785 158 780 160 Z M 772 163 L 770 165 L 776 168 Q 780 169 778 165 Q 777 162 772 163 Z M 782 171 Q 781 175 784 174 Q 785 170 782 171 Z " /><path fill="rgb(65,131,179)" stroke="rgb(65,131,179)" stroke-width="1" opacity="0.996078431372549" d="M 820.5 59 L 828 60.5 L 816.5 61 L 816.5 60 L 820.5 59 Z " /><path fill="rgb(65,131,179)" stroke="rgb(65,131,179)" stroke-width="1" opacity="0.996078431372549" d="M 758.5 186 L 766.5 186 L 767 188.5 L 770 190 L 770 200.5 Q 766.1 202 766.5 208 L 763.5 207 L 762 208.5 L 763 212.5 L 756.5 220 Q 752.8 221.3 754 217.5 Q 752.5 214.5 751 217.5 L 752.5 221 L 755 222.5 L 752 232.5 L 757 242.5 L 757 244.5 L 757 248.5 L 760 252.5 L 761 262.5 L 763 266.5 L 763 268.5 L 762 277.5 Q 763.2 280.8 767 280 L 772 292 Q 774.7 290.9 774 293.5 L 776.5 297 L 780 299.5 L 781.5 302 L 784 303.5 L 784.5 305 L 792.5 305 L 794.5 303 L 801.5 301 L 808.5 305 L 810 302 L 806 301.5 L 806.5 299 L 813 295.5 L 815 291 Q 817.7 292.1 817 289.5 L 820 283.5 L 820 281.5 L 820 265.5 L 821.5 262 L 822 270 L 824 269.5 L 824 256.5 L 822.5 257 Q 819.9 257.8 821 254.5 Q 826 253 825 247 L 827.5 246 L 829 248.5 Q 825.1 250.6 826 256 L 828.5 257 L 830.5 253 L 833 271.5 L 832 272.5 L 832 282.5 Q 829.3 283.3 830 287.5 L 833 288.5 L 834 315.5 L 833 317.5 L 834 320.5 L 833 322.5 L 834 325.5 L 832 330.5 L 832.5 332 Q 829.5 331.2 831 335 L 827 335 L 827 337 Q 824.3 335.9 825 338.5 L 814.5 346 Q 809.4 345.4 808 348.5 L 806.5 351 L 796.5 356 L 787 364.5 L 786 370.5 L 783 373.5 L 783 382.5 L 781.5 384 Q 778.5 383.1 780 387.5 L 775 405.5 L 766.5 419 L 764 420.5 Q 764.8 425.3 761.5 426 Q 758.2 427.1 759 424.5 L 758 420 L 754 421.5 L 755 428 Q 757.7 426.9 757 429.5 L 757.5 431 L 755 432.5 Q 756.1 435.8 753.5 435 L 751 436 Q 753.1 441.2 748.5 440 L 745 442.5 Q 744.3 448.3 740.5 451 L 738 451 L 738 446 L 736 446 L 737 448.5 L 736 450.5 L 737 451.5 L 734 454.5 L 732 457.5 Q 728.8 459 730 464 Q 736.4 461.7 734 469.5 L 735 470.5 L 735 481.5 Q 738 484.5 738 490.5 L 737 491.5 L 737 499.5 L 735 505 L 729 509.5 Q 728 513.3 731 512 L 731 514.5 L 726.5 522 Q 723.9 521.2 725 524.5 L 725 526.5 L 721 532.5 L 721 536.5 L 723.5 542 L 729 543.5 L 728.5 545 L 730 545.5 L 729.5 548 L 705.5 549 L 704.5 548 L 698 548 Q 699.1 550.7 696.5 550 L 695.5 551 L 656.5 551 L 651 550 L 651 540.5 L 652.5 540 L 652 538.5 L 653 533.5 L 657 526.5 L 657 522.5 L 660 518.5 L 661 503.5 L 655 498.5 L 653 495.5 L 650.5 491 L 647 488.5 L 644 481.5 L 644.5 480 L 641 479 L 641 474.5 L 638 470.5 L 636 462.5 L 635 444.5 L 637 440.5 L 638 428.5 L 641 425.5 L 641 417.5 L 644 413.5 L 644 410.5 L 649.5 400 L 652 398.5 L 654 392 L 657 390.5 L 658 384 L 663 380.5 Q 662.3 375.8 665.5 375 L 667 379 L 670 377.5 L 668 369.5 L 674.5 361 Q 676.8 361.8 676 359.5 Q 679.5 356 679 348.5 L 681 346.5 L 681 337.5 L 683 334.5 L 685 319.5 L 685 317.5 L 685.5 316 L 686 320 L 689 318.5 Q 686.5 315 688 307.5 L 692 296.5 L 693 273.5 L 692 272.5 L 691 257.5 L 689 254.5 L 689 246.5 Q 685.1 244.4 686 239 L 679.5 239 L 679 237.5 L 672 231.5 L 673 226 Q 681.7 227.9 685 223.5 Q 685.9 220.5 681.5 222 L 681.5 224 L 677 225 L 680.5 220 L 687.5 215 L 696 212 L 697.5 209 L 715.5 199 L 726.5 199 Q 729.4 196.4 735.5 197 L 739.5 198 L 743 193 Q 748.1 194 749.5 190 L 763 189.5 L 759.5 188 L 757 189 L 758.5 186 Z M 722 201 L 717 204 L 719 206 Q 724 207 725 204 L 731 204 L 736 206 Q 738 200 732 202 L 729 203 L 722 201 Z M 740 206 L 738 208 L 746 208 Q 747 205 740 206 Z M 752 208 Q 751 211 754 210 Q 755 207 752 208 Z M 702 209 L 700 214 L 704 214 L 704 209 L 702 209 Z M 755 210 Q 754 214 757 215 L 759 212 L 755 210 Z M 696 216 Q 693 220 687 219 L 685 222 Q 689 223 691 220 L 698 220 Q 700 215 696 216 Z M 700 221 L 700 224 L 704 225 L 705 223 Q 704 220 700 221 Z M 686 230 L 686 239 L 688 239 L 688 231 L 686 230 Z M 752 241 L 753 244 L 754 242 L 752 241 Z M 755 252 L 754 267 L 756 270 L 757 266 Q 754 262 756 254 L 755 252 Z M 704 255 L 702 257 L 702 265 L 704 266 L 705 263 Q 706 256 704 255 Z M 694 256 L 696 264 L 696 297 L 695 298 Q 694 305 697 304 L 699 295 Q 701 288 697 287 L 697 274 L 699 272 L 698 267 L 698 256 L 694 256 Z M 829 261 L 828 272 Q 827 274 826 272 L 823 278 L 823 282 L 822 285 Q 821 290 825 288 L 825 279 L 826 278 Q 825 274 828 275 L 830 272 L 830 263 L 829 261 Z M 752 274 L 752 280 L 754 280 L 754 274 L 752 274 Z M 767 292 Q 765 298 770 296 Q 772 290 767 292 Z M 704 294 Q 701 297 702 304 Q 704 307 705 304 L 704 294 Z M 771 297 Q 770 301 773 302 Q 777 303 775 299 L 771 297 Z M 815 298 L 813 301 Q 814 303 816 301 Q 818 302 817 300 L 815 298 Z M 688 328 L 686 336 L 689 335 L 688 328 Z M 801 335 L 799 337 L 801 339 L 803 338 Q 805 339 804 336 L 801 335 Z M 684 336 L 684 345 L 686 345 L 686 337 L 684 336 Z M 818 336 L 818 338 L 820 337 L 818 336 Z M 822 336 L 820 338 L 822 338 L 822 336 Z M 816 338 Q 814 342 808 340 L 806 344 L 809 344 L 818 339 L 816 338 Z M 688 346 Q 685 347 686 351 L 688 352 L 688 346 Z M 800 346 L 800 351 L 802 351 L 804 347 L 800 346 Z M 683 348 Q 681 355 684 359 Q 683 361 686 360 L 686 356 L 683 348 Z M 792 351 L 791 352 Q 788 351 789 354 L 783 357 Q 781 362 787 360 L 788 358 L 794 354 Q 796 355 795 353 L 792 351 Z M 679 364 L 678 365 Q 674 364 675 368 Q 676 370 680 369 L 681 365 L 679 364 Z M 672 368 L 670 370 L 672 371 L 672 368 Z M 670 381 L 672 385 L 673 383 L 670 381 Z M 663 382 Q 662 385 666 384 Q 667 381 663 382 Z M 771 384 L 771 393 L 770 394 L 771 404 L 773 403 L 772 399 Q 771 394 774 393 L 774 384 L 771 384 Z M 654 401 L 650 406 L 646 416 L 649 417 L 654 408 L 654 401 Z M 770 405 L 768 407 Q 767 410 770 411 L 770 410 L 770 408 L 770 405 Z M 656 412 L 654 416 Q 656 419 657 416 L 656 412 Z M 761 415 L 759 417 L 763 419 L 764 417 L 761 415 Z M 752 416 Q 751 419 754 418 Q 755 415 752 416 Z M 751 431 L 749 435 L 752 434 L 751 431 Z M 739 432 L 740 435 Q 738 440 742 442 L 743 440 L 742 438 Q 745 430 739 432 Z M 640 440 L 638 445 L 639 449 L 639 458 L 638 459 Q 636 465 640 464 L 640 440 Z M 651 479 L 649 481 L 651 483 Q 654 484 653 481 L 651 479 Z M 655 483 L 653 489 L 654 491 L 656 490 L 657 488 Q 657 483 655 483 Z M 661 496 L 662 500 L 663 498 Q 664 495 661 496 Z M 726 496 L 726 498 L 732 498 L 732 496 L 726 496 Z M 720 502 L 720 508 L 722 508 L 722 502 L 720 502 Z M 667 504 Q 669 511 665 513 Q 664 518 668 520 L 669 518 Q 671 512 668 511 L 670 507 Q 671 502 667 504 Z M 727 512 L 725 515 L 722 517 L 723 523 L 725 522 L 726 519 Q 725 514 728 515 L 729 513 L 727 512 Z M 721 523 L 719 527 L 722 528 Q 723 524 721 523 Z M 660 524 L 659 528 L 663 529 L 664 526 L 660 524 Z M 654 540 L 652 543 Q 651 545 654 544 L 654 540 Z M 721 542 L 720 544 L 712 545 L 719 545 L 721 545 L 724 546 L 721 542 Z M 658 543 L 654 545 L 657 546 L 668 545 L 659 544 L 658 543 Z M 677 546 L 678 548 L 688 548 L 677 546 Z M 669 549 L 669 550 L 671 550 L 669 549 Z " /><path fill="rgb(65,131,179)" stroke="rgb(65,131,179)" stroke-width="1" opacity="0.996078431372549" d="M 832.5 284 L 833 286.5 L 832 286.5 L 832.5 284 Z " /><path fill="rgb(65,131,179)" stroke="rgb(65,131,179)" stroke-width="1" opacity="0.996078431372549" d="M 21 393 L 25 393 L 25 394.5 L 26 396.5 Q 23.7 397.8 26.5 399 L 30 396.5 L 29 394.5 L 30.5 393 L 70.5 393 L 79 395.5 L 72.5 396 L 71 397.5 L 78.5 398 L 82.5 397 L 86.5 398 L 90 401.5 L 92 408 L 95 409.5 L 95 414 L 90 414 L 90 416 L 95 416 L 95 418.5 L 97 422.5 Q 94.1 426.1 95 433.5 L 93.5 435 L 92.5 432 L 91 432.5 L 91.5 431 Q 87.8 430.3 87 432.5 L 88.5 435 Q 94.2 433.2 92 439.5 L 91 442 L 87 442 L 87 440.5 L 84.5 435 Q 82.3 435.8 83 433.5 L 81 432.5 Q 81 440 84.5 444 Q 87.1 443.2 86 446.5 L 71.5 455 L 65.5 455 Q 63.3 459.3 56.5 459 L 54 455.5 L 54 445 L 57 446.5 Q 55.5 452.5 58.5 454 L 61.5 455 L 64 453.5 L 60 448.5 L 60 446.5 Q 58.9 443.2 61.5 444 Q 64 439.7 71 441 L 72 437 L 77 434.5 L 78 432.5 L 78 430.5 L 81 425.5 L 81 417.5 L 83 413.5 Q 81.5 410.5 80 413.5 L 79.5 416 L 75.5 408 L 64.5 406 L 63.5 407 L 46.5 407 L 36.5 405 Q 32.5 407.5 34 415.5 L 35 416.5 L 35 496.5 L 33.5 498 L 24 498 L 24 401.5 L 22 401 L 22 495.5 L 23 496.5 L 21.5 496 L 19 494.5 L 19 400.5 L 21 393 Z M 65 397 L 65 398 L 69 398 L 65 397 Z M 44 399 L 42 401 L 43 402 L 48 402 Q 50 397 44 399 Z M 28 400 L 28 495 L 30 496 L 30 401 L 28 400 Z M 34 400 L 32 402 Q 31 405 34 404 L 36 401 L 34 400 Z M 66 400 L 67 402 Q 70 403 71 401 L 66 400 Z M 85 400 L 82 401 L 84 407 Q 83 412 87 410 L 86 402 L 85 400 Z M 49 402 L 50 404 L 63 404 L 63 402 L 49 402 Z M 79 404 L 78 407 L 79 407 L 79 404 Z M 33 417 L 32 495 L 33 495 L 33 417 Z M 74 441 L 73 442 Q 69 441 71 445 L 76 445 L 76 442 L 74 441 Z M 64 446 L 66 449 L 69 448 Q 68 445 64 446 Z " /><path fill="rgb(65,131,179)" stroke="rgb(65,131,179)" stroke-width="1" opacity="0.996078431372549" d="M 341 393 L 345 393 L 345 394.5 L 346 396.5 Q 343.8 397.8 346.5 399 L 350 396.5 L 349 394.5 L 352.5 393 Q 355.5 393.5 355 397.5 L 354 399.5 L 355 400.5 L 355 494 L 353 493.5 L 354 491.5 L 353 489.5 L 353 487.5 Q 351.3 481.3 354 479.5 L 353 478.5 L 352.5 464 L 352 493.5 L 350.5 495 L 342.5 495 Q 340.8 497.8 335.5 497 L 332.5 496 L 324.5 498 L 313.5 498 Q 311.3 493.7 303.5 495 Q 301 490.2 295 490 L 292 481 Q 288.3 482.5 289 479.5 L 286 469.5 L 288 464.5 L 286.5 465 L 285 464.5 L 285 449.5 L 289 439 Q 291.7 440.1 291 437.5 L 294 436.5 L 295 433.5 L 295 431.5 L 296.5 429 L 301.5 426 L 310.5 426 L 313.5 427 L 320 428 Q 318.6 432 325.5 430 L 330.5 429 L 336 430 L 335.5 428 L 326.5 428 L 312 423.5 Q 315 420.5 322.5 422 L 334.5 425 Q 335.8 428.8 340 428 L 340 436 L 337.5 436 L 333.5 437 L 328 436 Q 329.3 433 325.5 434 L 323.5 433 L 320.5 434 Q 315.1 435.9 316 432.5 Q 318.3 431.3 315.5 430 L 303.5 430 L 302.5 429 L 301 431.5 L 304 433 Q 303 436 306 435 Q 304.6 431.3 310.5 433 L 312 435.5 Q 310.8 438.8 307 438 L 306 442 Q 300.8 443.8 303 436.5 L 302 436.5 L 303 446.5 L 301 448.5 L 300 465 Q 296.7 463.7 298 468.5 L 300 472 Q 304.5 470.3 303 475.5 L 311.5 485 L 319.5 486 L 324 485 L 322.5 488 Q 319.9 487.3 321 490 L 330.5 491 L 336 490 Q 337.4 486.3 331.5 488 L 328 485.5 L 335.5 484 L 339 480.5 L 339 448.5 L 340 447.5 L 340 439.5 L 342.5 436 L 344 435.5 L 344 428 L 341 426.5 L 339 415.5 L 339 400.5 L 341 393 Z M 342 401 L 342 415 Q 344 418 345 415 L 345 402 L 342 401 Z M 349 415 L 345 418 L 346 420 Q 345 427 348 426 L 349 424 L 349 415 Z M 353 421 L 352 426 L 350 426 L 350 438 Q 353 437 352 443 L 353 443 L 353 421 Z M 331 432 L 332 434 L 334 433 L 335 434 L 335 432 L 331 432 Z M 346 438 L 345 447 L 348 448 L 349 449 L 349 441 L 348 440 Q 349 437 346 438 Z M 293 446 L 293 448 L 293 458 L 294 459 Q 292 465 296 464 L 297 461 L 297 447 L 300 447 L 293 446 Z M 344 448 L 342 450 L 342 480 L 344 480 L 344 465 L 345 464 L 345 450 L 344 448 Z M 286 449 L 287 456 L 288 456 Q 289 448 286 449 Z M 289 456 L 288 464 L 290 464 L 289 456 Z M 350 463 L 348 465 L 348 480 L 350 480 L 350 463 Z M 290 466 Q 287 467 288 473 L 292 474 Q 293 468 290 466 Z M 296 480 L 294 482 L 296 482 L 298 486 L 302 488 L 307 488 L 306 487 L 308 487 L 308 484 L 305 485 L 305 484 Q 300 484 299 480 L 296 480 Z M 338 482 Q 337 485 340 484 Q 341 481 338 482 Z M 316 490 L 312 492 L 320 492 Q 321 489 318 490 L 316 490 Z M 321 494 L 321 496 L 323 495 L 321 494 Z " /><path fill="rgb(65,131,179)" stroke="rgb(65,131,179)" stroke-width="1" opacity="0.996078431372549" d="M 133.5 422 L 150.5 422 L 156 424.5 Q 155.1 427.5 159.5 426 L 161.5 426 L 171 433.5 Q 170.5 439 173.5 441 L 175 441.5 L 175 497 Q 172.9 498.6 167.5 498 Q 163.3 496.7 164 492 Q 161.3 490.9 162 493.5 L 162.5 495 L 161 492 L 153.5 492 L 153 490 L 160.5 489 L 163.5 490 L 163.5 489 L 161 487.5 Q 161.8 485.3 159.5 486 L 157.5 486 L 150 489 L 151 495 L 144.5 495 L 142.5 497 L 133.5 498 L 128.5 497 L 126.5 497 L 122.5 495 L 118 495 L 115.5 491 L 111 488.5 L 110 480.5 L 108 478.5 L 108 473.5 L 110 466 L 112 466 Q 110.3 471.2 114 470 L 113 462 Q 116.7 463.5 116 460.5 Q 118.9 456.4 125.5 456 L 128 457 L 129.5 454 L 131.5 454 L 150.5 454 L 151.5 455 L 153 454.5 L 152.5 456 Q 157 457 158 454.5 L 158 452.5 L 159.5 444 L 161.5 448 L 162 444.5 L 159 443 L 157 438 L 155 438 Q 156.1 435.3 153.5 436 Q 151.2 432.8 144.5 434 L 142.5 432 L 136.5 432 L 137.5 435 L 135.5 434 Q 134 436.5 128.5 435 L 125.5 434 Q 122.2 437.2 114.5 436 L 115.5 434 Q 118.8 435.1 118 432.5 L 116 430.5 Q 119.5 429 117 427.5 Q 115.9 424.2 118.5 425 L 120.5 425 L 128.5 423 L 128 424.5 L 128.5 426 L 143.5 426 L 144 429 L 147.5 429 L 156 426.5 L 152.5 425 L 132 423.5 L 133.5 422 Z M 122 426 L 120 428 L 122 430 L 128 430 L 128 427 L 122 426 Z M 161 430 L 158 431 Q 154 433 159 435 Q 161 436 160 432 L 163 432 L 161 430 Z M 163 432 L 163 439 L 165 440 L 167 437 L 166 434 L 163 432 Z M 170 444 L 169 447 Q 168 449 171 448 Q 172 451 174 447 L 170 444 Z M 144 456 L 144 458 L 129 458 L 128 461 L 148 461 L 149 463 L 134 463 L 131 465 L 128 464 L 126 464 L 126 469 L 124 469 L 124 482 L 126 482 L 126 484 L 129 486 L 135 488 L 149 487 L 160 481 Q 162 482 161 479 Q 157 477 160 476 L 159 473 Q 157 471 160 470 L 161 470 L 161 466 Q 157 467 156 465 L 156 463 L 152 463 L 152 460 L 144 456 Z M 158 461 Q 157 464 160 463 Q 161 460 158 461 Z M 119 463 L 119 465 L 117 473 L 117 479 L 115 482 Q 113 488 119 486 L 120 475 L 122 471 L 121 465 L 119 463 Z M 121 489 Q 120 493 123 494 L 127 492 L 130 494 L 143 494 L 136 490 Q 129 488 128 491 Q 125 488 121 489 Z " /><path fill="rgb(65,131,179)" stroke="rgb(65,131,179)" stroke-width="1" opacity="0.996078431372549" d="M 199.5 422 L 207.5 423 Q 208.7 420.8 210 423.5 L 209 426.5 Q 211.8 429.5 211 435 Q 208.3 433.9 209 436.5 L 208 440 Q 210.7 441.1 210 438.5 Q 212.8 434.3 218.5 433 L 222.5 435 L 226.5 433 L 230 434.5 L 218.5 438 L 214 442.5 L 213 445.5 L 213 495.5 Q 215.3 496.8 212.5 498 L 208.5 497 L 206.5 498 L 202.5 497 L 199.5 498 L 197 497 L 198 494.5 L 198 447.5 L 198 445.5 L 198 423.5 L 199.5 422 Z M 202 427 L 201 430 L 203 432 L 204 433 L 204 496 L 206 496 L 206 432 L 206 430 Q 207 425 202 427 Z M 210 448 L 210 495 L 212 495 L 212 449 L 210 448 Z " /><path fill="rgb(65,131,179)" stroke="rgb(65,131,179)" stroke-width="1" opacity="0.996078431372549" d="M 238.5 422 L 255.5 426 L 260 430.5 Q 260.7 433.1 258 432 L 258 434.5 L 259 439.5 L 258 440.5 L 258 449 L 262 448 L 260 436.5 L 263 434.5 L 266 448.5 L 266 495.5 L 265 498 L 256.5 497 L 251.5 498 L 250 496.5 L 250 443.5 L 247 436 L 241.5 434 L 235 435 L 233.5 431 Q 227.8 431.7 225.5 429 L 224 432 L 219 431.5 L 224.5 426 L 238.5 422 Z M 240 428 Q 237 430 240 431 L 245 431 Q 244 427 240 428 Z M 252 430 L 248 431 L 251 435 Q 254 436 253 434 L 256 432 Q 257 428 252 430 Z M 254 439 L 254 444 L 256 444 L 256 439 L 254 439 Z M 262 448 L 262 495 L 264 495 L 264 449 L 262 448 Z M 257 464 L 257 495 L 259 495 L 259 465 L 257 464 Z M 252 472 L 251 488 L 252 488 L 252 472 Z " /><path fill="rgb(65,131,179)" stroke="rgb(65,131,179)" stroke-width="1" opacity="0.996078431372549" d="M 397.5 422 L 414.5 422 Q 416 424.5 421.5 423 L 426 425.5 Q 427.4 430.1 421.5 428 L 416 427 L 416.5 430 L 426.5 430 Q 427.8 427.8 432.5 429 Q 436.3 430.3 435 436.5 L 434 437.5 L 434 446.5 L 436 448.5 L 436 495 L 439 494.5 L 439 449.5 Q 435 444.7 436 436 Q 439.7 434.5 439 437.5 L 441 444.5 L 440 446.5 L 441 447.5 L 441 496.5 Q 439.8 499.3 434.5 498 L 427.5 492 L 420 492 Q 422.2 486.4 416.5 488 Q 415.7 490.7 411.5 490 L 409.5 490 L 406 490.5 L 408.5 492 L 419 492.5 L 418 495 Q 411 494.8 406.5 498 L 394.5 498 L 391.5 496 L 384 495 L 380.5 490 L 377 488.5 L 377 481.5 L 380 481 L 380 476.5 L 378 472.5 L 378 464.5 L 377 463.5 L 382.5 458 Q 388.9 458.9 392 456.5 L 391.5 455 L 393.5 455 L 395.5 454 L 418.5 454 Q 420 457.5 421.5 455 Q 424.8 456.1 424 453.5 Q 427.6 450.6 426 442.5 L 420.5 436 L 417.5 434 Q 416.3 436.2 411.5 435 L 409.5 431 Q 405 430 404 432.5 Q 404.8 434.8 402.5 434 L 400.5 435 Q 399 432.5 393.5 434 L 383.5 437 L 382 433.5 L 382 431.5 L 381 426 L 385.5 424 L 390.5 424 L 397.5 422 Z M 400 424 L 401 426 L 416 426 L 416 424 L 400 424 Z M 395 426 L 391 428 L 394 429 Q 399 430 400 428 Q 399 425 395 426 Z M 424 432 L 424 435 L 427 436 L 430 434 Q 429 431 424 432 Z M 432 439 Q 429 440 429 444 L 432 445 L 433 442 Q 434 438 432 439 Z M 430 449 L 429 453 Q 427 459 432 457 L 432 450 L 430 449 Z M 402 458 L 401 459 Q 394 457 396 462 L 398 463 L 393 466 L 389 471 L 391 483 Q 394 484 392 486 Q 394 488 400 487 L 404 489 L 407 487 L 422 484 Q 426 482 425 476 Q 429 474 428 478 L 430 477 L 430 474 L 425 474 L 425 473 L 426 470 L 423 464 L 421 463 L 401 463 L 402 461 L 415 461 L 416 462 L 421 460 Q 422 456 416 458 L 402 458 Z M 424 460 L 424 463 L 428 463 L 428 462 L 424 460 Z M 382 462 Q 380 473 385 479 L 387 475 L 385 471 Q 384 466 387 467 L 388 464 Q 387 461 382 462 Z M 430 464 L 428 466 Q 427 469 431 467 L 430 464 Z M 430 480 L 432 482 Q 433 479 430 480 Z M 382 484 Q 380 489 384 491 L 384 489 L 384 487 Q 385 483 382 484 Z M 425 486 L 425 488 L 432 490 L 432 486 L 425 486 Z M 391 487 L 388 488 L 387 491 L 393 493 L 396 494 L 397 493 L 396 492 L 394 488 L 391 487 Z " /><path fill="rgb(65,131,179)" stroke="rgb(65,131,179)" stroke-width="1" opacity="0.996078431372549" d="M 482.5 422 L 484.5 422 L 500.5 422 L 501.5 423 L 512.5 424 L 520 427.5 L 519 431.5 L 520 436 Q 515.8 437 514.5 434 L 503.5 434 L 502.5 433 L 490.5 433 L 488.5 432 Q 485.6 434.6 479.5 434 L 475 437.5 L 473 441.5 L 476 448.5 L 475 451 L 477 451 Q 475.9 453.7 478.5 453 L 480 452.5 Q 479.3 454.8 481.5 454 L 483.5 454 L 503.5 454 L 512.5 457 Q 514.3 454.3 516 458.5 L 519 463.5 Q 516.5 465 518 470.5 L 519.5 473 L 521 470.5 L 520 468.5 L 521 468.5 L 521 470 L 523 470.5 L 523 481.5 L 512.5 495 Q 504.7 493.7 502.5 498 L 475.5 498 L 472 496.5 L 472.5 495 L 464 495 L 464 491.5 L 465.5 490 L 494.5 490 L 500.5 494 L 502 491.5 L 495.5 488 L 485.5 488 L 481.5 489 L 480.5 487 L 501.5 487 L 506.5 485 L 510.5 488 L 512 484.5 L 510.5 485 L 507 482.5 L 508 481.5 L 508 473.5 L 507 470.5 L 505.5 467 L 495.5 466 L 494.5 467 L 481.5 467 Q 480 464.5 474.5 466 Q 472.6 462.4 468 463 L 462 455.5 L 461 450 L 463.5 451 L 464 446 L 462 446 Q 463.5 449.7 460.5 449 L 460 446.5 L 461 438.5 L 465 433.5 Q 464 429 466.5 428 L 476.5 423 Q 481.3 424.2 482.5 422 Z M 479 425 L 478 426 L 476 426 L 476 430 Q 480 431 482 428 L 502 430 Q 503 426 497 428 L 495 426 L 486 427 L 479 425 Z M 468 430 L 466 432 L 469 435 L 470 433 L 474 434 L 475 432 Q 474 429 468 430 Z M 513 430 L 515 432 Q 516 429 513 430 Z M 468 440 L 467 443 L 468 447 L 466 451 Q 468 457 473 460 L 474 463 L 478 462 L 469 449 L 470 446 Q 472 439 468 440 Z M 496 457 L 495 458 L 482 458 L 480 461 L 502 461 L 502 458 L 496 457 Z M 507 462 L 507 463 L 511 465 L 516 463 L 507 462 Z M 519 473 L 518 480 L 520 479 L 519 473 Z M 512 476 L 510 478 Q 509 480 512 479 L 512 476 Z M 514 481 L 514 485 L 517 484 Q 518 479 514 481 Z M 476 494 L 476 495 L 481 496 L 495 496 L 493 494 L 476 494 Z " /><path fill="rgb(65,131,179)" stroke="rgb(65,131,179)" stroke-width="1" opacity="0.996078431372549" d="M 374.5 471 L 376 472.5 L 376 480.5 L 375 480.5 L 374 473.5 L 374.5 471 Z " /><path fill="rgb(65,131,179)" stroke="rgb(65,131,179)" stroke-width="1" opacity="0.996078431372549" d="M 464.5 483 L 476 486.5 L 474.5 488 L 464 488 L 464.5 483 Z " /><path fill="rgb(254,216,4)" stroke="rgb(254,216,4)" stroke-width="1" opacity="0.9882352941176471" d="M 933.5 70 Q 958.9 69.1 968 84.5 Q 973.7 92.3 976 103.5 Q 974.5 109 977 110.5 L 977 131.5 L 976 132.5 L 975 144.5 L 971 157.5 Q 967.1 167.6 958.5 173 L 946.5 178 Q 941.7 176.8 940.5 179 L 923.5 179 L 922.5 178 L 912.5 178 L 902.5 176 L 880.5 176 Q 872.8 177.3 868 181.5 L 869.5 184 L 876.5 186 L 916.5 186 L 918 187.5 Q 920.5 216.5 904.5 227 L 894.5 232 L 886.5 234 L 858.5 235 L 857.5 234 L 847.5 234 L 833.5 231 L 820 224 Q 814.3 217.3 812 206.5 L 812 198.5 L 811 197.5 L 811 162.5 L 815 142.5 L 821.5 133 L 831.5 128 L 850.5 127 L 851.5 128 L 886.5 128 L 887.5 127 L 901.5 126 L 907.5 124 Q 915 121 919 114.5 L 924 103.5 L 924 98.5 L 926 92.5 L 927 73.5 L 928 71 L 933.5 70 Z M 894 200 L 888 204 L 889 214 L 895 217 Q 901 218 903 214 L 901 202 L 894 200 Z " /><path fill="rgb(254,216,4)" stroke="rgb(254,216,4)" stroke-width="1" opacity="0.9882352941176471" d="M 841.5 244 L 889.5 246 L 891 247.5 L 891 263.5 L 890 264.5 L 890 279.5 L 889 280.5 L 889 308.5 Q 891 321.5 899.5 328 Q 907.3 331.3 912 337.5 Q 915.2 340.8 914 348.5 L 911 355.5 L 900 368.5 L 896 377.5 L 896 439.5 L 897 440.5 L 898 478.5 L 900 489.5 L 900 503.5 L 901 504.5 L 902 519.5 L 905 532.5 Q 907.3 539.3 912.5 543 Q 929.3 548.7 943 557.5 L 945 575 L 939.5 574 L 920.5 574 L 919.5 573 L 895.5 573 L 894.5 572 L 765.5 572 L 764.5 573 L 746.5 573 L 745.5 574 L 728.5 574 L 727.5 575 L 712.5 575 L 711.5 576 L 689.5 576 L 688.5 577 L 666.5 577 L 665.5 578 L 626.5 578 L 625.5 577 L 614.5 576 L 613 574.5 Q 611.5 566.5 615.5 564 L 626.5 563 L 627.5 562 L 679.5 560 L 680.5 559 L 694.5 559 L 695.5 558 L 715.5 558 L 716.5 557 L 726.5 557 L 727.5 556 L 778.5 553 L 803.5 547 Q 813.3 542.8 820 535.5 Q 827.9 527.4 831 514.5 L 838 475.5 L 838 465.5 L 839 464.5 L 839 454.5 L 840 453.5 L 840 439.5 L 841 438.5 L 841 416.5 L 842 415.5 L 842 324.5 L 841 323.5 L 840 253.5 L 839 252.5 L 839 245 L 841.5 244 Z " /><path fill="rgb(228,237,229)" stroke="rgb(228,237,229)" stroke-width="1" opacity="0.16470588235294117" d="M 837.5 12 L 885.5 12 L 898.5 15 Q 908.2 18.3 914 25.5 L 917 30.5 L 920 41.5 L 920 92.5 L 916 107.5 L 909.5 116 L 902.5 120 L 894.5 122 L 837.5 122 Q 836 124.5 830.5 123 Q 818 125 812 133.5 L 807 146.5 L 804 172.5 L 801.5 178 L 799.5 179 L 782.5 179 Q 768.8 176.8 762 167.5 L 756 155.5 L 754 147.5 L 753 132.5 L 752 131.5 L 752 116.5 L 753 115.5 L 753 105.5 L 755 95.5 Q 758 85.5 764.5 79 Q 771.8 71.3 784.5 69 Q 789.3 70.3 790.5 68 L 810.5 68 L 811.5 69 L 823.5 69 L 824.5 70 L 851.5 70 L 860 66.5 L 854.5 64 L 835.5 63 L 834.5 64 L 813.5 64 L 811 61.5 L 810 56.5 L 810 40.5 L 814 27.5 L 822.5 18 L 837.5 12 Z M 844 13 L 831 16 L 822 21 L 813 34 L 811 43 L 812 61 L 814 62 L 855 62 L 862 65 Q 864 64 863 67 L 858 70 L 846 71 L 845 72 L 819 71 L 818 70 L 787 70 Q 777 72 771 76 Q 762 81 758 92 L 754 110 L 754 139 Q 757 140 755 146 L 757 155 L 764 168 L 774 175 L 788 178 Q 796 179 801 177 L 806 144 L 810 134 L 820 125 L 828 122 L 841 121 L 842 120 L 870 120 L 871 121 L 890 121 L 901 119 L 907 116 L 915 106 L 919 87 L 919 47 L 917 36 L 914 29 L 907 21 L 891 15 L 878 14 L 877 13 L 844 13 Z " /><path fill="rgb(228,237,229)" stroke="rgb(228,237,229)" stroke-width="1" opacity="0.16470588235294117" d="M 832.5 29 L 842 32 Q 844 35 843 42.5 L 839.5 47 Q 836.2 50.2 828.5 49 Q 823 47 825 37.5 L 828.5 32 L 832.5 29 Z M 833 31 L 830 33 L 826 40 L 827 46 L 831 48 L 839 46 Q 843 43 841 35 Q 839 30 833 31 Z " /><path fill="rgb(228,237,229)" stroke="rgb(228,237,229)" stroke-width="1" opacity="0.16470588235294117" d="M 929.5 69 Q 942.2 67.3 950.5 70 Q 961.6 73.4 968 81.5 L 977 99.5 L 978 110.5 L 979 111.5 L 979 128.5 L 978 129.5 L 977 143.5 L 973 157.5 Q 969.1 167.1 961.5 173 L 949.5 179 L 938.5 180 L 937.5 181 L 928.5 181 L 927.5 180 L 916.5 180 L 915.5 179 L 904.5 179 L 903.5 178 L 879.5 178 L 871 181.5 L 876.5 184 L 916.5 184 L 919 185 L 920 187.5 L 920 200.5 L 917 213.5 Q 913.9 221.9 907.5 227 L 896.5 233 L 882.5 236 L 852.5 236 L 829.5 231 Q 820.8 227.8 816 220.5 L 812 211.5 L 810 200.5 L 810 159.5 L 815 138.5 L 821.5 131 L 828.5 127 L 833.5 126 L 890.5 126 Q 892.3 123.3 898.5 125 L 909.5 121 L 917 114.5 L 923 100.5 L 924 88.5 L 925 87.5 L 925 75.5 L 927.5 70 L 929.5 69 Z M 934 70 L 928 71 L 927 74 L 926 93 L 924 99 L 924 104 L 919 115 Q 915 121 908 124 L 902 126 L 888 127 L 887 128 L 852 128 L 851 127 L 832 128 L 822 133 L 815 143 L 811 163 L 811 198 L 812 199 L 812 207 Q 814 217 820 224 L 834 231 L 848 234 L 858 234 L 859 235 L 887 234 L 895 232 L 905 227 Q 920 216 918 188 L 917 186 L 877 186 L 870 184 L 868 182 Q 873 177 881 176 L 903 176 L 913 178 L 923 178 L 924 179 L 941 179 Q 942 177 947 178 L 959 173 Q 967 168 971 158 L 975 145 L 976 133 L 977 132 L 977 111 Q 975 109 976 104 Q 974 92 968 85 Q 959 69 934 70 Z " /><path fill="rgb(228,237,229)" stroke="rgb(228,237,229)" stroke-width="1" opacity="0.16470588235294117" d="M 760.5 182 Q 768.5 180.5 771 184.5 L 773 189.5 L 774 199.5 L 771 207.5 L 760 220.5 L 757 228.5 L 757 233.5 L 772 283.5 Q 776.6 293.4 784.5 300 L 792.5 301 Q 804.8 298.8 812 291.5 L 816 284.5 L 817 279.5 L 818 254.5 Q 819.9 246.8 825.5 243 L 829.5 241 L 833 245.5 L 834 257.5 L 835 258.5 L 836 293.5 L 837 294.5 L 837 320.5 L 836 321.5 L 836 332.5 L 830.5 339 L 799.5 359 L 792 365.5 L 787 375.5 L 781 399.5 L 773 416.5 L 760 434.5 L 738 458.5 Q 735.5 462 737 469.5 L 740 481.5 L 741 494.5 L 737 509.5 L 730 522.5 L 725 536.5 L 736 543.5 L 738 548.5 L 734.5 551 L 722.5 551 L 712.5 553 L 664.5 555 L 663.5 554 L 652.5 554 L 648 551.5 L 647 541.5 L 649 533.5 L 655 520.5 L 657 512.5 L 657 506.5 Q 644.6 493.9 637 476.5 L 633 463.5 L 632 443.5 L 635 427.5 L 644 403.5 Q 655.8 380.3 671 360.5 L 677 347.5 L 682 315.5 L 689 292.5 L 689 270.5 L 688 269.5 L 686 250.5 L 685 246.5 L 682.5 244 L 671.5 239 L 669 236.5 Q 666.9 226.4 671.5 223 L 698.5 204 L 711.5 197 L 718.5 195 L 730.5 194 L 760.5 182 Z M 759 184 L 734 195 L 714 198 L 699 206 L 672 224 L 670 228 L 671 237 L 685 243 L 687 248 L 690 265 L 690 272 L 691 273 L 691 291 L 684 315 L 679 347 L 674 359 Q 656 381 643 409 L 635 434 L 634 448 L 633 449 L 634 462 L 637 474 Q 645 492 658 506 L 658 515 L 650 535 L 648 544 L 649 551 L 651 552 Q 655 551 657 553 L 689 553 L 690 552 L 730 550 L 731 549 L 736 549 L 736 547 L 723 537 L 739 499 L 739 485 L 735 465 L 736 459 L 761 431 L 771 417 L 781 395 L 786 373 L 789 367 L 797 359 L 830 338 L 835 332 L 835 315 L 836 314 L 835 272 L 834 271 L 834 262 L 833 261 L 832 249 L 830 243 L 825 246 L 822 249 L 819 257 L 818 281 L 815 290 Q 810 297 802 300 L 788 303 L 784 301 Q 774 293 769 281 L 761 250 L 756 237 Q 755 228 757 223 L 769 208 L 772 201 L 772 194 L 769 186 L 768 184 L 759 184 Z " /><path fill="rgb(228,237,229)" stroke="rgb(228,237,229)" stroke-width="1" opacity="0.16470588235294117" d="M 893.5 200 L 901 202 L 903 213.5 Q 901.4 217.9 894.5 217 L 889 213.5 L 888 203.5 L 893.5 200 Z " /><path fill="rgb(228,237,229)" stroke="rgb(228,237,229)" stroke-width="1" opacity="0.16470588235294117" d="M 839.5 243 L 871.5 243 L 872.5 244 L 890.5 244 L 892 245.5 L 893 254.5 L 892 255.5 L 890 302.5 L 891 303.5 L 892 314.5 Q 894.9 322.6 901.5 327 L 913 335.5 L 916 342.5 L 916 347.5 L 913 355.5 L 900 371.5 L 898 376.5 Q 899.3 381.3 897 382.5 L 897 421.5 L 898 422.5 L 899 468.5 L 900 469.5 L 900 481.5 L 901 482.5 L 901 495.5 L 902 496.5 L 903 515.5 L 906 530.5 Q 908.6 537.9 914.5 542 L 941.5 554 L 945 557.5 L 947 575.5 Q 945.8 578.3 940.5 577 L 939.5 576 L 898.5 575 L 897.5 574 L 810.5 573 L 809.5 574 L 762.5 574 L 761.5 575 L 742.5 575 L 741.5 576 L 687.5 578 L 686.5 579 L 634.5 580 L 633.5 579 L 617.5 579 L 612 577 Q 610.2 574.6 611 568.5 L 615.5 562 Q 622.2 559.7 632.5 561 L 633.5 560 L 648.5 560 L 649.5 559 L 671.5 559 L 672.5 558 L 683.5 558 L 684.5 557 L 718.5 556 L 719.5 555 L 732.5 555 L 743.5 553 L 758.5 553 L 759.5 552 L 780.5 551 L 798.5 547 L 809.5 542 L 823 529.5 L 831 508.5 L 831 503.5 L 835 484.5 L 836 469.5 L 837 468.5 L 837 456.5 L 838 455.5 L 838 445.5 L 839 444.5 L 839 425.5 L 840 424.5 L 841 362.5 L 840 361.5 L 839 274.5 L 838 273.5 L 838 247.5 L 837 246.5 L 839.5 243 Z M 842 244 L 839 245 L 839 253 L 840 254 L 841 324 L 842 325 L 842 416 L 841 417 L 841 439 L 840 440 L 840 454 L 839 455 L 839 465 L 838 466 L 838 476 L 831 515 Q 828 527 820 536 Q 813 543 804 547 L 779 553 L 728 556 L 727 557 L 717 557 L 716 558 L 696 558 L 695 559 L 681 559 L 680 560 L 628 562 L 627 563 L 616 564 Q 612 567 613 575 L 615 576 L 626 577 L 627 578 L 666 578 L 667 577 L 689 577 L 690 576 L 712 576 L 713 575 L 728 575 L 729 574 L 746 574 L 747 573 L 765 573 L 766 572 L 895 572 L 896 573 L 920 573 L 921 574 L 940 574 L 945 575 L 943 558 Q 929 549 913 543 Q 907 539 905 533 L 902 520 L 901 505 L 900 504 L 900 490 L 898 479 L 897 441 L 896 440 L 896 378 L 900 369 L 911 356 L 914 349 Q 915 341 912 338 Q 907 331 900 328 Q 891 321 889 309 L 889 281 L 890 280 L 890 265 L 891 264 L 891 248 L 890 246 L 842 244 Z " /><path fill="rgb(228,237,229)" stroke="rgb(228,237,229)" stroke-width="1" opacity="0.16470588235294117" d="M 17.5 390 L 74.5 390 Q 87.5 392 94 400.5 L 98 408.5 L 100 424.5 L 97 437.5 L 88.5 449 Q 75.3 460.3 53.5 463 L 51 459.5 L 51 453.5 L 49 445.5 L 50 443 Q 64.9 441.6 73 432.5 Q 77.5 428 76 417.5 L 70.5 411 L 67.5 410 L 38 410 L 38 499.5 L 36.5 501 L 17.5 501 L 16 499.5 L 16 391.5 L 17.5 390 Z M 34 391 L 33 392 L 18 392 L 17 393 L 17 499 L 19 500 L 35 500 L 37 495 L 37 468 L 36 467 L 37 410 L 39 408 L 66 408 L 74 411 L 76 414 L 78 420 Q 79 428 75 433 L 70 438 L 51 446 L 53 461 Q 75 460 88 448 Q 96 441 98 428 L 97 411 L 94 404 Q 89 396 80 393 L 76 392 L 54 392 L 53 391 L 49 392 L 48 391 L 36 391 L 34 391 Z " /><path fill="rgb(228,237,229)" stroke="rgb(228,237,229)" stroke-width="1" opacity="0.16470588235294117" d="M 337.5 390 L 356.5 390 L 358 391.5 L 358 495.5 L 356.5 497 L 335.5 501 L 311.5 501 Q 296.2 498.3 289 487.5 L 283 472.5 L 282 452.5 L 285 438.5 Q 288.3 430.8 294.5 426 Q 305.2 416.7 327.5 419 L 336 421 L 336 391.5 L 337.5 390 Z M 339 392 L 337 394 L 337 423 L 323 420 L 306 422 L 295 428 Q 286 434 284 447 L 284 472 Q 286 481 291 488 Q 296 494 304 497 L 317 500 L 338 499 L 355 496 L 357 494 L 357 393 L 357 392 L 339 392 Z " /><path fill="rgb(228,237,229)" stroke="rgb(228,237,229)" stroke-width="1" opacity="0.16470588235294117" d="M 484.5 418 L 503.5 418 L 517.5 421 L 522 423.5 L 523 439.5 Q 522 442 517.5 441 L 503.5 437 L 484.5 437 L 479 440.5 L 478 446.5 L 479 449 L 483.5 451 L 507.5 451 L 511.5 452 Q 518.9 454.6 523 460.5 Q 527.9 468.1 526 482.5 Q 524.2 490.7 518.5 495 Q 511.9 500.4 501.5 502 L 480.5 502 L 465.5 499 L 461 495.5 L 461 479.5 Q 461 478.5 465.5 479 L 473.5 482 L 493.5 484 Q 494.8 481.7 499.5 483 L 503 481 Q 504.6 478.9 504 473.5 L 500.5 470 L 491.5 469 L 490.5 470 L 481.5 470 L 468.5 467 L 461 460.5 L 458 454.5 L 457 440.5 Q 458.7 429.2 466.5 424 L 474.5 420 L 484.5 418 Z M 483 420 L 472 423 L 467 426 L 462 431 L 458 442 L 459 454 L 462 460 L 468 465 L 477 468 L 500 468 L 503 469 L 506 475 L 505 481 L 499 485 L 482 485 L 466 481 L 462 482 L 462 495 L 465 497 L 488 501 L 496 501 L 507 499 L 519 493 Q 523 488 525 481 L 525 471 L 521 461 Q 517 455 510 453 L 505 452 L 483 452 L 480 451 L 476 446 L 478 438 L 487 435 L 509 436 L 521 440 L 521 425 L 520 423 L 506 420 L 483 420 Z " /><path fill="rgb(228,237,229)" stroke="rgb(228,237,229)" stroke-width="1" opacity="0.16470588235294117" d="M 129.5 419 L 151.5 419 L 156.5 420 Q 168.1 422.9 174 431.5 L 178 442.5 L 178 497.5 L 177 501 L 164.5 501 L 158.5 495 L 156.5 495 Q 146.5 503.5 125.5 501 Q 115.3 499.3 110 492.5 L 105 480.5 L 105 470.5 Q 106.5 460.5 113.5 456 L 127.5 451 L 144.5 450 L 145.5 451 L 156 451 Q 157.2 442 151.5 439 L 138.5 437 L 137.5 438 L 127.5 438 L 112 441 L 111 438.5 L 111 425.5 L 112 423 L 129.5 419 Z M 138 420 L 137 421 L 122 422 L 116 424 L 113 425 L 113 439 L 129 436 L 148 436 L 152 437 L 157 444 L 157 452 L 156 453 L 153 452 L 130 452 L 119 455 L 114 458 Q 108 463 106 473 L 107 484 L 112 493 L 119 497 L 133 500 Q 148 500 157 493 L 159 493 L 167 500 L 175 500 L 176 499 L 176 440 L 173 433 L 164 424 L 154 421 L 138 420 Z " /><path fill="rgb(228,237,229)" stroke="rgb(228,237,229)" stroke-width="1" opacity="0.16470588235294117" d="M 196.5 419 L 210.5 419 L 213 421.5 L 214.5 429 Q 223.8 417.3 246.5 419 Q 259.3 421.3 265 430.5 L 269 443.5 L 269 499.5 L 267.5 501 L 247 501 L 247 446.5 L 241.5 439 Q 237.7 436.3 229.5 438 L 217 444 L 216 446.5 L 216 493.5 L 217 496.5 L 216 501 L 195.5 501 L 195 499.5 L 194 498.5 L 194 421.5 L 196.5 419 Z M 198 420 L 196 422 L 196 499 L 198 500 L 214 500 L 215 499 L 215 445 Q 221 438 231 436 Q 239 435 244 438 L 248 445 L 248 499 L 250 500 L 266 500 L 268 498 L 268 472 L 267 471 L 268 469 L 268 448 Q 266 446 267 441 L 263 431 L 255 423 L 241 420 L 226 423 L 213 431 L 211 422 L 210 420 L 198 420 Z " /><path fill="rgb(228,237,229)" stroke="rgb(228,237,229)" stroke-width="1" opacity="0.16470588235294117" d="M 395.5 419 L 418.5 419 L 423.5 420 Q 433.9 423.1 440 430.5 L 444 441.5 L 444 499.5 L 442.5 501 L 430.5 501 L 423.5 495 L 409.5 501 L 391.5 501 Q 381.8 498.7 376 492.5 L 372 485.5 L 371 469.5 Q 372.7 461.2 378.5 457 L 392.5 451 L 412.5 450 L 413.5 451 L 422 451 Q 423.5 442.8 418.5 440 L 410.5 437 L 403.5 437 L 402.5 438 L 393.5 438 L 379.5 441 L 377 438.5 L 377 425.5 L 378 423 L 383.5 421 L 394.5 420 L 395.5 419 Z M 403 420 L 402 421 L 388 422 L 382 424 L 379 425 L 379 439 L 396 436 L 415 436 L 418 437 Q 425 441 423 453 L 419 452 L 396 452 L 382 457 Q 375 461 373 469 Q 371 483 376 490 Q 380 495 388 498 L 398 500 L 411 499 L 423 493 L 425 493 L 433 500 Q 441 502 443 498 L 442 493 L 442 440 L 437 430 Q 432 424 425 422 L 414 421 L 413 420 L 403 420 Z " /><path fill="rgb(228,237,229)" stroke="rgb(228,237,229)" stroke-width="1" opacity="0.16470588235294117" d="M 320.5 436 L 329.5 437 L 337 440 L 337 480.5 L 335.5 482 Q 327.6 484.6 315.5 483 L 306 475.5 L 303 467.5 L 303 449.5 L 308.5 440 L 311.5 438 L 320.5 436 Z M 319 438 L 312 440 L 306 446 L 304 454 L 304 464 L 308 476 L 316 481 Q 320 480 322 482 L 335 480 L 336 479 L 336 443 L 330 439 L 319 438 Z " /><path fill="rgb(228,237,229)" stroke="rgb(228,237,229)" stroke-width="1" opacity="0.16470588235294117" d="M 133.5 465 L 151.5 465 L 157 467.5 L 157 478.5 L 153.5 482 Q 146.6 486.6 134.5 486 L 127 481.5 Q 124.7 478.3 126 471.5 L 130.5 466 L 133.5 465 Z M 136 466 L 131 468 Q 126 471 128 480 L 134 484 Q 149 485 156 478 Q 157 470 155 467 L 150 466 L 136 466 Z " /><path fill="rgb(228,237,229)" stroke="rgb(228,237,229)" stroke-width="1" opacity="0.16470588235294117" d="M 400.5 465 L 417.5 465 L 423 466 L 423 479.5 L 421.5 481 Q 414.4 486.9 400.5 486 L 394 482.5 Q 391 479.5 392 472.5 L 395.5 467 L 400.5 465 Z M 403 466 L 395 469 L 393 475 L 394 480 L 400 484 Q 413 486 420 480 L 422 478 L 422 469 Q 415 464 403 466 Z " /><path fill="rgb(228,237,229)" stroke="rgb(228,237,229)" stroke-width="1" opacity="0.16470588235294117" d="M 36.5 527 L 52.5 528 L 66 536.5 Q 76.2 545.3 75 565.5 Q 72.2 578.7 63.5 586 L 49.5 593 L 35.5 593 Q 23.4 590.6 17 582.5 L 10 570.5 Q 7.7 563.8 9 553.5 Q 11.5 541.5 19.5 535 L 31.5 528 L 36.5 527 Z M 39 528 L 25 533 Q 13 540 10 556 Q 9 571 16 579 Q 23 590 39 592 Q 53 593 61 586 Q 71 579 74 564 Q 75 550 69 543 Q 63 534 54 530 L 46 528 L 39 528 Z " /><path fill="rgb(228,237,229)" stroke="rgb(228,237,229)" stroke-width="1" opacity="0.16470588235294117" d="M 38.5 544 Q 44.5 542.5 46 545.5 L 47.5 548 Q 55.5 546.5 57 551.5 Q 59.3 554.7 58 561.5 L 54 563 L 54 553.5 L 52.5 553 L 51.5 552 L 30 552 Q 28.1 554.8 29 561 L 25 559.5 Q 24 551.5 28.5 549 L 35.5 548 L 37 546.5 L 38.5 544 Z M 38 546 L 38 548 Q 37 550 32 549 L 32 550 L 51 550 Q 46 550 45 548 L 45 546 L 38 546 Z M 28 552 L 27 559 L 28 559 L 28 552 Z M 56 553 L 55 561 L 57 560 L 56 553 Z " /><path fill="rgb(228,237,229)" stroke="rgb(228,237,229)" stroke-width="1" opacity="0.16470588235294117" d="M 39.5 557 Q 46 556 47 560.5 Q 48 566 44.5 567 L 39.5 568 Q 35.3 566.7 36 560.5 L 39.5 557 Z M 42 558 L 38 561 Q 37 565 41 566 L 44 565 Q 47 566 45 561 L 42 558 Z " /><path fill="rgb(228,237,229)" stroke="rgb(228,237,229)" stroke-width="1" opacity="0.16470588235294117" d="M 25 566 Q 31 563.8 29 570.5 L 31.5 573 L 40.5 573 L 42 574.5 L 40.5 577 Q 30.4 579.1 27 574.5 L 25 566 Z M 28 569 L 27 572 L 28 572 L 28 569 Z " /><path fill="rgb(228,237,229)" stroke="rgb(228,237,229)" stroke-width="1" opacity="0.16470588235294117" d="M 50.5 568 Q 55 567 56 569.5 Q 57.9 574.9 54.5 574 L 50.5 575 Q 48 574 49 569.5 L 50.5 568 Z M 53 569 L 50 572 L 54 573 L 53 569 Z " /><path fill="rgb(228,237,229)" stroke="rgb(228,237,229)" stroke-width="1" opacity="0.16470588235294117" d="M 919.5 584 L 986 584.5 L 920.5 585 L 919 586.5 L 918.5 600 L 918 585.5 L 919.5 584 Z " /><path fill="rgb(228,237,229)" stroke="rgb(228,237,229)" stroke-width="1" opacity="0.16470588235294117" d="M 929.5 596 Q 934 595 935 597.5 L 935 600 L 927 600 L 929.5 596 Z " /><path fill="rgb(228,237,229)" stroke="rgb(228,237,229)" stroke-width="1" opacity="0.16470588235294117" d="M 939.5 596 Q 945.5 595 946.5 599 Q 947.5 595 953.5 596 L 956 599.5 L 953.5 600 L 953.5 598 L 949 598.5 L 951 599.5 L 937 600 L 939.5 596 Z M 941 597 L 940 599 L 944 599 L 941 597 Z " /><path fill="rgb(228,237,229)" stroke="rgb(228,237,229)" stroke-width="1" opacity="0.16470588235294117" d="M 979.5 596 L 986 596 L 986 600 L 978 600 L 978 597.5 L 979.5 596 Z " /></svg>