<svg width="870" height="354" version="1.1" xmlns="http://www.w3.org/2000/svg" desc="Created with imagetracer.js version 1.2.6" ><path fill="rgb(0,0,0)" stroke="rgb(0,0,0)" stroke-width="1" opacity="0" d="M 1.5 0 L 272.5 0 L 273.5 1 L 316.5 1 L 317.5 0 L 334.5 0 L 335.5 1 L 357.5 1 L 358.5 0 L 402.5 0 L 407 1.5 Q 398.2 1.4 393 4 L 394.5 7 L 401.5 11 L 423.5 13 L 430.5 11 L 435 7.5 L 432.5 4 L 420 1.5 L 421.5 0 L 489.5 0 L 490.5 1 L 503.5 1 Q 505 -1.5 510.5 0 L 512.5 0 L 555.5 0 L 556.5 1 L 568 1.5 L 559.5 2 L 558.5 3 L 545.5 3 L 544.5 4 L 525.5 4 L 524.5 3 L 514.5 3 L 513.5 2 L 484.5 2 L 479.5 3 L 476 5.5 Q 475.3 7.8 477.5 7 L 490.5 12 L 496.5 12 Q 497.7 9.7 502.5 11 L 512.5 16 L 516.5 16 L 521.5 10 L 527.5 9 L 530.5 7 L 534.5 7 L 544.5 11 L 556.5 11 L 558 12.5 L 556.5 15 L 552.5 13 L 549.5 15 L 547 14 Q 548.1 11.3 545.5 12 L 541 15.5 L 542 28.5 L 548.5 39 L 561.5 38 L 567 41.5 L 568.5 44 L 572 42.5 Q 572.3 37.8 575.5 36 Q 578.1 36.7 577 34 L 579.5 34 L 583.5 31 L 590.5 29 L 598 22.5 Q 601.2 20.2 600 13.5 L 602.5 11 L 612 6.5 L 604.5 3 L 578 1.5 L 595.5 1 L 596.5 0 L 868.5 0 L 870 1.5 L 870 354 L 0 354 L 0 1.5 L 1.5 0 Z M 271 2 L 270 3 L 259 4 L 257 6 Q 261 10 271 9 L 274 11 Q 276 10 275 17 L 270 21 L 268 24 L 279 28 L 286 34 Q 288 33 287 36 L 281 37 L 269 37 L 262 39 L 256 39 L 254 41 L 264 46 Q 266 45 265 48 L 279 51 L 286 51 L 292 54 L 311 54 Q 314 57 321 56 L 328 59 L 333 59 L 350 64 L 352 66 L 356 66 L 365 69 Q 370 68 373 65 L 373 60 L 367 52 Q 370 49 369 43 L 368 41 L 359 41 L 358 46 L 351 49 L 342 49 L 321 45 L 314 45 L 309 43 Q 305 42 306 37 Q 307 33 313 34 L 319 29 L 325 28 L 329 24 L 329 21 L 323 19 L 318 19 L 314 13 L 319 9 Q 332 7 337 14 Q 335 18 340 17 L 341 14 L 349 10 L 371 8 L 373 4 Q 366 2 354 3 L 353 2 L 339 2 L 338 3 L 271 2 Z M 8 4 L 6 6 Q 5 9 8 10 L 14 8 Q 16 7 14 6 Q 15 3 8 4 Z M 689 4 L 687 7 L 692 9 L 699 9 L 706 7 Q 700 2 689 4 Z M 409 62 L 402 65 Q 396 70 394 80 L 394 98 L 396 108 L 385 110 L 380 113 L 375 114 Q 372 113 373 116 L 371 116 L 361 130 Q 359 142 365 147 Q 371 154 383 157 L 389 146 L 388 143 L 381 140 L 376 136 L 376 134 L 386 127 L 389 127 L 395 124 L 400 124 L 405 133 L 405 137 L 403 139 L 397 158 L 394 174 Q 392 191 398 201 L 407 207 Q 415 208 420 206 L 433 197 L 432 193 L 427 185 L 424 185 L 414 192 L 410 192 L 408 187 L 410 165 L 415 153 Q 423 173 438 188 Q 437 190 440 189 L 447 197 Q 449 196 448 199 L 464 207 Q 474 209 479 204 L 485 195 Q 484 189 486 188 L 485 167 L 483 163 L 483 159 L 479 144 L 483 145 Q 481 137 487 135 Q 489 136 488 134 L 485 130 L 467 123 L 466 121 L 480 122 L 495 127 L 502 131 L 504 136 L 487 146 L 488 151 Q 489 155 487 157 Q 486 160 489 161 L 494 161 L 498 157 L 505 156 L 513 151 L 526 154 L 528 154 L 521 148 L 515 147 L 518 142 L 519 137 Q 520 127 515 124 L 505 115 L 493 110 L 459 103 L 440 103 L 452 87 L 462 80 L 469 77 L 471 81 L 471 93 L 473 94 L 486 94 L 485 76 L 482 70 Q 480 64 474 63 L 462 63 Q 451 67 445 75 Q 442 74 443 77 L 440 78 L 429 92 L 423 102 L 421 104 Q 414 103 411 105 L 408 90 L 410 77 L 413 77 L 421 82 L 424 82 L 430 73 L 430 71 L 419 63 L 409 62 Z M 283 71 L 284 77 L 279 79 L 270 79 L 269 80 L 258 80 L 257 79 L 250 81 L 242 81 L 239 83 L 224 86 L 217 90 L 223 92 L 248 94 L 257 97 L 271 98 L 287 104 Q 289 103 288 106 L 291 106 L 291 109 L 295 111 Q 301 110 304 113 L 314 113 L 320 116 Q 326 115 329 118 L 341 118 L 343 116 L 351 114 L 370 116 L 366 110 L 367 96 L 374 90 L 368 78 L 361 73 L 356 75 L 352 79 L 342 79 L 338 77 L 330 77 L 329 76 L 315 76 L 312 74 L 307 74 L 299 71 L 283 71 Z M 612 225 L 609 227 L 606 230 L 605 234 L 606 240 Q 610 246 623 244 L 627 238 Q 628 230 625 227 Q 621 224 612 225 Z M 130 228 L 130 326 L 132 327 L 146 327 L 147 326 L 147 288 L 165 288 L 184 326 L 186 327 L 203 327 L 203 323 L 183 288 L 183 285 L 193 281 L 201 271 L 203 264 L 203 252 L 198 241 L 190 233 L 184 230 L 175 228 L 130 228 Z M 525 228 L 523 230 L 523 326 L 525 327 L 573 327 L 582 325 L 588 322 Q 597 317 599 305 L 598 291 L 593 282 L 583 277 L 591 271 Q 590 268 593 269 L 597 258 L 596 246 L 592 239 L 580 230 L 571 228 L 525 228 Z M 450 238 L 448 240 Q 449 250 447 255 L 436 255 L 434 257 L 434 269 L 447 269 L 447 310 Q 449 311 448 316 L 453 323 L 463 327 L 484 327 L 485 326 L 485 313 Q 479 311 468 312 L 464 307 L 464 269 L 485 269 L 485 257 L 484 255 L 464 255 L 464 238 L 450 238 Z M 646 238 L 644 255 L 633 255 L 631 257 L 631 269 L 644 269 L 644 311 L 647 319 L 657 326 L 662 327 L 681 327 L 682 326 L 682 315 L 681 313 L 665 312 L 661 308 L 661 269 L 682 269 L 683 268 L 683 258 L 681 255 L 661 255 L 661 238 L 646 238 Z M 240 253 L 224 257 L 214 264 L 207 276 L 205 283 L 205 300 L 206 305 L 212 316 Q 220 326 236 329 Q 246 330 254 328 L 268 321 Q 275 316 277 306 L 276 304 L 261 304 L 257 310 L 251 314 L 246 315 L 235 314 L 230 311 Q 224 307 222 300 L 223 296 L 279 296 L 279 281 L 276 272 L 272 266 Q 262 253 240 253 Z M 316 253 L 306 255 L 297 259 Q 286 265 285 279 L 288 280 L 303 279 L 304 275 L 311 269 L 316 268 L 328 269 Q 335 273 335 283 L 330 282 L 314 282 L 308 284 L 303 284 L 291 290 L 284 300 Q 282 313 287 319 L 296 326 L 306 329 L 318 329 L 331 324 L 336 318 L 337 326 L 338 327 L 352 327 L 352 276 L 347 265 Q 338 252 316 253 Z M 394 253 L 384 255 L 374 260 Q 362 267 359 284 L 359 300 L 360 305 L 367 317 L 376 324 L 389 329 L 407 329 L 413 326 L 416 326 L 422 322 Q 431 316 433 304 L 432 302 L 417 302 L 414 307 L 405 314 L 391 314 L 382 309 L 377 300 L 377 292 L 376 291 L 377 282 L 380 277 Q 384 270 394 268 Q 405 267 411 272 L 417 281 L 432 281 L 433 280 Q 432 271 427 266 L 417 257 L 408 254 L 394 253 Z M 715 253 L 704 255 L 698 258 Q 690 263 688 273 L 689 284 L 692 288 L 701 293 L 729 300 Q 734 302 732 310 L 728 314 L 723 315 L 712 314 L 708 312 L 702 303 L 687 303 L 685 305 Q 686 313 690 318 L 698 324 L 713 329 L 727 329 L 741 324 Q 748 319 750 310 L 750 302 L 746 292 L 738 287 L 710 280 L 705 275 L 706 272 L 709 269 L 713 268 L 724 268 L 729 271 L 730 276 L 732 277 L 747 277 Q 748 269 744 265 Q 740 258 732 255 L 722 253 L 715 253 Z M 609 255 L 607 257 Q 605 263 608 265 L 608 316 L 607 317 L 607 326 L 609 327 L 624 327 L 625 326 L 625 257 L 624 255 L 609 255 Z " /><path fill="rgb(0,0,0)" stroke="rgb(0,0,0)" stroke-width="1" opacity="0" d="M 294.5 11 L 301 11 L 301 13.5 Q 299.1 17.8 292 16 Q 291.3 12.2 294.5 11 Z " /><path fill="rgb(0,0,0)" stroke="rgb(0,0,0)" stroke-width="1" opacity="0" d="M 587.5 11 Q 591.3 10.3 592 12.5 Q 593.1 15.8 590.5 15 L 587 16 L 586 12.5 L 587.5 11 Z " /><path fill="rgb(0,0,0)" stroke="rgb(0,0,0)" stroke-width="1" opacity="0" d="M 434.5 121 Q 443.5 119.5 446 124.5 L 446 129.5 Q 449 132.5 449 138.5 L 447.5 140 L 439 140.5 L 465 152.5 L 468 158.5 L 471 173.5 L 471 188.5 L 470 192 L 466.5 192 L 455 185 L 453.5 182 L 452 182 L 452 180 Q 449.3 181.1 450 178.5 L 433 156.5 L 422 136.5 L 422 133 L 425.5 134 L 426 132.5 L 425 128 L 432 127 Q 431 122.3 434.5 121 Z " /><path fill="rgb(0,0,0)" stroke="rgb(0,0,0)" stroke-width="1" opacity="0" d="M 147 242 L 176.5 244 L 184 250.5 L 186 259.5 L 184 266.5 L 178.5 272 L 169.5 275 L 147 275 L 147 242 Z " /><path fill="rgb(0,0,0)" stroke="rgb(0,0,0)" stroke-width="1" opacity="0" d="M 541 242 L 566.5 242 Q 574.6 243.4 578 249.5 Q 580.5 253 579 260.5 L 573.5 267 L 563.5 270 L 541.5 270 L 540 268.5 L 540 253.5 L 541 252.5 L 541 242 Z " /><path fill="rgb(0,0,0)" stroke="rgb(0,0,0)" stroke-width="1" opacity="0" d="M 236.5 268 L 251.5 269 L 260 276.5 L 262 283 L 222.5 283 L 222 281.5 L 228.5 272 L 236.5 268 Z " /><path fill="rgb(0,0,0)" stroke="rgb(0,0,0)" stroke-width="1" opacity="0" d="M 541 283 L 566.5 283 L 575.5 286 L 579 289.5 Q 582.5 293 582 300.5 L 578 309 L 568.5 313 L 541.5 313 Q 539 312 540 307.5 L 541 306.5 L 541 298.5 L 540 296.5 L 541 295.5 L 541 283 Z " /><path fill="rgb(0,0,0)" stroke="rgb(0,0,0)" stroke-width="1" opacity="0" d="M 310.5 296 L 335 296.5 Q 333.4 307.4 325.5 312 L 322.5 314 L 311.5 315 L 307.5 314 L 303 310.5 L 302 301.5 Q 304.8 297.3 310.5 296 Z " /><path fill="rgb(255,255,255)" stroke="rgb(255,255,255)" stroke-width="1" opacity="0.17647058823529413" d="M 273.5 0 L 317 0.5 L 273.5 1 L 273.5 0 Z " /><path fill="rgb(255,255,255)" stroke="rgb(255,255,255)" stroke-width="1" opacity="0.17647058823529413" d="M 335.5 0 L 358 0.5 L 335.5 1 L 335.5 0 Z " /><path fill="rgb(255,255,255)" stroke="rgb(255,255,255)" stroke-width="1" opacity="0.17647058823529413" d="M 403.5 0 L 421 0.5 L 420.5 2 L 430.5 3 L 435 6.5 L 433.5 9 L 423.5 13 L 416.5 13 L 415.5 12 L 401.5 11 L 393 5.5 Q 392.3 3.3 394.5 4 Q 399.1 1.1 407 1.5 Q 402.6 1.9 403.5 0 Z " /><path fill="rgb(255,255,255)" stroke="rgb(255,255,255)" stroke-width="1" opacity="0.17647058823529413" d="M 490.5 0 L 504 0.5 L 490.5 1 L 490.5 0 Z " /><path fill="rgb(255,255,255)" stroke="rgb(255,255,255)" stroke-width="1" opacity="0.17647058823529413" d="M 556.5 0 L 596 0.5 L 578 1.5 L 604.5 3 L 612 6.5 Q 610.6 9.6 605.5 9 L 600 13.5 L 600 19.5 L 595.5 25 L 586.5 31 L 583.5 31 Q 581.6 34.6 577 34 Q 578.1 36.7 575.5 36 L 570.5 44 L 567 42.5 L 564.5 39 L 555.5 38 Q 554 40.5 548.5 39 L 542 28.5 L 541 15.5 L 547 12 Q 545.9 14.7 548.5 14 L 550.5 14 L 552.5 13 L 556.5 15 L 558 12.5 L 556.5 11 L 544.5 11 L 541.5 9 L 530.5 7 L 527.5 9 L 521.5 10 L 518 13.5 L 516.5 16 L 512.5 16 L 502.5 11 L 497.5 11 Q 496 13.5 490.5 12 L 476 7 L 477.5 4 L 484.5 2 L 513.5 2 L 514.5 3 L 524.5 3 L 525.5 4 L 544.5 4 L 545.5 3 L 558.5 3 L 559.5 2 L 568 1.5 L 556.5 1 L 556.5 0 Z M 588 11 L 586 13 L 587 16 L 591 15 Q 593 16 592 13 Q 591 10 588 11 Z " /><path fill="rgb(255,255,255)" stroke="rgb(255,255,255)" stroke-width="1" opacity="0.17647058823529413" d="M 270.5 2 L 337.5 3 L 338.5 2 L 352.5 2 L 353.5 3 Q 365.9 1.8 373 4 L 370.5 8 L 348.5 10 L 341 14 L 339.5 17 Q 335.3 18.3 337 13.5 Q 331.7 7.3 318.5 9 L 314 12.5 L 317.5 19 L 322.5 19 L 329 21 L 329 23.5 L 324.5 28 L 318.5 29 L 312.5 34 Q 307 33 306 36.5 Q 305.4 41.6 308.5 43 L 313.5 45 L 320.5 45 L 341.5 49 L 350.5 49 L 358 45.5 L 359 41 L 367.5 41 L 369 42.5 Q 369.6 48.6 367 51.5 L 373 59.5 L 373 64.5 Q 370.4 68.4 364.5 69 L 355.5 66 L 351.5 66 L 349.5 64 L 332.5 59 L 327.5 59 L 320.5 56 Q 313.8 56.7 310.5 54 L 291.5 54 L 285.5 51 L 278.5 51 L 265 48 Q 266.1 45.3 263.5 46 L 254 40.5 L 255.5 39 L 261.5 39 L 268.5 37 L 280.5 37 L 287 36 Q 288.1 33.3 285.5 34 L 278.5 28 L 268 24 L 269.5 21 L 275 16.5 Q 276.3 10.4 273.5 11 L 270.5 9 Q 261 10 257 5.5 L 258.5 4 L 269.5 3 L 270.5 2 Z M 295 11 Q 291 12 292 16 Q 299 18 301 14 L 301 11 L 295 11 Z " /><path fill="rgb(255,255,255)" stroke="rgb(255,255,255)" stroke-width="1" opacity="0.17647058823529413" d="M 7.5 4 Q 14.5 2.5 14 5.5 Q 16.3 6.8 13.5 8 L 7.5 10 Q 5.3 9.3 6 5.5 L 7.5 4 Z " /><path fill="rgb(255,255,255)" stroke="rgb(255,255,255)" stroke-width="1" opacity="0.17647058823529413" d="M 688.5 4 Q 700.4 2.1 706 6.5 L 698.5 9 L 691.5 9 L 687 6.5 L 688.5 4 Z " /><path fill="rgb(255,255,255)" stroke="rgb(255,255,255)" stroke-width="1" opacity="0.17647058823529413" d="M 408.5 62 L 418.5 63 L 430 70.5 L 430 72.5 L 423.5 82 L 420.5 82 L 412.5 77 L 410 77 L 408 89.5 L 411 105 Q 413.7 103.1 420.5 104 L 423 101.5 L 429 91.5 L 440 78 L 443 76.5 Q 442.3 74.3 444.5 75 Q 451.1 67.1 461.5 63 L 473.5 63 Q 479.6 64.4 482 69.5 L 485 75.5 L 486 94 L 472.5 94 L 471 92.5 L 471 80.5 L 468.5 77 L 461.5 80 L 452 87 L 440 102.5 L 458.5 103 L 492.5 110 L 504.5 115 L 515 123.5 Q 519.8 127.2 519 136.5 L 518 141.5 L 515 147 L 520.5 148 L 528 153.5 L 525.5 154 L 512.5 151 L 504.5 156 L 497.5 157 L 493.5 161 L 488.5 161 Q 486.3 160.3 487 156.5 Q 489.3 155.3 488 150.5 L 487 145.5 L 504 135.5 L 501.5 131 L 494.5 127 L 479.5 122 L 465.5 121 L 466.5 123 L 484.5 130 L 488 133.5 Q 488.8 135.8 486.5 135 Q 481.3 137 483 145 L 479 144 L 483 158.5 L 483 162.5 L 485 166.5 L 486 187.5 Q 483.5 189 485 194.5 L 478.5 204 Q 474 208.5 463.5 207 L 448 199 Q 449.1 196.3 446.5 197 L 440 189 Q 437.3 190.1 438 187.5 Q 423.3 173.2 414.5 153 L 410 164.5 L 408 186.5 L 410 192 L 413.5 192 L 423.5 185 L 427 185 L 432 192.5 L 433 196.5 L 419.5 206 Q 414.7 208.3 406.5 207 L 398 200.5 Q 391.9 191.1 394 173.5 L 397 157.5 L 403 138.5 L 405 136.5 L 405 132.5 L 399.5 124 L 394.5 124 L 388.5 127 L 385.5 127 L 376 133.5 L 376 135.5 L 380.5 140 L 388 143 L 389 145.5 L 382.5 157 Q 371.4 154.1 365 146.5 Q 359.2 141.8 361 129.5 L 371 116 L 373 116 Q 371.9 113.3 374.5 114 L 379.5 113 L 384.5 110 L 396 108 L 394 97.5 L 394 79.5 Q 395.6 70 401.5 65 L 408.5 62 Z M 409 64 L 404 66 L 397 75 L 395 84 L 396 101 L 398 109 L 397 110 L 382 114 L 368 122 L 364 128 L 362 134 L 365 144 Q 371 151 382 155 L 386 148 L 386 144 L 378 140 Q 374 138 374 134 Q 384 122 402 121 L 407 134 L 398 161 L 395 178 L 396 193 L 401 202 L 408 205 Q 417 206 422 203 L 431 197 L 431 195 L 426 187 L 416 193 L 411 194 L 407 190 L 407 174 L 413 152 Q 412 149 415 150 Q 423 168 435 183 Q 445 198 464 205 Q 473 207 477 203 L 483 195 L 484 184 L 485 183 L 481 158 L 474 137 L 470 128 L 459 132 L 470 161 L 473 177 Q 475 189 470 194 Q 462 193 458 189 Q 434 168 420 137 L 420 134 L 430 117 L 461 117 Q 462 120 469 118 L 484 121 L 501 128 L 506 135 L 505 138 L 489 146 Q 488 153 493 157 Q 503 155 510 149 L 517 139 Q 518 130 515 127 L 508 119 L 486 110 L 465 106 L 437 105 L 447 91 L 463 77 L 471 76 Q 474 82 473 92 Q 476 94 483 93 L 485 90 L 484 79 L 480 70 L 471 64 L 466 64 L 460 66 L 448 74 Q 433 86 424 104 L 422 106 L 409 107 L 407 96 L 407 81 L 410 76 L 415 76 L 424 80 L 428 70 L 418 65 L 409 64 Z M 435 121 Q 431 122 432 127 L 425 128 L 426 134 L 427 135 Q 425 132 422 133 L 422 137 L 433 157 L 450 179 Q 449 181 452 180 L 452 182 L 454 182 L 455 185 L 467 192 L 470 192 L 471 189 L 471 174 L 468 159 L 465 153 L 439 141 L 448 140 L 449 139 Q 449 132 446 130 L 446 125 Q 444 119 435 121 Z " /><path fill="rgb(255,255,255)" stroke="rgb(255,255,255)" stroke-width="1" opacity="0.17647058823529413" d="M 283 71 L 298.5 71 L 306.5 74 L 311.5 74 L 314.5 76 L 328.5 76 L 329.5 77 L 337.5 77 L 341.5 79 L 351.5 79 L 355.5 75 L 360.5 73 L 368 77.5 L 374 89.5 L 367 95.5 L 366 109.5 L 370 116 L 350.5 114 L 342.5 116 L 340.5 118 L 328.5 118 Q 325.8 115.2 319.5 116 L 313.5 113 L 303.5 113 Q 300.6 110.4 294.5 111 L 291 108.5 L 291 106 L 288 106 Q 289.1 103.3 286.5 104 L 270.5 98 L 256.5 97 L 247.5 94 L 222.5 92 L 217 89.5 L 223.5 86 L 238.5 83 L 241.5 81 L 249.5 81 L 256.5 79 L 257.5 80 L 268.5 80 L 269.5 79 L 278.5 79 L 284 76.5 L 283 71 Z " /><path fill="rgb(255,255,255)" stroke="rgb(255,255,255)" stroke-width="1" opacity="0.17647058823529413" d="M 410.5 114 L 414 125 Q 409.3 125.8 408 121.5 Q 406.8 115.3 410.5 114 Z " /><path fill="rgb(255,255,255)" stroke="rgb(255,255,255)" stroke-width="1" opacity="0.17647058823529413" d="M 418.5 115 Q 421.3 116.3 420 121.5 L 415.5 125 L 415 123.5 L 418.5 115 Z " /><path fill="rgb(255,255,255)" stroke="rgb(255,255,255)" stroke-width="1" opacity="0.17647058823529413" d="M 611.5 225 Q 621.1 223.7 625 227 Q 627.9 229.9 627 237.5 L 622.5 244 Q 609.5 246.5 606 239.5 L 605 233.5 L 606 229.5 L 608.5 227 L 611.5 225 Z M 614 226 L 607 232 L 608 240 L 614 243 L 622 242 L 626 236 L 625 231 L 619 226 L 614 226 Z " /><path fill="rgb(255,255,255)" stroke="rgb(255,255,255)" stroke-width="1" opacity="0.17647058823529413" d="M 130 228 L 174.5 228 L 183.5 230 L 189.5 233 L 198 240.5 L 203 251.5 L 203 263.5 L 201 270.5 L 192.5 281 L 183 285 L 183 287.5 L 203 322.5 L 203 327 L 185.5 327 L 184 325.5 L 164.5 288 L 147 288 L 147 325.5 L 145.5 327 L 131.5 327 L 130 325.5 L 130 228 Z M 131 230 L 131 325 L 134 326 L 144 326 L 145 325 L 146 325 L 146 287 L 166 287 L 185 325 L 189 326 Q 197 327 202 325 L 184 293 L 181 284 L 184 284 L 194 278 L 200 269 L 202 260 Q 202 247 196 241 Q 189 233 177 230 L 131 230 Z " /><path fill="rgb(255,255,255)" stroke="rgb(255,255,255)" stroke-width="1" opacity="0.17647058823529413" d="M 524.5 228 L 570.5 228 L 579.5 230 L 592 238.5 L 596 245.5 L 597 257.5 L 593 269 Q 590.3 267.9 591 270.5 L 583 276.5 L 593 282 L 598 290.5 L 599 304.5 Q 596.9 316.9 587.5 322 L 581.5 325 L 572.5 327 L 524.5 327 L 523 325.5 L 523 229.5 L 524.5 228 Z M 529 229 L 528 230 L 525 231 L 525 325 L 528 326 L 564 326 L 565 325 L 575 325 L 588 320 Q 596 315 598 304 L 598 297 L 594 287 Q 590 280 582 277 Q 578 278 579 275 L 587 272 Q 592 268 595 261 Q 597 247 592 242 Q 586 232 573 230 L 534 230 L 529 229 Z " /><path fill="rgb(255,255,255)" stroke="rgb(255,255,255)" stroke-width="1" opacity="0.17647058823529413" d="M 449.5 238 L 464 238 L 464 255 L 483.5 255 L 485 256.5 L 485 269 L 464 269 L 464 306.5 L 467.5 312 Q 479.1 310.6 485 313 L 485 325.5 L 483.5 327 L 462.5 327 L 453 323 L 448 315.5 Q 449.2 310.8 447 309.5 L 447 269 L 434 269 L 434 256.5 L 435.5 255 L 447 255 Q 449.2 249.8 448 239.5 L 449.5 238 Z M 450 239 Q 448 245 449 255 L 448 256 L 448 257 L 437 257 L 435 259 L 435 267 L 437 268 L 448 268 L 448 308 L 452 319 L 462 325 Q 467 324 469 326 L 480 326 L 481 325 L 483 325 L 483 314 L 469 314 L 463 310 L 463 268 L 483 268 L 484 267 L 484 259 L 483 257 L 463 257 L 463 242 L 462 241 L 462 239 L 450 239 Z " /><path fill="rgb(255,255,255)" stroke="rgb(255,255,255)" stroke-width="1" opacity="0.17647058823529413" d="M 646 238 L 661 238 L 661 255 L 680.5 255 L 683 257.5 L 683 267.5 L 681.5 269 L 661 269 L 661 307.5 L 664.5 312 L 680.5 313 L 682 314.5 L 682 325.5 L 680.5 327 L 661.5 327 L 656.5 326 L 647 318.5 L 644 310.5 L 644 269 L 631 269 L 631 256.5 L 632.5 255 L 644 255 L 646 238 Z M 649 239 Q 644 245 646 256 Q 642 258 634 257 L 632 259 L 632 267 L 634 268 L 645 268 L 645 307 Q 647 308 646 313 L 649 319 L 657 324 L 668 326 L 677 326 L 678 325 L 680 325 L 680 314 L 666 314 L 664 313 L 660 309 L 660 268 L 681 268 L 681 257 L 662 257 L 660 256 L 660 241 L 659 239 L 649 239 Z " /><path fill="rgb(255,255,255)" stroke="rgb(255,255,255)" stroke-width="1" opacity="0.17647058823529413" d="M 553.5 240 L 569.5 241 L 579 247.5 L 581 253.5 L 581 258.5 Q 580.1 265.1 575.5 268 L 569.5 271 L 539 271 L 539 241 L 552.5 241 L 553.5 240 Z M 541 242 L 541 253 L 540 254 L 540 269 L 542 270 L 564 270 L 574 267 L 579 261 Q 581 253 578 250 Q 575 243 567 242 L 541 242 Z " /><path fill="rgb(255,255,255)" stroke="rgb(255,255,255)" stroke-width="1" opacity="0.17647058823529413" d="M 146 241 L 172.5 241 Q 180 242.5 184 247.5 Q 188.2 252.3 187 262.5 L 180.5 273 L 173.5 276 L 146 276 L 146 241 Z M 147 242 L 147 275 L 170 275 L 179 272 L 184 267 L 186 260 L 184 251 L 177 244 L 147 242 Z " /><path fill="rgb(255,255,255)" stroke="rgb(255,255,255)" stroke-width="1" opacity="0.17647058823529413" d="M 239.5 253 Q 262.4 252.6 272 265.5 L 276 271.5 L 279 280.5 L 279 296 L 222.5 296 L 222 299.5 Q 224.1 306.9 229.5 311 L 234.5 314 L 245.5 315 L 250.5 314 L 257 310 L 260.5 304 L 275.5 304 L 277 305.5 Q 274.6 315.6 267.5 321 L 253.5 328 Q 246.4 330.4 235.5 329 Q 219.9 326.1 212 315.5 L 206 304.5 L 205 299.5 L 205 282.5 L 207 275.5 L 214 264 L 223.5 257 L 239.5 253 Z M 237 255 Q 226 257 220 262 Q 209 269 206 285 Q 204 306 214 316 L 222 322 L 235 327 L 251 327 L 265 321 Q 273 316 275 305 L 264 305 L 262 306 L 259 310 L 250 316 L 236 316 L 230 313 Q 221 308 220 296 L 222 294 L 278 294 L 277 279 L 272 269 Q 266 261 257 257 L 249 255 L 237 255 Z " /><path fill="rgb(255,255,255)" stroke="rgb(255,255,255)" stroke-width="1" opacity="0.17647058823529413" d="M 315.5 253 Q 338 252 347 264.5 L 352 275.5 L 352 327 L 337.5 327 L 337 325.5 L 335.5 318 L 330.5 324 L 317.5 329 L 305.5 329 L 295.5 326 L 287 318.5 Q 281.8 312.7 284 299.5 L 290.5 290 L 302.5 284 L 307.5 284 L 313.5 282 L 329.5 282 L 335 283 Q 334.8 273 327.5 269 L 315.5 268 L 310.5 269 L 304 274.5 L 303 279 L 287.5 280 L 285 279 Q 285.8 264.7 296.5 259 L 305.5 255 L 315.5 253 Z M 314 255 L 303 258 L 293 264 L 287 276 L 288 278 L 301 278 L 304 271 L 315 266 Q 325 265 331 269 L 334 273 L 336 278 L 336 284 L 307 285 L 294 290 Q 288 294 285 302 Q 284 312 288 318 Q 293 325 304 327 Q 315 329 323 326 Q 332 323 337 315 L 338 325 L 343 326 L 351 325 L 351 280 L 349 272 L 344 264 Q 335 253 314 255 Z " /><path fill="rgb(255,255,255)" stroke="rgb(255,255,255)" stroke-width="1" opacity="0.17647058823529413" d="M 393.5 253 L 407.5 254 L 416.5 257 L 427 265.5 Q 432 270.5 433 279.5 L 431.5 281 L 416.5 281 L 410.5 272 Q 405.2 266.8 393.5 268 Q 384.3 269.8 380 276.5 L 377 281.5 L 376 290.5 L 377 291.5 L 377 299.5 L 382 309 L 390.5 314 L 404.5 314 L 414 306.5 L 416.5 302 L 431.5 302 L 433 303.5 Q 430.6 316.1 421.5 322 L 415.5 326 L 412.5 326 L 406.5 329 L 388.5 329 L 375.5 324 L 367 316.5 L 360 304.5 L 359 299.5 L 359 283.5 Q 361.9 267.4 373.5 260 L 383.5 255 L 393.5 253 Z M 392 255 L 379 259 L 373 263 Q 363 271 360 285 L 361 303 L 366 313 Q 372 321 383 325 L 398 328 L 413 325 L 422 320 Q 428 315 431 307 L 430 303 Q 420 302 416 304 L 415 308 Q 411 314 404 316 Q 391 318 385 313 Q 378 308 375 299 Q 373 284 378 277 Q 383 268 395 266 L 401 266 L 410 269 Q 415 271 416 278 L 418 279 L 431 279 L 428 270 Q 418 254 392 255 Z " /><path fill="rgb(255,255,255)" stroke="rgb(255,255,255)" stroke-width="1" opacity="0.17647058823529413" d="M 714.5 253 L 721.5 253 L 731.5 255 Q 739.6 257.9 744 264.5 Q 748.2 268.7 747 277 L 731.5 277 L 730 275.5 L 729 271 L 723.5 268 L 712.5 268 L 708.5 269 L 706 271.5 L 705 274.5 L 709.5 280 L 737.5 287 L 746 292 L 750 301.5 L 750 309.5 Q 748 319.5 740.5 324 L 726.5 329 L 712.5 329 L 697.5 324 L 690 317.5 Q 685.9 312.6 685 304.5 L 686.5 303 L 701.5 303 L 707.5 312 L 711.5 314 L 722.5 315 L 727.5 314 L 732 309.5 Q 733.5 301.5 728.5 300 L 700.5 293 L 692 288 L 689 283.5 L 688 272.5 Q 690.1 262.6 697.5 258 L 703.5 255 L 714.5 253 Z M 712 255 L 698 260 L 693 265 L 689 276 L 691 284 L 701 291 Q 709 296 723 296 L 732 300 L 734 305 L 732 313 L 727 316 L 722 317 L 712 316 L 708 314 L 702 307 L 701 305 L 687 305 L 688 312 L 692 318 Q 699 325 711 327 Q 730 329 741 322 Q 747 317 749 308 Q 749 300 746 296 Q 742 290 736 288 L 712 283 L 708 281 Q 703 280 704 272 L 712 266 Q 722 264 728 268 Q 732 270 732 275 L 736 276 Q 742 277 746 275 L 741 264 Q 732 253 712 255 Z " /><path fill="rgb(255,255,255)" stroke="rgb(255,255,255)" stroke-width="1" opacity="0.17647058823529413" d="M 608.5 255 L 623.5 255 L 625 256.5 L 625 325.5 L 623.5 327 L 608.5 327 L 607 325.5 L 607 316.5 L 608 315.5 L 608 264.5 Q 605.3 262.8 607 256.5 L 608.5 255 Z M 609 257 L 609 325 L 612 326 L 622 326 L 624 324 L 624 283 L 623 282 L 623 265 Q 625 263 624 259 L 623 257 L 609 257 Z " /><path fill="rgb(255,255,255)" stroke="rgb(255,255,255)" stroke-width="1" opacity="0.17647058823529413" d="M 237.5 266 L 247.5 266 Q 255.7 267.8 260 273.5 Q 264 277.4 263 285 L 221.5 285 Q 220.4 284.9 221 279.5 L 228.5 270 L 237.5 266 Z M 237 268 L 229 272 L 222 282 L 223 283 L 262 283 L 260 277 L 252 269 L 237 268 Z " /><path fill="rgb(255,255,255)" stroke="rgb(255,255,255)" stroke-width="1" opacity="0.17647058823529413" d="M 548.5 281 L 570.5 282 Q 577.3 284.3 581 289.5 Q 584.7 293.8 583 303.5 L 577.5 311 L 574.5 313 L 565.5 315 L 540.5 315 L 539 313.5 L 539 282 L 547.5 282 L 548.5 281 Z M 541 283 L 541 296 L 540 297 L 541 299 L 541 307 L 540 308 Q 539 312 542 313 L 569 313 L 578 309 L 582 301 Q 583 293 579 290 L 576 286 L 567 283 L 541 283 Z " /><path fill="rgb(255,255,255)" stroke="rgb(255,255,255)" stroke-width="1" opacity="0.17647058823529413" d="M 311.5 294 L 335.5 294 Q 336.5 294 336 298.5 Q 334.1 307.1 328.5 312 Q 323 317.5 311.5 317 Q 304.1 315.9 301 310.5 L 300 302.5 L 305.5 296 L 311.5 294 Z M 311 296 Q 305 297 302 302 L 303 311 L 308 314 L 312 315 L 323 314 L 326 312 Q 333 307 335 297 L 311 296 Z " /><path fill="rgb(255,255,255)" stroke="rgb(255,255,255)" stroke-width="1" opacity="0.984313725490196" d="M 408.5 64 L 417.5 65 L 428 70 L 424 80 L 414.5 76 L 409.5 76 L 407 80.5 L 407 95.5 L 409 107 L 421.5 106 L 424 103.5 Q 433.3 86.3 447.5 74 L 459.5 66 L 465.5 64 L 470.5 64 L 480 69.5 L 484 78.5 L 485 89.5 L 482.5 93 Q 475.7 93.9 473 92 Q 474.1 81.8 471 76 L 462.5 77 L 447 90.5 L 437 104.5 L 464.5 106 L 485.5 110 L 507.5 119 L 515 126.5 Q 518.3 130.2 517 138.5 L 509.5 149 Q 502.9 154.9 492.5 157 Q 488.4 152.9 489 146 L 505 137.5 L 506 134.5 L 500.5 128 L 483.5 121 L 468.5 118 Q 462.3 119.7 460.5 117 L 429.5 117 L 420 133.5 L 420 136.5 Q 433.9 167.6 457.5 189 Q 461.6 193.4 469.5 194 Q 474.9 188.9 473 176.5 L 470 160.5 L 459 132 L 469.5 128 L 474 136.5 L 481 157.5 L 485 182.5 L 484 183.5 L 483 194.5 L 476.5 203 Q 472.5 206.5 463.5 205 Q 445.4 197.6 435 182.5 Q 422.9 167.8 415 150 Q 412.3 148.9 413 151.5 L 407 173.5 L 407 189.5 L 410.5 194 L 415.5 193 L 425.5 187 L 431 194.5 L 431 197 L 421.5 203 Q 416.5 206 407.5 205 L 401 202 L 396 192.5 L 395 177.5 L 398 160.5 L 407 133.5 L 402 121 Q 383.5 122.2 374 133.5 Q 374.3 138.3 377.5 140 L 386 144 L 386 147.5 L 381.5 155 Q 371.2 151.3 365 143.5 L 362 133.5 L 364 127.5 L 368 122 L 381.5 114 L 396.5 110 L 398 108.5 L 396 100.5 L 395 83.5 L 397 74.5 L 403.5 66 L 408.5 64 Z M 411 114 Q 407 115 408 122 Q 409 126 414 125 L 411 114 Z M 419 115 L 415 124 L 416 125 L 420 122 Q 421 116 419 115 Z " /><path fill="rgb(255,255,255)" stroke="rgb(255,255,255)" stroke-width="1" opacity="0.984313725490196" d="M 613.5 226 L 618.5 226 L 625 230.5 L 626 235.5 L 621.5 242 L 613.5 243 L 608 239.5 L 607 231.5 L 613.5 226 Z " /><path fill="rgb(255,255,255)" stroke="rgb(255,255,255)" stroke-width="1" opacity="0.984313725490196" d="M 528.5 229 L 533.5 230 L 572.5 230 Q 585.7 232.3 592 241.5 Q 597.2 247.3 595 260.5 Q 592.4 267.9 586.5 272 L 579 275 Q 577.8 278 581.5 277 Q 589.6 279.9 594 286.5 L 598 296.5 L 598 303.5 Q 595.6 314.6 587.5 320 L 574.5 325 L 564.5 325 L 563.5 326 L 527.5 326 L 525 325 L 525 230.5 L 527.5 230 L 528.5 229 Z M 554 240 L 553 241 L 539 241 L 539 271 L 570 271 L 576 268 Q 580 265 581 259 L 581 254 L 579 248 L 570 241 L 554 240 Z M 549 281 L 548 282 L 539 282 L 539 314 L 541 315 L 566 315 L 575 313 L 578 311 L 583 304 Q 585 294 581 290 Q 577 284 571 282 L 549 281 Z " /><path fill="rgb(255,255,255)" stroke="rgb(255,255,255)" stroke-width="1" opacity="0.984313725490196" d="M 131 230 L 176.5 230 Q 189 232.5 196 240.5 Q 201.9 247.1 202 259.5 L 200 268.5 L 193.5 278 L 183.5 284 L 181 284 L 184 292.5 L 202 324.5 Q 197.5 327.5 188.5 326 L 185 325 L 165.5 287 L 146 287 L 146 324.5 L 144.5 325 L 143.5 326 L 133.5 326 L 131 325 L 131 230 Z M 146 241 L 146 276 L 174 276 L 181 273 L 187 263 Q 188 252 184 248 Q 180 242 173 241 L 146 241 Z " /><path fill="rgb(255,255,255)" stroke="rgb(255,255,255)" stroke-width="1" opacity="0.984313725490196" d="M 450 239 L 461.5 239 L 462 240.5 L 463 241.5 L 463 257 L 482.5 257 L 484 258.5 L 484 266.5 L 482.5 268 L 463 268 L 463 309.5 L 468.5 314 L 483 314 L 483 324.5 L 480.5 325 L 479.5 326 L 468.5 326 Q 467 323.5 461.5 325 L 452 318.5 L 448 307.5 L 448 268 L 436.5 268 L 435 266.5 L 435 258.5 L 436.5 257 L 447.5 257 L 448 255.5 L 449 254.5 Q 448.1 244.6 450 239 Z " /><path fill="rgb(255,255,255)" stroke="rgb(255,255,255)" stroke-width="1" opacity="0.984313725490196" d="M 648.5 239 L 658.5 239 L 660 240.5 L 660 255.5 L 661.5 257 L 681 257 L 681 268 L 660 268 L 660 308.5 L 663.5 313 L 665.5 314 L 680 314 L 680 324.5 L 677.5 325 L 676.5 326 L 667.5 326 L 656.5 324 L 649 318.5 L 646 312.5 Q 647.3 307.8 645 306.5 L 645 268 L 633.5 268 L 632 266.5 L 632 258.5 L 633.5 257 Q 642.4 258.3 646 256 Q 644.5 245.2 648.5 239 Z " /><path fill="rgb(255,255,255)" stroke="rgb(255,255,255)" stroke-width="1" opacity="0.984313725490196" d="M 236.5 255 L 248.5 255 L 256.5 257 Q 266.2 260.8 272 268.5 L 277 278.5 L 278 294 L 221.5 294 L 220 295.5 Q 220.9 308.1 229.5 313 L 235.5 316 L 249.5 316 L 259 309.5 L 261.5 306 L 263.5 305 L 275 305 Q 273.1 315.8 264.5 321 L 250.5 327 L 234.5 327 L 221.5 322 L 214 315.5 Q 204.2 305.8 206 284.5 Q 208.7 269.2 219.5 262 Q 226.1 256.6 236.5 255 Z M 238 266 L 229 270 L 221 280 Q 220 285 222 285 L 263 285 Q 264 277 260 274 Q 256 268 248 266 L 238 266 Z " /><path fill="rgb(255,255,255)" stroke="rgb(255,255,255)" stroke-width="1" opacity="0.984313725490196" d="M 313.5 255 Q 334.6 253.4 344 263.5 L 349 271.5 L 351 279.5 L 351 325 L 342.5 326 L 338 325 L 336.5 315 Q 331.6 322.6 322.5 326 Q 315 328.5 303.5 327 Q 293.1 324.9 288 317.5 Q 283.6 312.4 285 301.5 Q 287.6 294.1 293.5 290 L 306.5 285 L 336 284 L 336 277.5 L 334 272.5 L 330.5 269 Q 325.4 264.7 314.5 266 L 304 271 L 300.5 278 L 287.5 278 L 287 275.5 L 293 264 L 302.5 258 L 313.5 255 Z M 312 294 L 306 296 L 300 303 L 301 311 Q 304 316 312 317 Q 323 318 329 312 Q 334 307 336 299 Q 336 294 336 294 L 312 294 Z " /><path fill="rgb(255,255,255)" stroke="rgb(255,255,255)" stroke-width="1" opacity="0.984313725490196" d="M 391.5 255 Q 418.4 253.6 428 269.5 L 431 279 L 417.5 279 L 416 277.5 Q 414.6 271.4 409.5 269 L 400.5 266 L 394.5 266 Q 382.9 267.9 378 276.5 Q 372.8 283.8 375 298.5 Q 377.8 307.7 384.5 313 Q 390.7 317.8 403.5 316 Q 411.4 313.9 415 307.5 L 416 304 Q 420.5 302 429.5 303 L 431 306.5 Q 427.8 314.8 421.5 320 L 412.5 325 L 397.5 328 L 382.5 325 Q 372.2 320.8 366 312.5 L 361 302.5 L 360 284.5 Q 363 270.5 372.5 263 L 378.5 259 L 391.5 255 Z " /><path fill="rgb(255,255,255)" stroke="rgb(255,255,255)" stroke-width="1" opacity="0.984313725490196" d="M 711.5 255 Q 732.3 253.2 741 263.5 L 746 274.5 Q 742.3 276.8 735.5 276 L 732 275 Q 731.6 270.3 727.5 268 Q 722.5 264 711.5 266 L 704 271.5 Q 702.5 279.5 707.5 281 L 711.5 283 L 735.5 288 Q 742.3 290.3 746 295.5 Q 749.2 299.8 749 307.5 Q 747.2 317.2 740.5 322 Q 730.4 329.4 710.5 327 Q 698.8 324.7 692 317.5 L 688 311.5 L 687 305 L 700.5 305 L 702 306.5 L 707.5 314 L 711.5 316 L 721.5 317 L 726.5 316 L 732 312.5 L 734 304.5 L 732 300 L 722.5 296 Q 709.4 295.6 700.5 291 L 691 283.5 L 689 275.5 L 693 264.5 L 697.5 260 L 711.5 255 Z " /><path fill="rgb(255,255,255)" stroke="rgb(255,255,255)" stroke-width="1" opacity="0.984313725490196" d="M 609 257 L 622.5 257 L 624 258.5 Q 625.2 263.2 623 264.5 L 623 281.5 L 624 282.5 L 624 323.5 L 621.5 326 L 611.5 326 L 609 325 L 609 257 Z " /></svg>